<svg width="133" height="37" viewBox="0 0 133 37" fill="none" xmlns="http://www.w3.org/2000/svg">
<path d="M0.399886 35.5V2.635H12.067C13.7572 2.635 15.283 2.9793 16.6446 3.6679C18.0218 4.3565 19.1095 5.35027 19.9076 6.64922C20.7214 7.93252 21.1283 9.47405 21.1283 11.2738C21.1283 12.1502 20.9875 13.0109 20.7058 13.856C20.4241 14.7011 20.025 15.4445 19.5085 16.0862C18.9921 16.7278 18.3661 17.1817 17.6305 17.4477C18.6321 17.6981 19.4616 18.152 20.1189 18.8093C20.7918 19.4509 21.3239 20.2021 21.7152 21.0629C22.1064 21.9236 22.3803 22.8157 22.5368 23.739C22.709 24.6624 22.795 25.5388 22.795 26.3682C22.795 28.121 22.3725 29.686 21.5274 31.0632C20.6823 32.4404 19.5477 33.5281 18.1235 34.3262C16.715 35.1087 15.1578 35.5 13.452 35.5H0.399886ZM5.28269 31.2745H12.9825C13.9841 31.2745 14.8918 31.0241 15.7056 30.5233C16.535 30.0225 17.1923 29.3339 17.6775 28.4575C18.1626 27.5654 18.4052 26.5638 18.4052 25.4527C18.4052 24.4824 18.1626 23.5669 17.6775 22.7061C17.1923 21.8297 16.535 21.1255 15.7056 20.5934C14.8918 20.0613 13.9841 19.7952 12.9825 19.7952H5.28269V31.2745ZM5.28269 15.6401H11.5505C12.8338 15.6401 13.9371 15.2489 14.8605 14.4664C15.7838 13.6839 16.2455 12.6119 16.2455 11.2503C16.2455 9.79487 15.7838 8.7072 14.8605 7.9873C13.9371 7.25175 12.8338 6.88397 11.5505 6.88397H5.28269V15.6401ZM44.6602 12.025H49.543V35.5H44.6367L44.4489 32.0961C43.7603 33.3012 42.8291 34.2715 41.6554 35.007C40.4816 35.7426 39.0966 36.1104 37.5003 36.1104C35.7788 36.1104 34.159 35.7895 32.641 35.1479C31.1229 34.4906 29.7848 33.5829 28.6267 32.4248C27.4843 31.2667 26.5922 29.9364 25.9506 28.434C25.3089 26.916 24.9881 25.2884 24.9881 23.5512C24.9881 21.8767 25.3011 20.3038 25.9271 18.8327C26.5531 17.346 27.4217 16.047 28.5328 14.9359C29.644 13.8247 30.9273 12.9562 32.3827 12.3302C33.8538 11.6885 35.4267 11.3677 37.1012 11.3677C38.8071 11.3677 40.3095 11.7589 41.6084 12.5414C42.923 13.3083 44.0107 14.2942 44.8714 15.4993L44.6602 12.025ZM37.3829 31.3919C38.7601 31.3919 39.9652 31.0554 40.9981 30.3824C42.031 29.6938 42.8291 28.7705 43.3925 27.6124C43.9716 26.4543 44.2611 25.171 44.2611 23.7625C44.2611 22.3383 43.9716 21.0472 43.3925 19.8891C42.8135 18.731 42.0075 17.8155 40.9746 17.1425C39.9573 16.4539 38.7601 16.1096 37.3829 16.1096C36.0214 16.1096 34.7772 16.4539 33.6504 17.1425C32.5236 17.8311 31.6315 18.7545 30.9742 19.9126C30.3169 21.0707 29.9883 22.354 29.9883 23.7625C29.9883 25.1866 30.3248 26.4778 30.9977 27.6359C31.6863 28.7783 32.5862 29.6938 33.6973 30.3824C34.8241 31.0554 36.0527 31.3919 37.3829 31.3919ZM61.2698 35.946C60.0335 35.8678 58.8284 35.6174 57.6547 35.1948C56.4809 34.7723 55.448 34.201 54.556 33.4811C53.6796 32.7456 53.0223 31.8848 52.5841 30.8989L56.7391 29.1148C56.9426 29.5373 57.2947 29.9521 57.7955 30.359C58.312 30.7659 58.9145 31.1023 59.6031 31.3684C60.2917 31.6188 61.0116 31.744 61.7628 31.744C62.4983 31.744 63.1791 31.6423 63.8051 31.4388C64.4468 31.2197 64.971 30.8911 65.3779 30.4529C65.7849 30.0147 65.9883 29.4904 65.9883 28.88C65.9883 28.1914 65.7536 27.6593 65.284 27.2837C64.8302 26.8925 64.259 26.5951 63.5704 26.3917C62.8818 26.1882 62.1932 25.9926 61.5046 25.8048C59.9709 25.4605 58.5624 24.991 57.2791 24.3963C56.0114 23.786 55.002 23.0113 54.2508 22.0723C53.4996 21.1176 53.124 19.9517 53.124 18.5745C53.124 17.0721 53.5309 15.7732 54.3447 14.6777C55.1585 13.5665 56.2227 12.7136 57.5373 12.1189C58.8675 11.5242 60.2839 11.2268 61.7863 11.2268C63.6643 11.2268 65.3858 11.6259 66.9508 12.4241C68.5158 13.2222 69.713 14.3177 70.5425 15.7106L66.6691 18.0111C66.4343 17.5416 66.0822 17.1191 65.6127 16.7435C65.1432 16.3679 64.6111 16.0705 64.0164 15.8514C63.4217 15.6167 62.8035 15.4836 62.1619 15.4523C61.3637 15.421 60.6203 15.5149 59.9317 15.734C59.2588 15.9375 58.7189 16.2661 58.312 16.72C57.9051 17.1738 57.7016 17.7529 57.7016 18.4571C57.7016 19.1457 57.9442 19.6622 58.4293 20.0065C58.9145 20.3351 59.5248 20.6012 60.2604 20.8046C61.0116 21.0081 61.7784 21.235 62.5609 21.4854C63.9538 21.9236 65.2606 22.4635 66.4813 23.1052C67.702 23.7312 68.6879 24.5059 69.4391 25.4292C70.1903 26.3526 70.5503 27.4794 70.519 28.8096C70.519 30.2807 70.0729 31.5718 69.1809 32.683C68.3045 33.7941 67.162 34.6392 65.7535 35.2183C64.345 35.7974 62.8505 36.0399 61.2698 35.946ZM84.5468 36.1104C82.3871 36.1104 80.4152 35.5548 78.6311 34.4436C76.8626 33.3325 75.4463 31.8457 74.3821 29.9834C73.3335 28.1054 72.8093 26.0317 72.8093 23.7625C72.8093 22.041 73.1144 20.4369 73.7248 18.9501C74.3351 17.4477 75.1724 16.1331 76.2366 15.0063C77.3165 13.8639 78.5685 12.9718 79.9926 12.3302C81.4168 11.6885 82.9348 11.3677 84.5468 11.3677C86.3465 11.3677 87.9976 11.7433 89.5 12.4945C91.0024 13.23 92.2857 14.2551 93.3499 15.5697C94.4141 16.8687 95.1966 18.3711 95.6974 20.0769C96.1982 21.7671 96.3469 23.5669 96.1434 25.4762H78.0442C78.2476 26.556 78.6389 27.5341 79.2179 28.4105C79.8126 29.2713 80.5638 29.9521 81.4715 30.4529C82.3949 30.9537 83.42 31.2119 84.5468 31.2275C85.7362 31.2275 86.816 30.9302 87.7863 30.3355C88.7723 29.7408 89.5782 28.9192 90.2042 27.8706L95.1575 29.0209C94.2185 31.1023 92.8021 32.8082 90.9085 34.1384C89.0148 35.453 86.8943 36.1104 84.5468 36.1104ZM77.8799 21.7436H91.2137C91.0572 20.6168 90.6581 19.5996 90.0164 18.6919C89.3904 17.7685 88.6001 17.0408 87.6455 16.5087C86.7065 15.961 85.6736 15.6871 84.5468 15.6871C83.4356 15.6871 82.4027 15.9531 81.4481 16.4852C80.5091 17.0173 79.7266 17.7451 79.1006 18.6684C78.4902 19.5761 78.0833 20.6012 77.8799 21.7436ZM118.272 0.287497H123.155V35.5H118.272V32.0492C117.505 33.2699 116.504 34.2558 115.267 35.007C114.031 35.7426 112.583 36.1104 110.925 36.1104C109.219 36.1104 107.622 35.7895 106.136 35.1479C104.649 34.5062 103.334 33.622 102.192 32.4952C101.065 31.3527 100.181 30.0381 99.5392 28.5514C98.8976 27.0646 98.5767 25.4683 98.5767 23.7625C98.5767 22.0566 98.8976 20.4603 99.5392 18.9736C100.181 17.4712 101.065 16.1566 102.192 15.0298C103.334 13.8873 104.649 12.9953 106.136 12.3536C107.622 11.712 109.219 11.3912 110.925 11.3912C112.583 11.3912 114.031 11.7668 115.267 12.518C116.504 13.2535 117.505 14.2238 118.272 15.4289V0.287497ZM110.972 31.3919C112.349 31.3919 113.554 31.0554 114.587 30.3824C115.62 29.6938 116.418 28.7705 116.981 27.6124C117.56 26.4543 117.85 25.171 117.85 23.7625C117.85 22.3383 117.56 21.0472 116.981 19.8891C116.402 18.731 115.596 17.8155 114.563 17.1425C113.546 16.4539 112.349 16.1096 110.972 16.1096C109.61 16.1096 108.366 16.4539 107.239 17.1425C106.128 17.8311 105.236 18.7545 104.563 19.9126C103.906 21.0707 103.577 22.354 103.577 23.7625C103.577 25.1866 103.913 26.4778 104.586 27.6359C105.275 28.7783 106.175 29.6938 107.286 30.3824C108.413 31.0554 109.641 31.3919 110.972 31.3919ZM130.399 36.1104C129.679 36.1104 129.068 35.86 128.568 35.3591C128.082 34.8583 127.84 34.248 127.84 33.5281C127.84 32.8238 128.082 32.2213 128.568 31.7205C129.068 31.2197 129.679 30.9693 130.399 30.9693C131.118 30.9693 131.729 31.2197 132.23 31.7205C132.73 32.2213 132.981 32.8238 132.981 33.5281C132.981 34.248 132.73 34.8583 132.23 35.3591C131.729 35.86 131.118 36.1104 130.399 36.1104Z" fill="white"/>
</svg>
