<svg width="110" height="110" viewBox="0 0 110 110" fill="none" xmlns="http://www.w3.org/2000/svg">
<circle cx="50" cy="60" r="49.5" stroke="white" stroke-opacity="0.5"/>
<circle cx="60" cy="50" r="49.5" stroke="white" stroke-opacity="0.5"/>
<path d="M22.1269 34.5061L18.8327 24.7733L8.81842 23.0075L18.4855 19.3986L20.4904 9.16954L23.7847 18.9023L33.7989 20.6682L24.1318 24.277L22.1269 34.5061Z" fill="#56B4AB"/>
<path d="M22.0317 33.0313L19.192 24.6415L19.1224 24.4358L18.9085 24.3981L10.2577 22.8727L18.6086 19.7552L18.815 19.6781L18.8574 19.4619L20.5857 10.6443L23.4253 19.0341L23.495 19.2398L23.7088 19.2775L32.3597 20.8029L24.0087 23.9205L23.8023 23.9976L23.7599 24.2138L22.0317 33.0313Z" stroke="white" stroke-opacity="0.5" stroke-width="0.76"/>
</svg>
