<svg width="162" height="48" viewBox="0 0 162 48" fill="none" xmlns="http://www.w3.org/2000/svg">
<g clip-path="url(#clip0_4003_7940)">
<path d="M66.0008 31.3578C63.9251 31.3578 62.2583 30.8482 61.0002 29.8292C59.7421 28.8102 59.1113 27.4622 59.1113 25.7853C59.1113 24.1084 59.7421 22.7605 61.0002 21.7414C62.2583 20.7256 63.9251 20.2129 66.0008 20.2129C68.0447 20.2129 69.6975 20.6515 70.9555 21.5222C72.2136 22.3961 72.8585 23.5441 72.8902 24.9695V26.685H63.023C63.3754 27.9717 64.7497 28.6135 67.1425 28.6135C67.5866 28.6135 68.013 28.5973 68.4253 28.5619C68.8376 28.5264 69.1794 28.4845 69.4437 28.4361C69.7115 28.3877 70.0076 28.3136 70.3353 28.2168C70.663 28.1201 70.9027 28.0427 71.0577 27.9879C71.2092 27.933 71.4418 27.8427 71.7555 27.7137C72.0691 27.588 72.2805 27.5074 72.3863 27.4622V30.3323C71.3009 30.7096 70.3247 30.974 69.4543 31.1288C68.5839 31.2836 67.435 31.3578 66.0008 31.3578ZM62.9349 25.221L69.116 25.0952C69.0702 24.4535 68.7636 23.9536 68.1997 23.5989C67.6359 23.2442 66.9029 23.0668 66.0043 23.0668C65.1797 23.0668 64.489 23.2571 63.9322 23.6408C63.3719 24.0214 63.0406 24.5502 62.9349 25.221Z" fill="white"/>
<path d="M73.5137 31.0204V20.5463H77.7707L77.3126 24.8611H77.4958C77.7707 23.2842 78.3592 22.1136 79.2578 21.3525C80.16 20.5915 81.4744 20.2109 83.1977 20.2109C84.3253 20.2271 85.2204 20.4141 85.8759 20.7785C86.5314 21.1429 87.0318 21.7814 87.3771 22.6972C87.719 23.6099 87.8916 24.874 87.8916 26.4767V31.0204H83.9518V26.8314C83.9518 25.3803 83.7298 24.3645 83.2893 23.784C82.8453 23.2068 82.0982 22.9165 81.0445 22.9165C79.9767 22.9165 79.1098 23.3712 78.4473 24.2774C77.7812 25.1868 77.45 26.3671 77.45 27.8182V31.0236H73.5137V31.0204Z" fill="white"/>
<path d="M88.8906 31.02V29.2174L97.1298 23.2483H89.0739V20.5459H103.973V22.3066L95.7801 28.2983H103.748V31.02H88.8906Z" fill="white"/>
<path d="M108.636 35.209L111.177 30.8942L104.654 20.5459H109.119L113.196 27.3309L117.249 20.5459H121.573L112.967 35.209H108.636Z" fill="white"/>
<path d="M122.096 31.0204V20.5463H126.353L125.895 24.8611H126.078C126.353 23.2842 126.941 22.1136 127.84 21.3525C128.742 20.5915 130.053 20.2109 131.78 20.2109C133.242 20.24 134.331 20.5882 135.043 21.259C135.751 21.9297 136.185 23.1294 136.336 24.8611H136.519C136.794 23.2842 137.383 22.1136 138.281 21.3525C139.18 20.5915 140.491 20.2109 142.218 20.2109C143.345 20.2271 144.241 20.4141 144.896 20.7785C145.552 21.1429 146.052 21.7814 146.394 22.6972C146.739 23.6099 146.908 24.874 146.908 26.4767V31.0204H142.968V26.8314C142.968 25.3641 142.75 24.3451 142.306 23.7743C141.862 23.2035 141.115 22.9165 140.065 22.9165C138.997 22.9165 138.13 23.3712 137.467 24.2774C136.805 25.1868 136.474 26.3671 136.474 27.8182V31.0236H132.534V26.8314C132.534 25.3641 132.312 24.3451 131.871 23.7743C131.427 23.2035 130.68 22.9165 129.627 22.9165C128.559 22.9165 127.692 23.3712 127.029 24.2774C126.363 25.1868 126.032 26.3671 126.032 27.8182V31.0236H122.096V31.0204Z" fill="white"/>
<path d="M154.229 31.3558C152.154 31.3558 150.487 30.8463 149.229 29.8273C147.971 28.8082 147.34 27.4603 147.34 25.7834C147.34 24.1065 147.971 22.7585 149.229 21.7395C150.487 20.7237 152.154 20.2109 154.229 20.2109C156.273 20.2109 157.926 20.6495 159.184 21.5202C160.442 22.3941 161.087 23.5421 161.119 24.9675V26.6831H151.251C151.604 27.9698 152.978 28.6115 155.371 28.6115C155.815 28.6115 156.241 28.5954 156.654 28.5599C157.066 28.5244 157.408 28.4825 157.672 28.4341C157.94 28.3858 158.236 28.3116 158.564 28.2149C158.892 28.1181 159.131 28.0407 159.286 27.9859C159.438 27.9311 159.67 27.8408 159.984 27.7118C160.298 27.586 160.509 27.5054 160.615 27.4603V30.3303C159.529 30.7076 158.553 30.9721 157.683 31.1268C156.812 31.2816 155.664 31.3558 154.229 31.3558ZM151.16 25.219L157.341 25.0933C157.295 24.4515 156.989 23.9517 156.425 23.597C155.861 23.2422 155.128 23.0649 154.229 23.0649C153.405 23.0649 152.714 23.2551 152.157 23.6389C151.6 24.0194 151.269 24.5483 151.16 25.219Z" fill="white"/>
<path d="M48 24C48 37.2548 37.2548 48 24 48C10.7452 48 0 37.2548 0 24C0 10.7452 10.7452 0 24 0C37.2548 0 48 10.7452 48 24Z" fill="url(#paint0_linear_4003_7940)"/>
<path d="M24.9512 15.7126C24.9512 14.0764 26.2776 12.75 27.9138 12.75C29.55 12.75 30.8764 14.0764 30.8764 15.7126V24.3059H24.9512V15.7126Z" fill="white"/>
<path d="M24.952 33.0123C24.952 34.7114 23.5745 36.0889 21.8754 36.0889C20.1762 36.0889 18.7988 34.7114 18.7988 33.0123V24.3064H24.952V33.0123Z" fill="white"/>
<path d="M14.9238 18.5416C14.9238 17.4718 15.7911 16.6045 16.8609 16.6045C17.9308 16.6045 18.798 17.4718 18.798 18.5416V24.3084H14.9238V18.5416Z" fill="white"/>
<path d="M14.9238 27.2383C14.9238 28.6228 13.8015 29.7451 12.417 29.7451C11.0325 29.7451 9.91016 28.6228 9.91016 27.2383V24.3071H14.9238V27.2383Z" fill="white"/>
<path d="M41.8705 26.2054C41.8705 27.2505 41.0233 28.0977 39.9782 28.0977C38.9331 28.0977 38.0859 27.2504 38.0859 26.2054V24.3131H41.8705V26.2054Z" fill="white"/>
<path d="M6.12891 22.4216C6.12891 21.3765 6.97611 20.5293 8.02119 20.5293C9.06628 20.5293 9.91348 21.3765 9.91348 22.4216V24.3139H6.12891V22.4216Z" fill="white"/>
<path d="M34.7513 31.2055C34.7513 32.2753 33.884 33.1426 32.8141 33.1426C31.7443 33.1426 30.877 32.2753 30.877 31.2055V24.3057H34.7513V31.2055Z" fill="white"/>
<path d="M34.752 18.0842C34.752 17.1402 35.5172 16.375 36.4612 16.375C37.4051 16.375 38.1704 17.1402 38.1704 18.0842V24.3055H34.752V18.0842Z" fill="white"/>
</g>
<defs>
<linearGradient id="paint0_linear_4003_7940" x1="24" y1="10.2857" x2="24" y2="33.7143" gradientUnits="userSpaceOnUse">
<stop stop-color="#6F56FD"/>
<stop offset="1" stop-color="#00CABE"/>
</linearGradient>
<clipPath id="clip0_4003_7940">
<rect width="162" height="48" fill="white"/>
</clipPath>
</defs>
</svg>
