<svg width="207" height="43" viewBox="0 0 207 43" fill="none" xmlns="http://www.w3.org/2000/svg">
<g id="logo">
<g id="BEDROCK LOGO">
<path id="Subtract" fill-rule="evenodd" clip-rule="evenodd" d="M37.6225 18.8583V35.4231H55.7978V30.5119H42.8817V23.3578H53.4775V18.8583H37.6225ZM60.4322 18.8583V35.4231H69.4425C69.6617 35.4231 70.1128 35.4166 70.796 35.4038C71.4792 35.3909 72.1366 35.3457 72.7682 35.2684C75.0112 34.9977 76.9125 34.2178 78.4722 32.9288C80.0319 31.6398 81.2178 30.0027 82.0299 28.0176C82.842 26.0325 83.248 23.8605 83.248 21.5016C83.248 20.5927 83.1878 19.7117 83.0672 18.8583H77.4308C77.5966 19.709 77.6794 20.5901 77.6794 21.5016C77.6794 22.8293 77.4925 24.1183 77.1187 25.3687C76.7578 26.619 76.1906 27.6889 75.4172 28.5783C74.6567 29.4678 73.6706 30.0349 72.4589 30.2799C71.9819 30.3701 71.447 30.4281 70.854 30.4539C70.2611 30.4668 69.7906 30.4732 69.4425 30.4732H65.7688V18.8583H60.4322ZM99.643 7.58006H87.887V35.4231H93.1463V25.9874H99.0145L103.587 35.4231H109.543L104.516 25.1113C105.733 24.5741 106.7 23.7963 107.416 22.7777C108.576 21.1149 109.156 19.1169 109.156 16.7837C109.156 15.224 108.905 13.8125 108.402 12.5493C107.899 11.2731 107.113 10.2161 106.043 9.37826C104.986 8.54039 103.626 7.99255 101.963 7.73475C101.602 7.67029 101.19 7.63162 100.726 7.61873C100.275 7.59295 99.9137 7.58006 99.643 7.58006ZM99.411 21.0762H93.1463V12.4913H99.411C99.6817 12.4913 99.9781 12.5042 100.3 12.5299C100.623 12.5557 100.919 12.6073 101.19 12.6846C101.899 12.878 102.447 13.2067 102.833 13.6707C103.22 14.1219 103.484 14.6311 103.626 15.1982C103.781 15.7525 103.858 16.281 103.858 16.7837C103.858 17.2865 103.781 17.8214 103.626 18.3886C103.484 18.9429 103.22 19.452 102.833 19.9161C102.447 20.3672 101.899 20.6895 101.19 20.8828C100.919 20.9602 100.623 21.0117 100.3 21.0375C99.9781 21.0633 99.6817 21.0762 99.411 21.0762ZM118.531 34.1856C120.554 35.3973 122.958 36.0032 125.743 36.0032C128.527 36.0032 130.925 35.3973 132.936 34.1856C134.959 32.9739 136.513 31.2789 137.595 29.1004C138.691 26.9219 139.239 24.389 139.239 21.5016C139.239 18.6142 138.691 16.0812 137.595 13.9028C136.513 11.7243 134.959 10.0292 132.936 8.81753C130.925 7.60584 128.527 7 125.743 7C122.958 7 120.554 7.60584 118.531 8.81753C116.52 10.0292 114.967 11.7243 113.871 13.9028C112.788 16.0812 112.247 18.6142 112.247 21.5016C112.247 24.389 112.788 26.9219 113.871 29.1004C114.967 31.2789 116.52 32.9739 118.531 34.1856ZM130.151 29.9125C128.978 30.6988 127.509 31.0791 125.743 31.0533C123.977 31.0275 122.507 30.6215 121.334 29.8351C120.161 29.0488 119.278 27.9467 118.685 26.5288C118.105 25.1109 117.815 23.4351 117.815 21.5016C117.815 19.568 118.105 17.8794 118.685 16.4357C119.278 14.992 120.161 13.877 121.334 13.0907C122.507 12.3044 123.977 11.9241 125.743 11.9499C127.509 11.9757 128.978 12.3817 130.151 13.168C131.324 13.9543 132.201 15.0564 132.781 16.4744C133.374 17.8923 133.67 19.568 133.67 21.5016C133.67 23.4351 133.374 25.1237 132.781 26.5675C132.201 28.0112 131.324 29.1262 130.151 29.9125ZM147.836 34.1856C149.86 35.3973 152.264 36.0032 155.048 36.0032C158.245 36.0032 160.926 35.2104 163.092 33.6249C165.27 32.0394 166.804 29.8932 167.693 27.1862L162.396 25.7167C161.88 27.3924 161.01 28.7008 159.785 29.6418C158.561 30.5828 156.982 31.0533 155.048 31.0533C153.282 31.0533 151.806 30.6601 150.62 29.8738C149.447 29.0875 148.564 27.9789 147.971 26.5481C147.378 25.1173 147.082 23.4351 147.082 21.5016C147.082 19.568 147.378 17.8858 147.971 16.455C148.564 15.0242 149.447 13.9156 150.62 13.1293C151.806 12.343 153.282 11.9499 155.048 11.9499C156.982 11.9499 158.561 12.4204 159.785 13.3614C161.01 14.2895 161.88 15.5978 162.396 17.2865L167.693 15.817C166.804 13.11 165.27 10.9638 163.092 9.37826C160.926 7.79275 158.245 7 155.048 7C152.264 7 149.86 7.60584 147.836 8.81753C145.825 10.0292 144.272 11.7243 143.176 13.9028C142.093 16.0812 141.552 18.6142 141.552 21.5016C141.552 24.389 142.093 26.9219 143.176 29.1004C144.272 31.2789 145.825 32.9739 147.836 34.1856ZM177.21 7.58006H171.951V35.4231H177.21V22.739L188.309 35.4231H194.96L182.585 21.3082L194.225 7.58006H187.806L177.21 20.4188V7.58006ZM13 7.58006V35.4231H25.336C27.2309 35.4231 28.8035 35.0686 30.0539 34.3596C31.3042 33.6378 32.2323 32.6452 32.8382 31.382C33.4569 30.1187 33.7663 28.6557 33.7663 26.9928C33.7663 25.446 33.328 24.0474 32.4514 22.797C31.8235 21.8879 30.9638 21.2139 29.8725 20.775C30.4873 20.4011 31.0054 19.9021 31.4267 19.278C32.1356 18.2468 32.4901 16.9513 32.4901 15.3916C32.4901 14.167 32.2065 12.9553 31.6394 11.7565C31.0722 10.5577 30.1763 9.56517 28.9517 8.77886C27.7272 7.97966 26.1223 7.58006 24.1372 7.58006H13ZM24.7946 30.4732H18.3366V23.3578H24.7946C25.6067 23.3578 26.2834 23.5125 26.8248 23.8218C27.3791 24.1183 27.7916 24.5243 28.0623 25.04C28.333 25.5556 28.4683 26.1421 28.4683 26.7995C28.4683 27.5471 28.3072 28.1981 27.985 28.7524C27.6756 29.2938 27.2438 29.7191 26.6895 30.0285C26.1352 30.325 25.5036 30.4732 24.7946 30.4732ZM24.0599 18.4466H18.3366V12.4913H24.0599C25.0653 12.4913 25.8323 12.7813 26.3608 13.3614C26.8893 13.9414 27.1535 14.6568 27.1535 15.5076C27.1535 16.1908 27.0182 16.7515 26.7475 17.1898C26.4768 17.6152 26.1094 17.931 25.6454 18.1372C25.1813 18.3435 24.6528 18.4466 24.0599 18.4466Z" fill="white"/>
<g id="Group 1000004559">
<path id="Vector" d="M79.3045 13.2393C79.3045 11.5158 77.8993 10.1187 76.1659 10.1187C74.4325 10.1187 73.0273 11.5158 73.0273 13.2393C73.0273 14.9627 74.4325 16.3599 76.1659 16.3599C77.8993 16.3599 79.3045 14.9627 79.3045 13.2393Z" fill="#56B4AB"/>
<path id="Vector_2" d="M66.7498 13.2393C66.7498 11.5158 65.3446 10.1187 63.6112 10.1187C61.8778 10.1187 60.4727 11.5158 60.4727 13.2393C60.4727 14.9627 61.8778 16.3599 63.6112 16.3599C65.3446 16.3599 66.7498 14.9627 66.7498 13.2393Z" fill="#56B4AB"/>
</g>
</g>
</g>
</svg>
