<svg width="225" height="48" viewBox="0 0 225 48" fill="none" xmlns="http://www.w3.org/2000/svg">
<path d="M89.5146 15.6927C90.4376 16.6158 91.3607 17.5389 92.2838 18.462C93.2069 19.385 93.2069 21.2312 93.2069 23.0773C93.2069 24.9235 93.2069 26.7696 92.2838 27.6927C92.2838 30.462 90.4376 31.385 89.5146 32.3081C87.6684 32.3081 86.7453 33.2312 84.8992 33.2312C83.9761 33.2312 83.053 33.2312 82.13 32.3081C81.2069 32.3081 80.2838 31.385 79.3607 31.385V40.6158H73.8223V15.6927H78.4376L79.3607 17.5389C81.2069 15.6927 83.053 14.7697 85.8223 14.7697C86.7453 14.7697 88.5915 14.7697 89.5146 15.6927ZM86.7453 27.6927C87.6684 26.7696 88.5915 25.8466 88.5915 24.0004C88.5915 22.1543 87.6684 21.2312 86.7453 20.3081C85.8223 19.385 84.8992 19.385 83.9761 19.385C83.053 19.385 82.13 19.385 81.2069 20.3081C80.2838 20.3081 80.2838 21.2312 79.3607 22.1543V25.8466C79.3607 26.7697 80.2838 27.6927 81.2069 27.6927C81.2069 28.6158 82.13 28.6158 83.053 28.6158C84.8992 28.6158 85.8223 28.6158 86.7453 27.6927Z" fill="white"/>
<path d="M96.9055 19.3848C97.8286 18.4617 98.7517 16.6156 100.598 16.6156C102.444 15.6925 103.367 15.6925 105.213 15.6925C107.059 15.6925 108.905 15.6925 109.829 16.6156C110.752 17.5387 112.598 18.4617 113.521 20.3079C114.444 21.231 114.444 23.0771 114.444 24.9233C114.444 26.7694 114.444 27.6925 113.521 29.5387C112.598 30.4617 111.675 32.3079 109.829 32.3079C108.905 33.231 107.059 33.231 105.213 33.231C103.367 33.231 101.521 33.231 100.598 32.3079C99.6747 31.3848 97.8286 30.4617 96.9055 29.5387C95.9824 28.6156 95.9824 26.7694 95.9824 24.9233C95.9824 22.154 95.9824 20.3079 96.9055 19.3848ZM102.444 27.6925C103.367 28.6156 104.29 28.6156 105.213 28.6156C106.136 28.6156 107.059 27.6925 107.982 27.6925C108.905 27.6925 108.905 25.8464 108.905 24.0002C108.905 22.154 108.905 21.231 107.982 20.3079C107.059 19.3848 106.136 19.3848 105.213 19.3848C104.29 19.3848 103.367 20.3079 102.444 20.3079C101.521 21.231 101.521 22.154 101.521 24.0002C101.521 24.9233 101.521 26.7694 102.444 27.6925Z" fill="white"/>
<path d="M123.675 1.84644V32.308H118.137V1.84644H123.675Z" fill="white"/>
<path d="M145.821 15.6925L134.744 40.6156H129.206L132.898 31.3848L125.514 15.6925H131.975L136.591 25.8463L141.206 15.6925C140.283 15.6925 145.821 15.6925 145.821 15.6925Z" fill="white"/>
<path d="M166.136 15.6927V32.3081C166.136 34.1543 166.136 35.0773 165.213 36.9235C164.29 38.7696 163.367 38.7697 161.52 39.6927C159.674 40.6158 157.828 40.6158 155.982 40.6158C155.059 40.6158 153.213 40.6158 152.29 39.6927C151.367 39.6927 150.444 38.7696 149.52 38.7696C148.597 38.7696 147.674 37.8466 146.751 36.9235L149.52 33.2312C151.367 35.0773 152.29 35.0773 153.213 36.0004C154.136 36.9235 155.059 36.9235 155.982 36.9235C156.905 36.9235 158.751 36.9235 159.674 36.0004C160.597 35.0773 160.597 34.1543 160.597 33.2312V30.462C159.674 31.385 159.674 32.3081 157.828 32.3081C156.905 33.2312 155.059 33.2312 154.136 33.2312C153.213 33.2312 151.367 33.2312 149.52 32.3081C148.597 31.385 147.674 30.462 146.751 29.5389C145.828 26.7696 145.828 25.8466 145.828 24.0004C145.828 22.1543 145.828 21.2312 146.751 19.385C147.674 17.5389 148.597 16.6158 150.444 15.6927C151.367 14.7697 153.213 14.7697 154.136 14.7697C155.059 14.7697 156.905 14.7697 157.828 15.6927C158.751 15.6927 159.674 16.6158 160.597 17.5389L161.52 16.6158H166.136V15.6927ZM160.597 25.8466V22.1543C160.597 21.2312 159.674 20.3081 158.751 20.3081C157.828 20.3081 156.905 19.385 155.982 19.385C155.059 19.385 153.213 20.3081 152.29 20.3081C151.367 21.2312 151.367 22.1543 151.367 24.0004C151.367 24.9235 151.367 26.7696 152.29 27.6927C153.213 28.6158 154.136 29.5389 155.982 29.5389C157.828 28.6158 159.674 27.6927 160.597 25.8466Z" fill="white"/>
<path d="M170.754 19.385C171.677 17.5389 172.601 16.6158 173.524 15.6927C175.37 14.7697 176.293 14.7697 178.139 14.7697C179.985 14.7697 181.831 14.7697 182.754 15.6927C183.677 16.6158 185.524 17.5389 186.447 18.462C187.37 20.3081 187.37 21.2312 187.37 23.0773C187.37 24.9235 187.37 26.7696 186.447 27.6927C185.524 29.5389 184.601 30.462 182.754 31.385C181.831 32.3081 179.985 32.3081 178.139 32.3081C176.293 32.3081 174.447 32.3081 173.524 31.385C171.677 30.462 170.754 29.5389 169.831 28.6158C168.908 26.7697 168.908 25.8466 168.908 24.0004C168.908 22.1543 169.831 20.3081 170.754 19.385ZM175.37 27.6927C176.293 28.6158 177.216 28.6158 178.139 28.6158C179.062 28.6158 179.985 27.6927 180.908 27.6927C181.831 27.6927 182.754 24.9235 182.754 24.0004C182.754 22.1543 182.754 21.2312 181.831 20.3081C180.908 19.385 179.985 19.385 179.062 19.385C178.139 19.385 177.216 20.3081 176.293 20.3081C175.37 21.2312 175.37 22.1543 175.37 24.0004C174.447 24.9235 175.37 26.7696 175.37 27.6927Z" fill="white"/>
<path d="M207.675 16.6158C208.598 17.5389 209.521 18.462 209.521 20.3081V33.2312H203.982V22.1543C203.982 20.3081 203.059 19.385 201.213 19.385C200.29 19.385 199.367 20.3081 198.444 21.2312C197.521 22.1543 196.598 24.0004 196.598 25.8466V32.3081H191.982V15.6927H196.598V18.462C197.521 17.5389 198.444 16.6158 199.367 15.6927C200.29 14.7697 202.136 14.7697 203.059 14.7697C204.906 14.7697 205.829 15.6927 207.675 16.6158Z" fill="white"/>
<path d="M50.7485 15.6929C49.8254 14.7698 48.9023 14.7698 47.9793 15.6929L40.5947 19.3852L35.9793 22.1544L28.5947 26.7698C27.6716 27.6929 26.7485 27.6929 25.8254 26.7698L19.3639 23.0775C18.4408 23.0775 18.4408 22.1544 18.4408 20.3083V13.8467C18.4408 12.9237 19.3639 12.0006 20.287 11.0775L25.8254 8.30828C26.7485 7.38521 27.6716 7.38521 28.5947 8.30828L34.1331 11.0775C35.0562 12.0006 35.9793 12.9237 35.9793 13.8467V18.4621L40.5947 15.6929V11.0775C40.5947 10.1544 39.6716 9.23136 38.7485 8.30828L28.5947 2.76982C27.6716 1.84675 26.7485 1.84675 25.8254 2.76982L14.7485 8.30828C13.8254 9.23136 12.9023 10.1544 12.9023 11.0775V23.0775C12.9023 24.9237 13.8254 25.8467 14.7485 25.8467L25.8254 32.3083C26.7485 33.2314 27.6716 33.2314 28.5947 32.3083L35.9793 28.616L40.5947 25.8467L47.9793 22.1544C48.9023 21.2314 49.8254 21.2314 50.7485 22.1544L56.287 24.9237C57.21 24.9237 58.1331 25.8467 58.1331 26.7698V33.2314C58.1331 34.1544 57.21 35.0775 56.287 36.0006L50.7485 39.6929C49.8254 40.616 48.9023 40.616 47.9793 39.6929L42.4408 36.0006C41.5177 36.0006 40.5947 35.0775 40.5947 34.1544V29.539L35.9793 32.3083V36.9237C35.9793 37.8467 36.9023 38.7698 37.8254 39.6929L48.9023 46.1544C49.8254 47.0775 50.7485 47.0775 51.6716 46.1544L62.7485 39.6929C62.7485 38.7698 63.6716 37.8467 63.6716 36.9237V24.0006C63.6716 23.0775 62.7485 22.1544 61.8254 21.2314L50.7485 15.6929Z" fill="#8247E5"/>
</svg>
