<svg width="227" height="48" viewBox="0 0 227 48" fill="none" xmlns="http://www.w3.org/2000/svg">
<path d="M20.2555 23.1158C21.2661 24.8842 18.9924 25.3894 17.9818 25.5158C16.4661 25.6421 16.0871 24.7579 16.3397 23.621C16.4661 23.2421 16.7187 22.8631 16.9713 22.6105C17.224 22.3579 17.7292 22.1052 18.1082 22.1052C18.4871 22.1052 18.9924 22.1052 19.245 22.3579C19.7503 22.4842 20.0029 22.7368 20.2555 23.1158Z" fill="#EB1A6B"/>
<path d="M26.3197 19.958C25.1829 28.8001 40.5934 26.9054 40.3408 33.8527C41.8566 31.8317 42.4881 26.5264 38.0671 23.7475C34.025 21.2212 28.846 22.6106 26.3197 19.958Z" fill="#EB1A6B"/>
<path d="M35.2878 16.5474C35.1615 16.4211 35.0352 16.4211 35.0352 16.2948C35.0352 16.4211 35.1615 16.5474 35.2878 16.5474Z" fill="#EB1A6B"/>
<path d="M38.8255 22.9896C38.6992 22.7369 38.5729 22.4843 38.3203 22.2317C37.815 21.4738 37.0571 20.9685 36.1729 20.8422C35.6676 20.7159 35.0361 20.5896 34.4045 20.5896C33.7729 20.5896 33.2676 20.4633 32.6361 20.4633C31.3729 20.3369 30.2361 20.2106 28.9729 19.958C28.7203 19.8317 28.3413 19.8317 28.0887 19.7054C27.9624 19.7054 27.8361 19.579 27.5834 19.579C27.4571 19.4527 27.3308 19.4527 27.0782 19.3264C26.4466 19.0738 25.9413 18.5685 25.5624 18.1896C24.6782 17.3054 23.9203 16.2948 23.1624 15.4106C22.4045 14.4001 21.7729 13.5159 20.8887 12.6317C20.1308 11.7475 19.1203 10.9896 18.1097 10.4843C17.0992 9.97904 15.8361 9.6001 14.6992 9.47378C15.9624 9.34747 17.2255 9.47378 18.3624 9.97905C19.4992 10.4843 20.6361 11.1159 21.5203 12.0001C22.1518 12.5054 22.6571 13.1369 23.1624 13.7685C27.0782 13.0106 30.1097 13.6422 32.5097 15.0317C33.2676 15.4106 34.0255 15.9159 34.6571 16.5475C34.7834 16.6738 34.9097 16.6738 34.9097 16.8001C35.415 17.3054 35.9203 17.8106 36.2992 18.3159C38.0676 19.958 38.8255 21.8527 38.8255 22.9896Z" fill="#EB1A6B"/>
<path d="M15.0775 10.4843C16.088 10.6106 17.0985 10.9895 17.7301 11.7474C18.3617 12.5053 18.6143 13.5158 18.867 14.4C18.9933 15.1579 19.1196 15.9158 19.3722 16.5474C19.4985 16.9264 19.7512 17.179 19.8775 17.4316C20.0038 17.6843 20.2564 17.9369 20.3828 18.1895V18.3158V18.4421C20.0038 18.8211 19.1196 18.4422 18.7406 18.1895C18.1091 17.9369 17.6038 17.4316 17.0985 16.9264C15.7091 15.4106 14.9512 13.1369 14.9512 11.1158C14.9512 10.9895 15.0775 10.7369 15.0775 10.4843Z" fill="#EB1A6B"/>
<path d="M31.4989 28.1685C29.3515 34.1053 39.0778 38.1474 35.4146 44.2106C39.0778 42.6948 40.8462 38.0211 39.3304 34.3579C38.0673 31.0737 34.0252 29.8106 31.4989 28.1685Z" fill="#EB1A6B"/>
<path d="M18.7402 35.8737C19.3718 35.4947 20.0034 35.1158 20.635 34.7368C21.2666 34.4842 22.0244 34.2316 22.7823 34.1052C24.1718 33.8526 25.6876 33.7263 26.8244 33.221C27.456 32.9684 27.9613 32.7158 28.4665 32.2105C28.9718 31.8316 29.2244 31.3263 29.4771 30.6947C29.7297 30.0631 29.7297 29.4316 29.7297 28.8C29.7297 28.0421 29.4771 27.4105 29.2244 26.7789C29.7297 27.2842 30.1087 28.0421 30.3613 28.8C30.6139 29.5579 30.6139 30.3158 30.4876 31.0737C30.3613 31.8316 29.856 32.5895 29.3508 33.221C28.8455 33.7263 28.0876 34.2316 27.3297 34.4842C26.5718 34.7368 25.8139 34.8631 25.056 34.9895C24.2981 34.9895 23.6665 35.1158 22.9087 35.1158C21.5192 35.1158 20.1297 35.3684 18.7402 35.8737Z" fill="#EB1A6B"/>
<path d="M32.3824 46.3579C32.1297 46.4842 32.0034 46.7369 31.7508 46.8632C31.4981 46.9895 31.2455 47.1158 30.9929 47.2421C30.4876 47.4948 29.856 47.6211 29.2245 47.6211C27.5824 47.6211 26.4455 46.3579 25.8139 44.9684C25.3087 44.0842 25.056 43.0737 24.5508 42.1895C23.7929 40.9263 22.4034 39.9158 20.8876 40.0421C20.256 40.1684 19.6245 40.4211 19.3718 40.9263C18.4876 42.3158 19.7508 44.3369 21.5192 44.0842C21.6455 44.0842 21.7718 44.0842 21.8981 43.9579C22.0245 43.9579 22.1508 43.8316 22.2771 43.7053C22.5297 43.4526 22.656 43.2 22.7824 42.9474C22.9087 42.6947 22.9087 42.3158 22.9087 41.9368C22.7824 41.5579 22.656 41.3053 22.4034 41.179C22.7824 41.3053 23.035 41.5579 23.1613 41.9368C23.035 42.5684 23.035 42.9474 23.035 43.3263C22.9087 43.7053 22.7824 44.0842 22.5297 44.3369C22.4034 44.4632 22.2771 44.5895 22.0245 44.7158C21.8981 44.8421 21.6455 44.9684 21.5192 44.9684C21.1403 45.0947 20.7613 45.0947 20.3824 45.0947C19.8771 44.9684 19.2455 44.8421 18.8666 44.4632C18.3613 44.0842 17.9824 43.4526 17.4771 43.0737C16.9718 42.4421 16.3403 42.0632 15.5824 41.6842C15.0771 41.4316 14.5718 41.3053 14.0666 41.179C13.8139 41.179 13.5613 41.0526 13.3087 41.0526C13.1824 41.0526 12.5508 40.9263 12.5508 40.9263C13.435 40.1684 14.3192 39.5369 15.2034 38.9053C16.2139 38.2737 17.2245 37.8947 18.3613 37.5158C19.4981 37.1369 20.635 37.1369 21.8981 37.2632C22.5297 37.3895 23.035 37.5158 23.6666 37.7684C24.2981 38.0211 24.8034 38.4 25.3087 38.779C25.8139 39.2842 26.1929 39.7895 26.4455 40.2948C26.6981 40.8 26.8245 41.4316 26.9508 42.0632C27.3297 43.8316 27.2034 46.6105 29.4771 46.9895C29.6034 46.9895 29.7297 46.9895 29.856 46.9895H30.235C30.4876 46.9895 30.7403 46.9895 30.9929 46.8632C31.3718 46.8632 31.8771 46.6105 32.3824 46.3579Z" fill="#EB1A6B"/>
<path d="M16.8474 19.4526C16.7211 19.8316 16.5948 20.0842 16.4684 20.3369C16.0895 20.8421 15.5842 21.2211 15.079 21.4737C14.5737 21.7263 14.0684 21.8526 13.4369 21.8526C13.3105 21.8526 13.1842 21.8526 13.0579 21.8526C12.679 21.8526 12.4263 21.979 12.0474 22.2316C11.7948 22.4842 11.5421 22.7369 11.5421 23.1158C11.5421 23.2421 11.4158 23.4948 11.4158 23.6211C11.4158 24.1263 11.2895 24.5053 11.2895 25.1369C11.1632 26.1474 10.9105 27.0316 10.5316 27.9158C10.0263 29.0526 9.39476 30.0632 9.52107 31.3263C9.64739 32.2105 10.0263 32.8421 10.6579 33.3474C11.6684 34.4842 14.0684 34.9895 13.5632 37.6421C13.1842 39.2842 10.5316 40.9263 6.86844 41.5579C7.24739 41.5579 6.36318 40.0421 6.36318 39.9158C5.98423 39.2842 5.47897 38.6526 5.22634 38.0211C4.59476 36.7579 4.34212 35.1158 4.59476 33.7263C4.84739 32.2105 5.98423 31.0737 6.86844 29.8105C8.00528 28.4211 9.14213 26.6526 9.39476 24.7579C9.39476 24.379 9.52107 23.7474 9.64739 23.2421C9.7737 22.6105 9.90002 22.1053 10.1527 21.4737C10.279 21.0948 10.5316 20.8421 10.9105 20.4632C11.0369 20.3369 11.1632 20.0842 11.1632 19.9579C11.1632 19.7053 11.1632 19.579 11.0369 19.3263L5.10002 8.58949L13.6895 19.2C13.8158 19.3263 13.9421 19.4526 14.0684 19.4526C14.1948 19.579 14.3211 19.579 14.5737 19.579C14.7 19.579 14.8263 19.579 15.079 19.4526C15.2053 19.3263 15.3316 19.3263 15.4579 19.2C15.5842 19.0737 15.5842 18.9474 15.5842 18.6947C15.5842 18.5684 15.5842 18.3158 15.4579 18.1895C14.9527 17.4316 14.3211 16.8 13.6895 16.0421L11.5421 13.3895L7.24739 8.08423L1.31055 0.631592L7.75265 7.57896L12.3 12.6316L14.5737 15.1579C15.3316 16.0421 16.0895 16.8 16.8474 17.8105L16.9737 17.9369V18.1895C16.9737 18.6948 16.9737 19.0737 16.8474 19.4526Z" fill="#EB1A6B"/>
<path d="M18.8693 44.3368C18.4903 43.9578 18.1114 43.5789 17.7324 43.2C18.1114 43.7052 18.364 44.0842 18.8693 44.3368Z" fill="#EB1A6B"/>
<path fill-rule="evenodd" clip-rule="evenodd" d="M130.152 15.7895C125.983 16.8 124.088 20.0842 125.225 24C125.731 25.6421 127.246 27.4105 129.52 28.6737C133.436 30.9474 134.699 31.8316 135.331 33.2211C135.836 34.3579 135.962 34.7368 135.71 35.8737C135.078 38.4 133.31 39.6632 130.783 39.6632C128.257 39.6632 126.488 38.2737 125.983 35.8737C125.857 34.8632 125.604 34.6105 125.225 34.6105C124.72 34.6105 124.594 34.8632 124.594 37.2632V39.9158L126.236 40.4211C128.888 41.3053 132.552 41.179 134.699 40.1684C138.994 38.1474 140.636 34.2316 138.741 30.5684C137.983 29.1789 136.215 27.6632 133.183 25.7684C129.899 23.7474 128.51 22.3579 128.257 20.9684C127.878 18.6947 129.899 16.9263 132.678 16.9263C134.825 16.9263 135.71 17.4316 136.467 19.0737C136.973 20.0842 137.225 20.4632 137.857 20.4632C138.488 20.4632 138.615 20.3368 138.362 19.7053C138.236 19.3263 138.11 18.3158 138.11 17.5579C138.11 16.5474 137.983 16.0421 137.604 15.9158C136.72 15.5368 131.288 15.4105 130.152 15.7895ZM46.7832 16.6737C46.7832 17.179 47.0358 17.3053 47.5411 17.3053C49.0569 17.3053 49.1832 17.6842 49.3095 26.9053C49.4358 34.8632 49.5622 35.4947 50.1937 36.7579C51.0779 38.4 52.3411 39.5368 54.2358 40.4211C55.499 41.0526 56.3832 41.1789 59.0358 41.1789C61.8148 41.1789 62.4464 41.0526 63.9622 40.2947C64.9727 39.7895 66.2358 38.9053 66.7411 38.2737C68.5095 36.1263 68.7622 34.9895 68.8885 26.1474C69.1411 17.5579 69.1411 17.4316 70.5306 17.4316C70.9095 17.4316 71.0358 17.1789 71.0358 16.8C71.0358 16.1684 70.7832 16.1684 67.2464 16.1684C63.7095 16.1684 63.4569 16.1684 63.4569 16.8C63.4569 17.3053 63.7095 17.4316 64.4674 17.5579C66.1095 17.6842 66.2358 18.3158 66.2358 26.1474C66.2358 34.1053 65.9832 35.6211 64.2148 37.2632C62.699 38.7789 61.4358 39.2842 59.2885 39.2842C56.2569 39.2842 53.9832 37.8947 53.3516 35.3684C53.099 34.4842 52.9727 31.4526 53.099 26.0211L53.2253 17.9368L54.3622 17.5579C54.9937 17.3053 55.499 16.9263 55.6253 16.6737C55.7516 16.1684 55.2464 16.1684 51.3306 16.1684C47.0358 16.0421 46.7832 16.0421 46.7832 16.6737ZM76.2148 16.6737C76.2148 17.179 76.4674 17.3053 77.099 17.3053C78.7411 17.3053 79.6253 17.9368 80.0043 19.3263C80.2569 20.0842 80.2569 23.7474 80.2569 28.9263C80.1306 38.2737 80.0043 38.9053 78.1095 39.2842C77.4779 39.4105 77.2253 39.6632 77.2253 40.0421C77.2253 40.5474 77.4779 40.6737 81.6464 40.6737C85.6885 40.6737 86.0674 40.6737 86.0674 40.1684C86.0674 39.7895 85.6885 39.5368 84.6779 39.2842C83.4148 38.9053 83.2885 38.779 82.9095 37.7684C82.4043 36.2526 82.4043 21.979 82.7832 22.1053C82.9095 22.1053 84.1727 23.3684 85.5621 25.0105C86.9516 26.6526 90.6148 30.8211 93.899 34.2316C98.9516 39.6632 99.8358 40.6737 100.594 40.6737H101.478L101.604 29.5579C101.731 21.6 101.857 18.3158 102.11 18.0632C102.362 17.8105 102.994 17.5579 103.499 17.4316C104.131 17.3053 104.51 17.0526 104.51 16.8C104.51 16.4211 103.752 16.2947 100.215 16.2947C96.0464 16.1684 95.92 16.1684 95.92 16.8C95.92 17.3053 96.1727 17.4316 96.6779 17.4316C97.0569 17.4316 97.8148 17.8105 98.32 18.1895L99.2043 18.9474L99.3306 26.5263C99.3306 30.8211 99.3306 34.1053 99.2043 34.1053C99.0779 34.1053 98.0674 33.0947 97.0569 31.9579C96.0464 30.8211 93.1411 27.5368 90.6148 24.7579C88.0885 21.9789 85.3095 18.9474 84.4253 17.9368L82.9095 16.1684H79.6253C76.3411 16.0421 76.2148 16.0421 76.2148 16.6737ZM109.31 16.6737C109.31 17.179 109.562 17.3053 110.194 17.3053C110.699 17.3053 111.331 17.5579 111.71 17.8105C112.341 18.1895 112.341 18.8211 112.467 27.5368C112.594 38.4 112.467 39.0316 110.573 39.2842C109.688 39.4105 109.31 39.6632 109.31 40.0421C109.31 40.5474 109.688 40.6737 114.11 40.6737C118.657 40.6737 118.91 40.6737 118.91 40.0421C118.91 39.5368 118.657 39.4105 118.152 39.4105C117.773 39.4105 117.141 39.1579 116.762 38.9053C116.131 38.5263 116.131 37.8947 116.004 28.5474C115.878 18.9474 115.878 18.5684 116.51 17.9368C116.888 17.5579 117.52 17.3053 117.899 17.3053C118.531 17.3053 118.657 17.179 118.657 16.6737C118.657 16.0421 118.404 16.0421 113.857 16.0421C109.562 16.0421 109.31 16.0421 109.31 16.6737ZM142.531 16.6737C142.657 17.0526 142.91 17.3053 143.415 17.3053C143.794 17.3053 144.425 17.6842 144.804 18.0632C145.183 18.4421 147.331 23.6211 149.731 29.8105L153.899 40.8L155.036 40.9263L156.173 41.0526L159.078 33.2211C160.72 28.9263 162.236 25.0105 162.362 24.6316C162.741 23.8737 162.741 24 163.752 26.5263C164.257 28.0421 165.773 31.8316 167.036 35.1158L169.31 41.0526H170.32C170.825 41.0526 171.331 40.9263 171.457 40.6737C171.583 40.4211 172.973 36.7579 174.741 32.4632C176.383 28.1684 178.278 23.3684 178.91 21.8526C180.299 18.3158 180.552 17.9368 181.562 17.5579C182.067 17.4316 182.446 17.0526 182.446 16.8C182.446 16.4211 181.815 16.2947 178.657 16.2947C175.12 16.2947 174.867 16.2947 174.867 16.9263C174.867 17.4316 175.12 17.5579 175.625 17.5579C176.888 17.5579 177.394 17.9368 177.394 18.6947C177.394 19.3263 171.331 35.6211 170.952 36C170.699 36.2526 165.267 21.0947 165.141 19.579C164.888 18.1895 165.52 17.5579 166.91 17.5579C167.415 17.5579 167.667 17.4316 167.667 16.9263C167.667 16.2947 167.415 16.2947 162.741 16.2947C158.067 16.2947 157.815 16.2947 157.815 16.9263C157.815 17.3053 158.067 17.5579 158.32 17.5579C159.331 17.5579 160.594 18.5684 160.973 19.4526C161.478 20.8421 161.099 22.2316 158.194 29.8105L155.794 36.2526L155.288 34.9895C155.036 34.3579 153.52 30.3158 152.004 26.1474C148.973 17.9368 148.973 17.5579 150.994 17.5579C151.752 17.5579 151.878 17.4316 151.878 16.9263C151.878 16.2947 151.625 16.2947 147.204 16.2947C142.404 16.0421 142.278 16.0421 142.531 16.6737ZM206.446 16.9263C206.446 16.9263 206.446 17.3053 206.446 17.4316C206.446 17.5579 206.825 17.5579 206.825 17.5579C207.078 17.5579 207.204 17.6842 207.457 17.6842C208.467 17.9368 209.099 18.0632 209.352 18.6947C209.478 19.0737 209.604 20.5895 209.604 28.5474C209.604 36.8842 209.604 37.8947 209.352 38.4C209.099 39.0316 208.594 39.4105 207.331 39.7895C207.331 39.7895 206.825 39.9158 206.699 40.0421C206.573 40.1684 206.573 40.4211 206.573 40.4211C206.573 40.4211 206.573 40.6737 206.699 40.8C206.825 40.9263 207.204 40.9263 207.204 40.9263H210.362H215.667C215.667 40.9263 215.92 40.9263 216.046 40.8C216.173 40.6737 216.173 40.4211 216.173 40.4211C216.173 40.4211 216.173 40.1684 216.046 40.0421C215.92 39.9158 215.415 39.7895 215.415 39.7895C214.278 39.5368 213.646 39.1579 213.394 38.5263C213.141 38.0211 213.141 36.8842 213.141 34.2316V30.4421C213.267 30.5684 213.394 30.5684 213.52 30.6947C214.152 31.0737 214.91 31.7053 217.688 31.7053C221.099 31.8316 223.12 30.3158 224.383 28.5474C225.646 26.7789 226.025 24 225.141 20.9684C224.257 18.0632 221.604 16.1684 217.941 16.0421C216.046 15.9158 213.141 16.0421 211.625 16.1684H211.246C209.857 16.1684 208.088 16.4211 207.204 16.4211C206.952 16.4211 206.952 16.4211 206.825 16.5474C206.446 16.8 206.446 16.9263 206.446 16.9263ZM220.467 28.5474C221.857 27.2842 221.857 25.2632 221.857 23.8737C221.731 21.8526 220.846 17.9368 216.299 17.9368C215.162 17.9368 213.015 18.0632 212.888 19.579C212.762 19.8316 212.762 21.7263 212.762 24.5053V29.0526L213.267 29.3053C213.52 29.4316 213.899 29.5579 214.404 29.6842C216.299 30.1895 219.078 29.8105 220.467 28.5474ZM191.415 16.4211C191.794 16.2947 192.046 16.1684 192.046 16.1684C192.046 16.1684 192.552 15.9158 192.678 16.1684C192.678 16.2947 192.931 16.6737 193.436 17.9368C193.562 18.1895 193.688 18.4421 193.688 18.6947C194.32 20.4632 195.331 22.9895 195.836 24.3789C196.341 25.7684 197.352 28.2947 198.11 30.3158C198.867 32.2105 199.752 34.6105 200.257 35.7474C200.636 36.8842 201.267 37.8947 201.394 38.1474C201.52 38.2737 201.52 38.4 201.646 38.5263C202.025 39.0316 202.404 39.7895 203.288 39.9158C203.288 39.9158 203.92 40.0421 204.046 40.1684C204.173 40.2947 204.173 40.4211 204.173 40.4211V40.8C204.173 40.8 204.173 40.9263 204.046 40.9263C204.046 41.0526 203.794 40.9263 203.794 40.9263H198.488H194.699C194.699 40.9263 194.573 40.9263 194.446 40.9263C194.32 40.9263 194.32 40.6737 194.32 40.6737V40.4211C194.32 40.4211 194.32 40.1684 194.446 40.0421C194.573 39.9158 195.204 39.7895 195.204 39.7895C196.341 39.6632 196.846 38.779 196.973 38.2737V38.1474C197.225 37.6421 197.099 37.2632 195.962 34.6105C195.204 32.8421 194.952 32.3368 194.825 32.2105C194.699 32.2105 192.678 32.2105 190.531 32.2105H186.362L186.11 32.8421C185.352 34.8632 184.72 36.7579 184.72 37.2632C184.467 38.2737 184.846 39.5368 186.362 39.7895C186.362 39.7895 186.994 39.9158 187.12 40.0421C187.246 40.1684 187.373 40.4211 187.373 40.4211V40.6737C187.373 40.6737 187.373 40.8 187.246 40.9263C187.12 41.0526 186.867 40.9263 186.867 40.9263H182.952H179.162C179.162 40.9263 179.036 40.9263 178.91 40.8C178.783 40.6737 178.783 40.5474 178.783 40.5474V40.2947C178.783 40.2947 178.783 40.1684 179.036 39.9158C179.288 39.6632 179.794 39.6632 179.794 39.6632C180.804 39.5368 181.436 38.4 181.815 37.7684C181.815 37.7684 181.815 37.6421 181.941 37.6421C182.067 37.3895 182.699 36 183.331 34.4842C183.962 32.9684 184.594 31.2 184.846 30.6947C185.604 28.8 186.362 27.0316 187.499 24.2526C188.131 22.7368 189.015 20.4632 189.52 19.2L190.404 16.9263L191.415 16.4211ZM191.162 21.8526C191.415 22.3579 191.667 23.1158 191.794 23.4947C191.92 23.8737 192.425 25.0105 192.804 26.0211C193.183 27.0316 193.688 28.1684 193.941 28.6737C194.194 29.179 194.32 29.5579 194.32 29.5579C194.32 29.5579 192.804 29.5579 190.91 29.5579C188.762 29.5579 187.499 29.5579 187.499 29.4316C187.499 29.4316 187.625 29.179 187.625 28.9263C187.752 28.5474 188.51 26.5263 190.025 22.2316C190.278 21.6 190.531 20.9684 190.531 20.8421C190.657 20.8421 190.783 20.9684 191.162 21.8526Z" fill="white"/>
</svg>
