<svg width="30" height="30" viewBox="0 0 30 30" fill="none" xmlns="http://www.w3.org/2000/svg">
    <path d="M15 2.5C8.1 2.5 2.5 8.1 2.5 15C2.5 21.9 8.1 27.5 15 27.5C21.9 27.5 27.5 21.9 27.5 15C27.5 8.1 21.9 2.5 15 2.5ZM19.4125 15.0375C19.225 15.225 18.9875 15.3125 18.75 15.3125C18.5125 15.3125 18.275 15.225 18.0875 15.0375L15.9375 12.8875V19.375C15.9375 19.8875 15.5125 20.3125 15 20.3125C14.4875 20.3125 14.0625 19.8875 14.0625 19.375V12.8875L11.9125 15.0375C11.55 15.4 10.95 15.4 10.5875 15.0375C10.225 14.675 10.225 14.075 10.5875 13.7125L14.3375 9.9625C14.7 9.6 15.3 9.6 15.6625 9.9625L19.4125 13.7125C19.775 14.075 19.775 14.675 19.4125 15.0375Z" fill="#DEFC65"/>
</svg>
