<svg width="146" height="24" viewBox="0 0 146 24" fill="none" xmlns="http://www.w3.org/2000/svg">
<g id="BEDROCK LOGO">
<path id="Subtract" fill-rule="evenodd" clip-rule="evenodd" d="M19.7104 10.1011V23.1442H34.2598V19.2127H23.9204V13.4858H32.4024V10.1011H19.7104ZM37.9697 10.1011V23.1442H45.1825C45.3579 23.1442 45.7191 23.139 46.266 23.1287C46.8129 23.1184 47.3391 23.0823 47.8448 23.0203C49.6402 22.8037 51.1622 22.1794 52.4108 21.1475C53.6594 20.1156 54.6087 18.8051 55.2588 17.2161C55.9089 15.627 56.2339 13.8883 56.2339 11.9999C56.2339 11.3492 56.1953 10.7163 56.1181 10.1011H51.6171C51.7232 10.7146 51.7762 11.3475 51.7762 11.9999C51.7762 13.0628 51.6266 14.0946 51.3273 15.0956C51.0384 16.0965 50.5844 16.9529 49.9653 17.6649C49.3565 18.3769 48.5671 18.8309 47.5971 19.027C47.2153 19.0992 46.7871 19.1457 46.3124 19.1663C45.8378 19.1766 45.4611 19.1818 45.1825 19.1818H42.2417V10.1011H37.9697ZM59.9474 0.8557V23.1442H64.1575V15.5909H68.855L72.5156 23.1442H77.2829L73.2588 14.8895C74.2332 14.4595 75.007 13.8369 75.5803 13.0215C76.509 11.6904 76.9733 10.091 76.9733 8.22328C76.9733 6.97471 76.7721 5.84481 76.3697 4.83357C75.9673 3.81202 75.3378 2.96588 74.4814 2.29516C73.6352 1.62445 72.5466 1.1859 71.2155 0.979525C70.9266 0.927932 70.5964 0.896975 70.2249 0.886656C69.8637 0.866019 69.5748 0.8557 69.3581 0.8557H59.9474ZM69.1724 11.6594H64.1575V4.78714H69.1724C69.3891 4.78714 69.6264 4.79746 69.8844 4.8181C70.1423 4.83873 70.3797 4.88001 70.5964 4.94192C71.1639 5.0967 71.6024 5.35983 71.912 5.7313C72.2216 6.09246 72.4331 6.50005 72.5466 6.95407C72.6704 7.39778 72.7323 7.82085 72.7323 8.22328C72.7323 8.62571 72.6704 9.05394 72.5466 9.50796C72.4331 9.95167 72.2216 10.3593 71.912 10.7307C71.6024 11.0919 71.1639 11.3499 70.5964 11.5046C70.3797 11.5665 70.1423 11.6078 69.8844 11.6285C69.6264 11.6491 69.3891 11.6594 69.1724 11.6594ZM84.4778 22.1536C86.0978 23.1235 88.0223 23.6085 90.2511 23.6085C92.48 23.6085 94.3993 23.1235 96.009 22.1536C97.629 21.1836 98.8724 19.8267 99.7392 18.0828C100.616 16.339 101.055 14.3113 101.055 11.9999C101.055 9.68854 100.616 7.66091 99.7392 5.91704C98.8724 4.17317 97.629 2.81626 96.009 1.8463C94.3993 0.876338 92.48 0.391357 90.2511 0.391357C88.0223 0.391357 86.0978 0.876338 84.4778 1.8463C82.8681 2.81626 81.6247 4.17317 80.7476 5.91704C79.8808 7.66091 79.4474 9.68854 79.4474 11.9999C79.4474 14.3113 79.8808 16.339 80.7476 18.0828C81.6247 19.8267 82.8681 21.1836 84.4778 22.1536ZM93.7801 18.7329C92.8411 19.3624 91.6648 19.6668 90.2511 19.6461C88.8375 19.6255 87.6611 19.3004 86.7221 18.671C85.7831 18.0416 85.0763 17.1593 84.6016 16.0242C84.1373 14.8892 83.9051 13.5477 83.9051 11.9999C83.9051 10.4521 84.1373 9.10037 84.6016 7.94467C85.0763 6.78897 85.7831 5.8964 86.7221 5.26696C87.6611 4.63752 88.8375 4.33311 90.2511 4.35375C91.6648 4.37439 92.8411 4.69943 93.7801 5.32887C94.7192 5.95832 95.4208 6.84057 95.8852 7.97563C96.3598 9.11069 96.5972 10.4521 96.5972 11.9999C96.5972 13.5477 96.3598 14.8995 95.8852 16.0552C95.4208 17.2109 94.7192 18.1035 93.7801 18.7329ZM107.937 22.1536C109.557 23.1235 111.481 23.6085 113.71 23.6085C116.269 23.6085 118.415 22.9739 120.149 21.7047C121.893 20.4355 123.121 18.7174 123.833 16.5505L119.592 15.3742C119.179 16.7156 118.483 17.763 117.502 18.5162C116.522 19.2695 115.258 19.6461 113.71 19.6461C112.296 19.6461 111.115 19.3314 110.166 18.702C109.227 18.0725 108.52 17.1851 108.045 16.0397C107.57 14.8943 107.333 13.5477 107.333 11.9999C107.333 10.4521 107.57 9.10553 108.045 7.96015C108.52 6.81477 109.227 5.92736 110.166 5.29792C111.115 4.66847 112.296 4.35375 113.71 4.35375C115.258 4.35375 116.522 4.73039 117.502 5.48365C118.483 6.2266 119.179 7.27396 119.592 8.62571L123.833 7.44937C123.121 5.28244 121.893 3.56437 120.149 2.29516C118.415 1.02596 116.269 0.391357 113.71 0.391357C111.481 0.391357 109.557 0.876338 107.937 1.8463C106.327 2.81626 105.084 4.17317 104.207 5.91704C103.34 7.66091 102.906 9.68854 102.906 11.9999C102.906 14.3113 103.34 16.339 104.207 18.0828C105.084 19.8267 106.327 21.1836 107.937 22.1536ZM127.241 0.8557V23.1442H131.451V12.9905L140.335 23.1442H145.66L135.754 11.8452L145.072 0.8557H139.933L131.451 11.1332V0.8557H127.241ZM0 0.8557V23.1442H9.87503C11.3919 23.1442 12.6508 22.8604 13.6517 22.2929C14.6526 21.715 15.3956 20.9205 15.8805 19.9092C16.3758 18.898 16.6235 17.7268 16.6235 16.3957C16.6235 15.1575 16.2726 14.0379 15.571 13.037C15.0683 12.3092 14.3801 11.7696 13.5065 11.4183C13.9987 11.119 14.4134 10.7196 14.7506 10.22C15.3182 9.39446 15.6019 8.35742 15.6019 7.10886C15.6019 6.12858 15.3749 5.15861 14.9209 4.19897C14.4669 3.23933 13.7497 2.44479 12.7694 1.81534C11.7892 1.17558 10.5045 0.8557 8.91539 0.8557H0ZM9.44165 19.1818H4.27196V13.4858H9.44165C10.0917 13.4858 10.6335 13.6097 11.0668 13.8573C11.5106 14.0946 11.8408 14.4197 12.0574 14.8324C12.2741 15.2452 12.3825 15.7147 12.3825 16.2409C12.3825 16.8394 12.2535 17.3605 11.9955 17.8042C11.7479 18.2376 11.4022 18.5781 10.9585 18.8258C10.5148 19.0631 10.0092 19.1818 9.44165 19.1818ZM8.85348 9.5544H4.27196V4.78714H8.85348C9.65834 4.78714 10.2723 5.01931 10.6954 5.48365C11.1184 5.948 11.33 6.52069 11.33 7.20172C11.33 7.74862 11.2216 8.19748 11.0049 8.54832C10.7882 8.88884 10.4942 9.14165 10.1227 9.30675C9.75121 9.47185 9.32814 9.5544 8.85348 9.5544Z" fill="#050505"/>
<g id="Group 1000004559">
<path id="Vector" d="M56.0756 5.60301C56.0756 4.22338 54.9508 3.10496 53.5632 3.10496C52.1756 3.10496 51.0508 4.22338 51.0508 5.60301C51.0508 6.98265 52.1756 8.10107 53.5632 8.10107C54.9508 8.10107 56.0756 6.98265 56.0756 5.60301Z" fill="#56B4AB"/>
<path id="Vector_2" d="M43.0249 5.60301C43.0249 4.22338 41.9 3.10496 40.5124 3.10496C39.1249 3.10496 38 4.22338 38 5.60301C38 6.98265 39.1249 8.10107 40.5124 8.10107C41.9 8.10107 43.0249 6.98265 43.0249 5.60301Z" fill="#FF004C"/>
</g>
</g>
</svg>
