<svg width="1440" height="978" viewBox="0 0 1440 978" fill="none" xmlns="http://www.w3.org/2000/svg">
<g clip-path="url(#clip0_3983_3384)">
<path d="M0 0H1440V978H0V0Z" fill="white"/>
<path opacity="0.6" d="M119 60.1H179.1M179.1 60.1H299.3M179.1 60.1V0M179.1 60.1V180.3M299.3 60.1H419.5M299.3 60.1V0M299.3 60.1V180.3M419.5 60.1H539.7M419.5 60.1V0M419.5 60.1V180.3M539.7 60.1H659.9M539.7 60.1V0M539.7 60.1V180.3M659.9 60.1H780.1M659.9 60.1V0M659.9 60.1V180.3M780.1 60.1H900.3M780.1 60.1V0M780.1 60.1V180.3M900.3 60.1H1020.5M900.3 60.1V0M900.3 60.1V180.3M1020.5 60.1H1140.7M1020.5 60.1V0M1020.5 60.1V180.3M1140.7 60.1H1260.9M1140.7 60.1V0M1140.7 60.1V180.3M1260.9 60.1H1321M1260.9 60.1V0M1260.9 60.1V180.3M179.1 180.3V300.5M179.1 180.3H119M179.1 180.3H299.3M179.1 300.5V420.7M179.1 300.5H119M179.1 300.5H299.3M179.1 420.7V540.9M179.1 420.7H119M179.1 420.7H299.3M179.1 540.9H119M179.1 540.9H299.3M179.1 540.9V661.1M299.3 180.3V300.5M299.3 180.3H419.5M299.3 300.5V420.7M299.3 300.5H419.5M299.3 420.7V540.9M299.3 420.7H419.5M299.3 540.9H419.5M299.3 540.9V661.1M419.5 180.3V300.5M419.5 180.3H539.7M419.5 300.5V420.7M419.5 300.5H539.7M419.5 420.7V540.9M419.5 420.7H539.7M419.5 540.9H539.7M419.5 540.9V661.1M539.7 180.3V300.5M539.7 180.3H659.9M539.7 300.5V420.7M539.7 300.5H659.9M539.7 420.7V540.9M539.7 420.7H659.9M539.7 540.9H659.9M539.7 540.9V661.1M659.9 180.3V300.5M659.9 180.3H780.1M659.9 300.5V420.7M659.9 300.5H780.1M659.9 420.7V540.9M659.9 420.7H780.1M659.9 540.9H780.1M659.9 540.9V661.1M780.1 180.3H900.3M780.1 180.3V300.5M900.3 180.3H1020.5M900.3 180.3V300.5M1020.5 180.3H1140.7M1020.5 180.3V300.5M1140.7 180.3H1260.9M1140.7 180.3V300.5M1260.9 180.3H1321M1260.9 180.3V300.5M780.1 300.5H900.3M780.1 300.5V420.7M900.3 300.5H1020.5M900.3 300.5V420.7M1020.5 300.5H1140.7M1020.5 300.5V420.7M1140.7 300.5H1260.9M1140.7 300.5V420.7M1260.9 300.5H1321M1260.9 300.5V420.7M780.1 420.7H900.3M780.1 420.7V540.9M900.3 420.7H1020.5M900.3 420.7V540.9M1020.5 420.7H1140.7M1020.5 420.7V540.9M1140.7 420.7H1260.9M1140.7 420.7V540.9M1260.9 420.7H1321M1260.9 420.7V540.9M780.1 540.9H900.3M780.1 540.9V661.1M900.3 540.9H1020.5M900.3 540.9V661.1M1020.5 540.9H1140.7M1020.5 540.9V661.1M1140.7 540.9H1260.9M1140.7 540.9V661.1M1260.9 540.9H1321M1260.9 540.9V661.1M119 661.1H179.1M179.1 661.1H299.3M179.1 661.1V781.3M299.3 661.1H419.5M299.3 661.1V781.3M419.5 661.1H539.7M419.5 661.1V781.3M539.7 661.1H659.9M539.7 661.1V781.3M659.9 661.1H780.1M659.9 661.1V781.3M780.1 661.1H900.3M780.1 661.1V781.3M900.3 661.1H1020.5M900.3 661.1V781.3M1020.5 661.1H1140.7M1020.5 661.1V781.3M1140.7 661.1H1260.9M1140.7 661.1V781.3M1260.9 661.1H1321M1260.9 661.1V781.3M179.1 781.3V901.5M179.1 781.3H119M179.1 781.3H299.3M179.1 901.5V1021.7M179.1 901.5H119M179.1 901.5H299.3M179.1 1021.7V1141.9M179.1 1021.7H119M179.1 1021.7H299.3M179.1 1141.9V1202M179.1 1141.9H119M179.1 1141.9H299.3M299.3 781.3V901.5M299.3 781.3H419.5M299.3 901.5V1021.7M299.3 901.5H419.5M299.3 1021.7V1141.9M299.3 1021.7H419.5M299.3 1141.9V1202M299.3 1141.9H419.5M419.5 781.3V901.5M419.5 781.3H539.7M419.5 901.5V1021.7M419.5 901.5H539.7M419.5 1021.7V1141.9M419.5 1021.7H539.7M419.5 1141.9V1202M419.5 1141.9H539.7M539.7 781.3V901.5M539.7 781.3H659.9M539.7 901.5V1021.7M539.7 901.5H659.9M539.7 1021.7V1141.9M539.7 1021.7H659.9M539.7 1141.9V1202M539.7 1141.9H659.9M659.9 781.3V901.5M659.9 781.3H780.1M659.9 901.5V1021.7M659.9 901.5H780.1M659.9 1021.7V1141.9M659.9 1021.7H780.1M659.9 1141.9V1202M659.9 1141.9H780.1M780.1 781.3H900.3M780.1 781.3V901.5M900.3 781.3H1020.5M900.3 781.3V901.5M1020.5 781.3H1140.7M1020.5 781.3V901.5M1140.7 781.3H1260.9M1140.7 781.3V901.5M1260.9 781.3H1321M1260.9 781.3V901.5M780.1 901.5H900.3M780.1 901.5V1021.7M900.3 901.5H1020.5M900.3 901.5V1021.7M1020.5 901.5H1140.7M1020.5 901.5V1021.7M1140.7 901.5H1260.9M1140.7 901.5V1021.7M1260.9 901.5H1321M1260.9 901.5V1021.7M780.1 1021.7H900.3M780.1 1021.7V1141.9M900.3 1021.7H1020.5M900.3 1021.7V1141.9M1020.5 1021.7H1140.7M1020.5 1021.7V1141.9M1140.7 1021.7H1260.9M1140.7 1021.7V1141.9M1260.9 1021.7H1321M1260.9 1021.7V1141.9M780.1 1141.9H900.3M780.1 1141.9V1202M900.3 1141.9H1020.5M900.3 1141.9V1202M1020.5 1141.9H1140.7M1020.5 1141.9V1202M1140.7 1141.9H1260.9M1140.7 1141.9V1202M1260.9 1141.9H1321M1260.9 1141.9V1202" stroke="#F4F4F4" stroke-width="1.202" stroke-linecap="round"/>
<circle cx="720" cy="734" r="449.5" fill="white" stroke="#F4F4F4"/>
<circle cx="720" cy="734" r="374.5" fill="white" stroke="#F4F4F4"/>
<circle opacity="0.9" cx="720" cy="734" r="300" fill="#F9F9F9"/>
<path d="M1260.9 271.407C1261.71 284.395 1271.95 292.575 1284.79 290.5C1271.95 294.239 1261.71 307.052 1260.9 320.407C1260.08 307.419 1249.85 299.239 1237 301.314C1249.85 297.576 1260.08 284.762 1260.9 271.407Z" fill="#DEFC65"/>
<path d="M284.5 343.395C285.705 362.69 300.915 374.843 320 371.76C300.915 377.314 285.705 396.35 284.5 416.19C283.295 396.896 268.085 384.743 249 387.825C268.085 382.271 283.295 363.235 284.5 343.395Z" fill="#DEFC65"/>
</g>
<defs>
<clipPath id="clip0_3983_3384">
<path d="M0 0H1440V978H0V0Z" fill="white"/>
</clipPath>
</defs>
</svg>
