<svg width="399" height="399" viewBox="0 0 399 399" fill="none" xmlns="http://www.w3.org/2000/svg">
    <g filter="url(#filter0_ddd_3983_3487)">
        <rect x="17.623" y="30.5601" width="335.03" height="335.03" rx="16.7515" transform="rotate(-5 17.623 30.5601)" fill="white"/>
    </g>
    <path d="M171.473 53.1075L173.107 52.9646L179.044 65.6874L177.645 65.8098L176.376 63.0832L170.021 63.6392L169.244 66.5448L167.845 66.6672L171.473 53.1075ZM170.384 62.2832L175.773 61.8118L172.431 54.6506L170.384 62.2832ZM181.772 65.6285C181.258 65.6608 180.749 65.6108 180.245 65.4782C179.742 65.3457 179.296 65.1452 178.906 64.8765C178.517 64.6079 178.228 64.2896 178.038 63.9215L179.131 63.334C179.252 63.5693 179.457 63.7785 179.744 63.9614C180.037 64.1376 180.364 64.2729 180.725 64.3674C181.086 64.4557 181.439 64.4847 181.783 64.4546C182.164 64.4212 182.516 64.3274 182.836 64.1733C183.157 64.0191 183.411 63.8172 183.597 63.5676C183.789 63.3112 183.871 63.0234 183.843 62.7042C183.813 62.3601 183.677 62.1008 183.434 61.9265C183.192 61.746 182.893 61.6145 182.539 61.5319C182.185 61.4431 181.821 61.3614 181.449 61.2868C180.77 61.1633 180.167 61.0143 179.641 60.8396C179.115 60.6649 178.693 60.4212 178.376 60.1085C178.064 59.7889 177.885 59.3601 177.837 58.8219C177.788 58.2524 177.904 57.7472 178.187 57.3063C178.476 56.8585 178.87 56.4993 179.37 56.2285C179.875 55.951 180.425 55.7862 181.02 55.7342C181.783 55.6674 182.492 55.7725 183.147 56.0494C183.808 56.3258 184.304 56.727 184.633 57.2531L183.628 57.9748C183.493 57.7281 183.295 57.5215 183.034 57.3551C182.774 57.1887 182.483 57.066 182.16 56.987C181.844 56.9075 181.527 56.8785 181.207 56.9002C180.806 56.929 180.439 57.021 180.105 57.1763C179.772 57.3253 179.509 57.528 179.317 57.7844C179.131 58.0403 179.053 58.3403 179.083 58.6845C179.114 59.0287 179.24 59.2825 179.462 59.4459C179.684 59.603 179.975 59.7226 180.335 59.8046C180.701 59.8798 181.113 59.9699 181.57 60.075C182.155 60.2066 182.708 60.3663 183.229 60.5541C183.75 60.7418 184.179 60.9943 184.516 61.3117C184.852 61.6291 185.041 62.0508 185.08 62.5771C185.13 63.1403 185.004 63.6463 184.702 64.0951C184.401 64.544 183.991 64.9046 183.473 65.177C182.954 65.4431 182.387 65.5936 181.772 65.6285ZM188.337 65.0541C187.823 65.0865 187.314 65.0364 186.81 64.9039C186.307 64.7714 185.861 64.5708 185.471 64.3022C185.082 64.0336 184.793 63.7152 184.603 63.3472L185.696 62.7597C185.817 62.995 186.022 63.2041 186.309 63.3871C186.602 63.5632 186.929 63.6986 187.29 63.7931C187.651 63.8813 188.003 63.9104 188.348 63.8803C188.729 63.8469 189.081 63.7531 189.401 63.5989C189.722 63.4447 189.976 63.2428 190.162 62.9932C190.354 62.7368 190.436 62.449 190.408 62.1299C190.378 61.7857 190.242 61.5265 189.999 61.3522C189.757 61.1716 189.458 61.0401 189.104 60.9576C188.749 60.8688 188.386 60.7871 188.014 60.7124C187.335 60.589 186.732 60.4399 186.206 60.2652C185.68 60.0906 185.258 59.8469 184.941 59.5341C184.629 59.2146 184.45 58.7857 184.402 58.2475C184.353 57.6781 184.469 57.1728 184.752 56.7319C185.041 56.2841 185.435 55.9249 185.935 55.6542C186.44 55.3766 186.99 55.2119 187.585 55.1599C188.348 55.0931 189.057 55.1981 189.712 55.4751C190.373 55.7514 190.869 56.1526 191.198 56.6787L190.193 57.4004C190.058 57.1537 189.86 56.9471 189.599 56.7808C189.339 56.6144 189.048 56.4917 188.725 56.4127C188.409 56.3331 188.092 56.3042 187.772 56.3258C187.371 56.3546 187.004 56.4466 186.67 56.6019C186.337 56.7509 186.074 56.9536 185.882 57.2101C185.696 57.4659 185.618 57.7659 185.648 58.1101C185.679 58.4543 185.805 58.7081 186.027 58.8715C186.249 59.0287 186.54 59.1483 186.9 59.2302C187.266 59.3054 187.678 59.3955 188.135 59.5006C188.72 59.6322 189.273 59.792 189.794 59.9797C190.315 60.1674 190.744 60.42 191.081 60.7373C191.417 61.0547 191.606 61.4765 191.645 62.0027C191.695 62.5659 191.569 63.0719 191.267 63.5208C190.966 63.9696 190.556 64.3302 190.038 64.6026C189.519 64.8687 188.952 65.0192 188.337 65.0541ZM196.064 64.4443C195.2 64.5198 194.392 64.3667 193.64 63.9848C192.894 63.6023 192.276 63.0574 191.785 62.3499C191.3 61.6356 191.018 60.8248 190.938 59.9174C190.878 59.229 190.944 58.5769 191.136 57.9611C191.328 57.339 191.617 56.784 192.003 56.2962C192.394 55.8016 192.864 55.4011 193.411 55.0947C193.958 54.7883 194.554 54.6069 195.198 54.5505C195.893 54.4897 196.543 54.5716 197.149 54.796C197.762 55.0199 198.299 55.3607 198.762 55.8184C199.23 56.2755 199.6 56.8264 199.871 57.4712C200.148 58.1154 200.302 58.8239 200.331 59.597L192.371 60.2934C192.498 60.8813 192.733 61.3968 193.074 61.8399C193.422 62.2824 193.842 62.6208 194.336 62.8551C194.835 63.0825 195.373 63.1742 195.949 63.1301C196.575 63.0754 197.124 62.8634 197.596 62.4942C198.074 62.1244 198.442 61.6414 198.699 61.0451L200.059 61.2382C199.756 62.1034 199.249 62.8351 198.539 63.4332C197.828 64.0251 197.003 64.3622 196.064 64.4443ZM192.241 59.2359L198.915 58.652C198.82 58.0739 198.595 57.5576 198.24 57.1031C197.891 56.6418 197.46 56.2886 196.946 56.0434C196.433 55.792 195.885 55.6917 195.303 55.7426C194.721 55.7936 194.201 55.984 193.745 56.3141C193.287 56.6378 192.927 57.0572 192.663 57.5721C192.398 58.0808 192.258 58.6354 192.241 59.2359ZM204.731 55.3056L202.488 55.5019L203.184 63.5754L201.87 63.6904L201.173 55.6168L199.474 55.7655L199.359 54.4513L201.058 54.3027L200.791 51.356L202.105 51.241L202.373 54.1877L204.616 53.9914L204.731 55.3056ZM208.453 63.2941C207.939 63.3265 207.43 63.2764 206.927 63.1439C206.423 63.0114 205.977 62.8108 205.588 62.5422C205.199 62.2736 204.909 61.9553 204.719 61.5872L205.812 60.9997C205.934 61.235 206.138 61.4442 206.425 61.6271C206.718 61.8033 207.045 61.9386 207.407 62.0331C207.767 62.1214 208.12 62.1504 208.464 62.1203C208.846 62.0869 209.197 61.9931 209.518 61.8389C209.839 61.6848 210.092 61.4829 210.278 61.2333C210.47 60.9769 210.552 60.6891 210.524 60.3699C210.494 60.0257 210.358 59.7665 210.116 59.5922C209.873 59.4117 209.575 59.2801 209.221 59.1976C208.866 59.1088 208.503 59.0271 208.13 58.9525C207.451 58.829 206.848 58.68 206.322 58.5053C205.796 58.3306 205.375 58.0869 205.057 57.7741C204.745 57.4546 204.566 57.0257 204.519 56.4876C204.469 55.9181 204.586 55.4129 204.869 54.9719C205.157 54.5242 205.552 54.1649 206.051 53.8942C206.557 53.6167 207.107 53.4519 207.701 53.3999C208.465 53.3331 209.174 53.4382 209.829 53.7151C210.49 53.9915 210.985 54.3927 211.315 54.9187L210.309 55.6405C210.174 55.3937 209.976 55.1872 209.716 55.0208C209.455 54.8544 209.164 54.7317 208.842 54.6527C208.526 54.5731 208.208 54.5442 207.888 54.5659C207.487 54.5946 207.12 54.6867 206.787 54.8419C206.453 54.991 206.19 55.1937 205.998 55.4501C205.813 55.706 205.735 56.006 205.765 56.3502C205.795 56.6944 205.921 56.9482 206.144 57.1116C206.366 57.2687 206.657 57.3883 207.017 57.4703C207.383 57.5454 207.794 57.6356 208.251 57.7406C208.837 57.8723 209.39 58.032 209.911 58.2197C210.432 58.4075 210.86 58.66 211.197 58.9774C211.534 59.2947 211.722 59.7165 211.762 60.2427C211.811 60.8059 211.685 61.312 211.384 61.7608C211.083 62.2097 210.673 62.5703 210.154 62.8426C209.635 63.1088 209.068 63.2593 208.453 63.2941Z" fill="#050505" fill-opacity="0.4"/>
    <path d="M101.333 106.049C99.7462 106.171 98.2844 106.568 96.9475 107.24C95.6258 107.894 94.5817 108.742 93.8153 109.784C93.0475 110.81 92.7198 111.965 92.8322 113.25C92.9636 114.752 93.4572 115.877 94.3131 116.626C95.1842 117.357 96.3214 117.863 97.7249 118.144C99.1283 118.425 100.703 118.649 102.45 118.815C104.72 119.003 106.85 119.422 108.84 120.072C110.83 120.705 112.467 121.647 113.754 122.896C115.039 124.129 115.767 125.73 115.94 127.699C116.103 129.568 115.73 131.257 114.819 132.766C113.925 134.274 112.665 135.527 111.037 136.527C109.409 137.527 107.585 138.2 105.563 138.545L106.003 143.576L103.325 143.811L102.885 138.779C101.156 138.813 99.4807 138.598 97.8595 138.134C96.2535 137.653 94.8296 136.945 93.5876 136.011C92.3623 135.076 91.4387 133.937 90.8169 132.596L93.9888 131.083C94.4464 132.085 95.192 132.919 96.2256 133.586C97.2744 134.234 98.4672 134.701 99.8039 134.988C101.157 135.273 102.518 135.356 103.887 135.236C105.489 135.096 106.959 134.698 108.297 134.043C109.635 133.388 110.689 132.547 111.456 131.522C112.223 130.479 112.549 129.307 112.435 128.006C112.32 126.687 111.783 125.641 110.824 124.868C109.865 124.094 108.663 123.526 107.219 123.165C105.79 122.786 104.305 122.529 102.763 122.395C100.34 122.186 98.1462 121.807 96.181 121.255C94.2325 120.703 92.6506 119.824 91.4354 118.619C90.2186 117.397 89.5161 115.709 89.3278 113.557C89.1642 111.688 89.5294 109.999 90.4233 108.492C91.3338 106.983 92.6029 105.728 94.2306 104.728C95.875 103.727 97.7086 103.062 99.7313 102.734L99.278 97.5521L101.956 97.3178L102.41 102.499C104.072 102.472 105.697 102.691 107.285 103.157C108.873 103.624 110.296 104.323 111.555 105.256C112.829 106.17 113.795 107.321 114.455 108.71L111.231 110.203C110.772 109.183 110.018 108.35 108.969 107.702C107.935 107.035 106.751 106.567 105.416 106.297C104.079 106.011 102.718 105.928 101.333 106.049ZM132.039 135.648L131.178 125.811L116.059 127.134L115.748 123.579L128.072 100.683L132.477 100.298L134.376 122L138.056 121.678L138.362 125.183L134.682 125.504L135.543 135.342L132.039 135.648ZM119.903 123.216L130.871 122.307L129.336 105.617L119.903 123.216ZM151.727 134.582C149.624 134.766 147.706 134.463 145.972 133.673C144.237 132.866 142.712 131.68 141.398 130.113C140.084 128.546 139.022 126.697 138.213 124.565C137.42 122.415 136.914 120.088 136.695 117.585C136.476 115.082 136.57 112.702 136.978 110.447C137.403 108.19 138.127 106.185 139.151 104.43C140.173 102.659 141.469 101.234 143.04 100.155C144.608 99.0597 146.444 98.4198 148.547 98.2358C150.633 98.0533 152.543 98.3654 154.279 99.1721C156.013 99.9621 157.528 101.141 158.826 102.709C160.122 104.26 161.166 106.111 161.96 108.261C162.77 110.41 163.285 112.736 163.504 115.239C163.723 117.743 163.62 120.123 163.195 122.379C162.786 124.618 162.078 126.622 161.073 128.392C160.067 130.161 158.78 131.594 157.211 132.689C155.641 133.769 153.813 134.399 151.727 134.582ZM151.42 131.077C153.623 130.885 155.408 130.047 156.775 128.566C158.158 127.083 159.129 125.199 159.685 122.913C160.241 120.612 160.404 118.151 160.174 115.531C159.932 112.76 159.322 110.308 158.345 108.174C157.384 106.022 156.095 104.369 154.481 103.215C152.882 102.044 151.006 101.552 148.853 101.74C147.151 101.889 145.7 102.411 144.501 103.307C143.301 104.202 142.344 105.37 141.629 106.812C140.915 108.253 140.426 109.876 140.164 111.682C139.9 113.471 139.853 115.341 140.024 117.294C140.255 119.93 140.852 122.333 141.815 124.502C142.777 126.654 144.068 128.341 145.688 129.561C147.307 130.765 149.217 131.27 151.42 131.077ZM164.791 135.608L165.603 127.012L169.108 126.705L167.119 135.404L164.791 135.608ZM181.909 131.941C179.773 132.128 177.783 131.781 175.94 130.9C174.114 130.017 172.616 128.752 171.447 127.106C170.275 125.442 169.599 123.568 169.416 121.482L172.921 121.175C173.048 122.627 173.523 123.931 174.347 125.086C175.17 126.225 176.213 127.101 177.478 127.713C178.759 128.324 180.134 128.565 181.602 128.437C183.054 128.31 184.349 127.835 185.488 127.012C186.627 126.19 187.502 125.146 188.115 123.882C188.742 122.599 188.993 121.232 188.866 119.78C188.737 118.312 188.27 117.007 187.464 115.867C186.673 114.709 185.612 113.826 184.281 113.22C182.965 112.595 181.44 112.359 179.704 112.51L171.193 113.255L173.078 96.7454L189.474 95.311L189.781 98.8154L176.214 100.002L175.192 109.374L179.275 109.042C181.664 108.867 183.803 109.192 185.691 110.019C187.596 110.845 189.133 112.072 190.301 113.702C191.485 115.314 192.174 117.238 192.37 119.474C192.507 121.042 192.336 122.546 191.857 123.983C191.394 125.419 190.675 126.718 189.7 127.88C188.741 129.023 187.595 129.956 186.263 130.678C184.945 131.381 183.494 131.803 181.909 131.941ZM205.811 129.85C203.708 130.034 201.79 129.731 200.056 128.941C198.321 128.134 196.796 126.948 195.482 125.381C194.168 123.815 193.106 121.965 192.298 119.833C191.504 117.683 190.998 115.356 190.779 112.853C190.56 110.35 190.654 107.971 191.062 105.715C191.487 103.459 192.211 101.453 193.235 99.6987C194.257 97.9277 195.553 96.5027 197.124 95.4237C198.692 94.3279 200.528 93.6881 202.631 93.5041C204.717 93.3216 206.627 93.6337 208.363 94.4404C210.097 95.2303 211.612 96.4093 212.91 97.9774C214.206 99.5287 215.25 101.38 216.044 103.53C216.854 105.679 217.369 108.004 217.588 110.508C217.807 113.011 217.704 115.391 217.279 117.648C216.87 119.886 216.162 121.89 215.157 123.66C214.151 125.429 212.864 126.862 211.295 127.958C209.725 129.037 207.897 129.668 205.811 129.85ZM205.504 126.346C207.707 126.153 209.492 125.316 210.859 123.834C212.242 122.351 213.213 120.467 213.769 118.182C214.325 115.88 214.488 113.419 214.258 110.799C214.016 108.029 213.406 105.577 212.429 103.442C211.468 101.29 210.18 99.6372 208.565 98.4836C206.966 97.3119 205.09 96.8202 202.937 97.0085C201.235 97.1575 199.784 97.6796 198.585 98.5748C197.385 99.4701 196.428 100.638 195.713 102.08C194.999 103.521 194.51 105.145 194.248 106.95C193.984 108.739 193.937 110.609 194.108 112.562C194.339 115.199 194.936 117.601 195.899 119.77C196.861 121.923 198.152 123.609 199.772 124.829C201.391 126.033 203.301 126.538 205.504 126.346ZM231.14 127.634C229.037 127.818 227.119 127.515 225.385 126.725C223.65 125.918 222.125 124.732 220.811 123.165C219.497 121.599 218.435 119.749 217.626 117.617C216.833 115.467 216.327 113.14 216.108 110.637C215.889 108.134 215.983 105.755 216.391 103.499C216.816 101.243 217.54 99.237 218.564 97.4827C219.586 95.7117 220.882 94.2867 222.452 93.2077C224.021 92.1119 225.857 91.4721 227.96 91.2881C230.046 91.1056 231.956 91.4177 233.692 92.2244C235.426 93.0143 236.941 94.1933 238.239 95.7614C239.535 97.3127 240.579 99.1635 241.373 101.314C242.183 103.463 242.698 105.788 242.917 108.292C243.136 110.795 243.033 113.175 242.608 115.432C242.199 117.67 241.491 119.674 240.486 121.444C239.48 123.213 238.193 124.646 236.624 125.742C235.054 126.821 233.226 127.452 231.14 127.634ZM230.833 124.13C233.036 123.937 234.821 123.1 236.188 121.618C237.571 120.135 238.542 118.251 239.098 115.966C239.654 113.664 239.817 111.203 239.587 108.583C239.345 105.813 238.735 103.361 237.758 101.226C236.796 99.0741 235.508 97.4212 233.894 96.2676C232.295 95.0959 230.419 94.6042 228.266 94.7925C226.564 94.9415 225.113 95.4636 223.914 96.3589C222.714 97.2541 221.757 98.4225 221.042 99.8639C220.328 101.305 219.839 102.929 219.577 104.734C219.313 106.523 219.266 108.393 219.437 110.346C219.668 112.983 220.265 115.385 221.228 117.554C222.19 119.707 223.481 121.393 225.101 122.613C226.72 123.817 228.63 124.322 230.833 124.13Z" fill="#050505"/>
    <path d="M245.994 126.335C245.443 126.383 244.958 126.223 244.539 125.856C244.122 125.506 243.888 125.047 243.839 124.48C243.792 123.946 243.944 123.47 244.294 123.053C244.643 122.619 245.092 122.378 245.643 122.329C246.211 122.28 246.704 122.438 247.123 122.805C247.557 123.154 247.797 123.596 247.844 124.13C247.893 124.697 247.735 125.19 247.368 125.609C247.019 126.043 246.561 126.285 245.994 126.335ZM260.171 125.094C258.118 125.274 256.2 124.971 254.416 124.185C252.649 123.398 251.196 122.264 250.058 120.783C248.919 119.302 248.266 117.602 248.098 115.683C247.934 113.814 248.303 112.066 249.203 110.441C250.102 108.798 251.34 107.479 252.918 106.483C251.481 105.819 250.261 104.849 249.258 103.575C248.254 102.284 247.68 100.821 247.537 99.1854C247.384 97.4331 247.704 95.7993 248.496 94.2839C249.303 92.7503 250.446 91.49 251.923 90.5032C253.416 89.4982 255.105 88.9132 256.991 88.7482C258.877 88.5832 260.634 88.8667 262.261 89.5987C263.905 90.3126 265.249 91.3552 266.293 92.7268C267.353 94.0802 267.96 95.633 268.113 97.3852C268.257 99.0206 267.946 100.561 267.181 102.007C266.431 103.435 265.398 104.601 264.082 105.507C265.842 106.21 267.299 107.294 268.452 108.756C269.621 110.201 270.288 111.858 270.451 113.727C270.618 115.63 270.261 117.418 269.382 119.092C268.518 120.749 267.284 122.118 265.68 123.2C264.077 124.282 262.24 124.913 260.171 125.094ZM259.864 121.59C261.249 121.469 262.474 121.05 263.538 120.335C264.602 119.62 265.423 118.716 266 117.623C266.575 116.513 266.807 115.324 266.696 114.056C266.585 112.787 266.151 111.665 265.393 110.689C264.635 109.713 263.67 108.965 262.498 108.445C261.326 107.925 260.047 107.726 258.662 107.847C257.31 107.966 256.094 108.383 255.013 109.1C253.949 109.815 253.12 110.72 252.527 111.815C251.95 112.908 251.717 114.088 251.828 115.356C251.939 116.625 252.374 117.755 253.133 118.748C253.908 119.723 254.881 120.47 256.054 120.99C257.242 121.508 258.513 121.708 259.864 121.59ZM258.355 104.343C259.574 104.236 260.652 103.873 261.59 103.253C262.526 102.616 263.246 101.813 263.75 100.844C264.27 99.8738 264.482 98.8296 264.384 97.7115C264.286 96.5934 263.897 95.6101 263.218 94.7615C262.553 93.8948 261.705 93.2375 260.674 92.7896C259.641 92.3251 258.516 92.1461 257.298 92.2526C256.096 92.3578 255.019 92.7295 254.066 93.3678C253.128 93.9879 252.399 94.7832 251.878 95.7536C251.373 96.7058 251.169 97.741 251.267 98.859C251.365 99.9771 251.746 100.97 252.41 101.836C253.091 102.702 253.948 103.366 254.981 103.831C256.029 104.277 257.154 104.448 258.355 104.343ZM284.295 122.984C282.192 123.168 280.274 122.865 278.54 122.075C276.805 121.268 275.28 120.081 273.966 118.515C272.652 116.948 271.59 115.099 270.782 112.967C269.988 110.817 269.482 108.49 269.263 105.987C269.044 103.483 269.138 101.104 269.546 98.8489C269.971 96.5921 270.695 94.5865 271.719 92.8322C272.741 91.0613 274.037 89.6362 275.608 88.5572C277.176 87.4615 279.012 86.8216 281.115 86.6376C283.201 86.4551 285.112 86.7672 286.847 87.5739C288.581 88.3639 290.096 89.5429 291.394 91.1109C292.69 92.6623 293.735 94.5131 294.528 96.6633C295.338 98.812 295.853 101.138 296.072 103.641C296.291 106.144 296.188 108.524 295.763 110.781C295.354 113.02 294.646 115.024 293.641 116.793C292.635 118.563 291.348 119.996 289.779 121.091C288.209 122.17 286.381 122.801 284.295 122.984ZM283.988 119.479C286.191 119.286 287.976 118.449 289.343 116.968C290.726 115.485 291.697 113.6 292.253 111.315C292.809 109.013 292.972 106.552 292.743 103.932C292.5 101.162 291.89 98.7101 290.913 96.5759C289.952 94.4236 288.664 92.7707 287.049 91.6171C285.45 90.4454 283.574 89.9537 281.421 90.1421C279.719 90.291 278.268 90.8131 277.069 91.7084C275.869 92.6037 274.912 93.772 274.197 95.2134C273.483 96.6548 272.994 98.2782 272.732 100.084C272.468 101.872 272.421 103.743 272.592 105.695C272.823 108.332 273.42 110.735 274.383 112.904C275.345 115.056 276.636 116.743 278.256 117.963C279.875 119.166 281.785 119.672 283.988 119.479Z" fill="#050505" fill-opacity="0.4"/>
    <path d="M47.0113 210.298C46.3469 202.704 46.0147 198.907 47.2388 195.877C48.3155 193.212 50.2083 190.957 52.6458 189.434C55.4169 187.702 59.2137 187.37 66.8074 186.705L331.1 163.583C338.694 162.918 342.49 162.586 345.52 163.81C348.185 164.887 350.441 166.78 351.964 169.217C353.696 171.989 354.028 175.785 354.692 183.379L364.949 300.611C365.613 308.204 365.945 312.001 364.721 315.031C363.644 317.696 361.752 319.951 359.314 321.475C356.543 323.206 352.746 323.538 345.152 324.203L80.8598 347.325C73.2661 347.99 69.4693 348.322 66.4396 347.098C63.7747 346.021 61.519 344.128 59.9958 341.691C58.2642 338.92 57.9321 335.123 57.2677 327.529L47.0113 210.298Z" fill="#050505" fill-opacity="0.03"/>
    <g filter="url(#filter1_b_3983_3487)">
        <rect x="64.4863" y="205.826" width="273.259" height="56.5364" rx="28.2682" transform="rotate(-5 64.4863 205.826)" fill="#DEFC65"/>
        <g clip-path="url(#clip0_3983_3487)">
            <path d="M175.13 221.895L175.586 227.11M175.586 227.11L180.801 226.654M175.586 227.11L183.517 217.658M186.165 221.289C187.193 224.121 186.725 227.409 184.649 229.883C181.552 233.574 176.049 234.055 172.357 230.958C168.666 227.861 168.185 222.357 171.282 218.666C173.358 216.192 176.514 215.16 179.482 215.681" stroke="#050505" stroke-width="2.09394" stroke-linecap="round" stroke-linejoin="round"/>
        </g>
        <path d="M198.053 227.536L197.159 217.314L200.539 217.019C201.245 216.957 201.919 217.033 202.56 217.246C203.202 217.455 203.776 217.775 204.285 218.206C204.793 218.633 205.206 219.144 205.522 219.739C205.844 220.329 206.035 220.976 206.097 221.682C206.159 222.388 206.083 223.062 205.869 223.703C205.66 224.339 205.343 224.914 204.917 225.427C204.49 225.935 203.98 226.35 203.385 226.672C202.79 226.989 202.139 227.178 201.434 227.24L198.053 227.536ZM198.986 226.424L201.344 226.218C201.909 226.168 202.428 226.018 202.901 225.765C203.379 225.508 203.789 225.175 204.131 224.768C204.473 224.36 204.727 223.901 204.893 223.391C205.064 222.876 205.124 222.336 205.075 221.772C205.026 221.207 204.872 220.688 204.615 220.215C204.362 219.737 204.03 219.327 203.617 218.986C203.21 218.644 202.751 218.39 202.241 218.223C201.731 218.052 201.193 217.991 200.629 218.041L198.271 218.247L198.986 226.424ZM209.825 226.697C209.153 226.756 208.525 226.637 207.94 226.34C207.36 226.042 206.879 225.618 206.497 225.068C206.12 224.513 205.9 223.882 205.839 223.176C205.792 222.641 205.843 222.134 205.992 221.655C206.141 221.171 206.366 220.739 206.666 220.36C206.971 219.975 207.336 219.663 207.762 219.425C208.187 219.187 208.65 219.046 209.152 219.002C209.692 218.955 210.198 219.018 210.669 219.193C211.145 219.367 211.563 219.632 211.923 219.988C212.288 220.344 212.575 220.772 212.786 221.274C213.002 221.775 213.121 222.326 213.144 222.927L206.953 223.469C207.052 223.926 207.234 224.327 207.5 224.671C207.77 225.016 208.097 225.279 208.481 225.461C208.869 225.638 209.287 225.709 209.736 225.675C210.222 225.632 210.649 225.467 211.016 225.18C211.389 224.893 211.675 224.517 211.874 224.053L212.932 224.203C212.697 224.876 212.303 225.445 211.75 225.911C211.197 226.371 210.555 226.633 209.825 226.697ZM206.852 222.646L212.042 222.192C211.969 221.742 211.794 221.341 211.518 220.987C211.246 220.628 210.911 220.354 210.511 220.163C210.112 219.967 209.685 219.89 209.233 219.929C208.78 219.969 208.376 220.117 208.021 220.374C207.665 220.625 207.385 220.952 207.18 221.352C206.974 221.748 206.865 222.179 206.852 222.646ZM214.854 229.744L213.832 229.834L212.874 218.882L213.896 218.793L214.016 220.158C214.228 219.674 214.541 219.269 214.954 218.943C215.367 218.618 215.875 218.428 216.479 218.376C217.009 218.329 217.515 218.386 217.994 218.545C218.479 218.703 218.912 218.945 219.294 219.27C219.675 219.589 219.985 219.972 220.225 220.417C220.465 220.862 220.609 221.349 220.655 221.88C220.702 222.41 220.645 222.918 220.487 223.403C220.328 223.887 220.089 224.323 219.77 224.709C219.45 225.09 219.065 225.401 218.615 225.641C218.17 225.881 217.683 226.024 217.152 226.071C216.549 226.124 216.015 226.026 215.552 225.777C215.089 225.528 214.71 225.183 214.417 224.743L214.854 229.744ZM216.558 219.369C216.047 219.414 215.613 219.582 215.256 219.873C214.904 220.159 214.644 220.525 214.477 220.971C214.31 221.417 214.25 221.906 214.296 222.436C214.342 222.957 214.483 223.425 214.721 223.841C214.963 224.256 215.283 224.577 215.68 224.802C216.082 225.026 216.541 225.116 217.057 225.071C217.563 225.027 218.017 224.86 218.419 224.569C218.825 224.279 219.138 223.908 219.359 223.457C219.579 223.002 219.665 222.506 219.618 221.971C219.573 221.45 219.405 220.986 219.114 220.58C218.823 220.169 218.455 219.853 218.009 219.632C217.563 219.411 217.079 219.324 216.558 219.369ZM224.201 225.439C223.529 225.498 222.901 225.379 222.316 225.082C221.735 224.784 221.255 224.361 220.873 223.81C220.496 223.255 220.276 222.624 220.214 221.918C220.168 221.383 220.219 220.876 220.368 220.397C220.517 219.913 220.742 219.481 221.042 219.102C221.347 218.717 221.712 218.406 222.137 218.167C222.563 217.929 223.026 217.788 223.528 217.744C224.199 217.685 224.825 217.805 225.406 218.102C225.991 218.399 226.472 218.826 226.849 219.381C227.231 219.936 227.453 220.569 227.515 221.28C227.562 221.81 227.51 222.315 227.361 222.794C227.212 223.273 226.984 223.705 226.68 224.09C226.379 224.469 226.017 224.778 225.591 225.016C225.17 225.254 224.707 225.395 224.201 225.439ZM224.111 224.417C224.608 224.374 225.042 224.206 225.414 223.913C225.79 223.616 226.073 223.243 226.265 222.794C226.461 222.345 226.537 221.87 226.493 221.369C226.449 220.858 226.291 220.399 226.02 219.991C225.748 219.578 225.401 219.26 224.98 219.037C224.563 218.814 224.109 218.723 223.617 218.766C223.121 218.81 222.684 218.98 222.308 219.278C221.937 219.571 221.653 219.941 221.456 220.39C221.265 220.838 221.192 221.318 221.237 221.829C221.283 222.355 221.444 222.821 221.72 223.229C221.995 223.631 222.343 223.942 222.765 224.16C223.186 224.373 223.634 224.459 224.111 224.417ZM230.186 224.864C229.786 224.889 229.39 224.85 228.998 224.747C228.607 224.644 228.26 224.488 227.957 224.279C227.654 224.07 227.429 223.823 227.281 223.537L228.131 223.08C228.226 223.263 228.385 223.425 228.608 223.568C228.836 223.705 229.09 223.81 229.371 223.883C229.652 223.952 229.926 223.975 230.194 223.951C230.491 223.925 230.764 223.852 231.013 223.732C231.263 223.613 231.46 223.455 231.605 223.261C231.754 223.062 231.818 222.838 231.796 222.59C231.773 222.322 231.667 222.121 231.479 221.985C231.29 221.845 231.058 221.742 230.782 221.678C230.506 221.609 230.224 221.545 229.934 221.487C229.406 221.391 228.937 221.275 228.528 221.14C228.119 221.004 227.791 220.814 227.544 220.571C227.302 220.322 227.162 219.989 227.125 219.57C227.087 219.127 227.177 218.734 227.397 218.391C227.622 218.043 227.929 217.764 228.317 217.553C228.71 217.337 229.138 217.209 229.601 217.169C230.194 217.117 230.746 217.198 231.255 217.414C231.769 217.629 232.155 217.941 232.411 218.35L231.629 218.911C231.524 218.719 231.37 218.559 231.167 218.429C230.965 218.3 230.738 218.205 230.488 218.143C230.242 218.081 229.995 218.059 229.746 218.076C229.434 218.098 229.149 218.17 228.889 218.29C228.63 218.406 228.425 218.564 228.276 218.763C228.132 218.962 228.071 219.196 228.095 219.463C228.118 219.731 228.216 219.928 228.389 220.056C228.562 220.178 228.788 220.271 229.068 220.335C229.353 220.393 229.673 220.463 230.028 220.545C230.484 220.647 230.914 220.771 231.319 220.917C231.724 221.064 232.058 221.26 232.32 221.507C232.581 221.754 232.728 222.082 232.759 222.491C232.797 222.929 232.699 223.323 232.465 223.672C232.231 224.021 231.912 224.301 231.508 224.513C231.105 224.72 230.664 224.837 230.186 224.864ZM232.313 217.182L233.336 217.092L233.974 224.393L232.952 224.482L232.313 217.182ZM232.72 215.858C232.555 215.873 232.409 215.832 232.283 215.735C232.161 215.633 232.093 215.499 232.078 215.333C232.064 215.168 232.108 215.027 232.21 214.91C232.317 214.788 232.454 214.719 232.619 214.705C232.78 214.691 232.921 214.735 233.043 214.837C233.169 214.934 233.239 215.065 233.254 215.231C233.268 215.396 233.224 215.54 233.122 215.661C233.02 215.778 232.886 215.844 232.72 215.858ZM237.746 217.736L236.001 217.889L236.543 224.168L235.521 224.258L234.979 217.978L233.658 218.094L233.568 217.072L234.89 216.956L234.682 214.664L235.704 214.575L235.912 216.867L237.657 216.714L237.746 217.736Z" fill="#050505"/>
    </g>
    <g filter="url(#filter2_b_3983_3487)">
        <rect x="70.3262" y="272.577" width="273.259" height="56.5364" rx="28.2682" transform="rotate(-5 70.3262 272.577)" fill="#050505"/>
        <g clip-path="url(#clip1_3983_3487)">
            <path d="M180.588 293.575C179.56 290.743 180.029 287.455 182.104 284.982C185.202 281.29 190.705 280.809 194.396 283.906C198.087 287.003 198.569 292.507 195.471 296.198C193.396 298.672 190.239 299.704 187.272 299.183M191.624 292.969L191.167 287.754M191.167 287.754L185.952 288.21M191.167 287.754L183.236 297.206" stroke="white" stroke-width="2.09394" stroke-linecap="round" stroke-linejoin="round"/>
        </g>
        <path d="M209.093 293.832L208.198 283.611L209.221 283.521L210.115 293.742L209.093 293.832ZM216.885 288.596L217.28 293.116L216.258 293.205L215.881 288.89C215.846 288.491 215.717 288.137 215.493 287.828C215.27 287.519 214.987 287.281 214.644 287.115C214.301 286.949 213.93 286.883 213.531 286.918C213.136 286.953 212.782 287.082 212.468 287.305C212.159 287.529 211.922 287.812 211.755 288.155C211.589 288.498 211.524 288.869 211.559 289.268L211.936 293.583L210.914 293.673L210.275 286.372L211.297 286.282L211.385 287.29C211.611 286.897 211.921 286.573 212.316 286.318C212.71 286.063 213.151 285.914 213.638 285.871C214.188 285.823 214.701 285.913 215.177 286.141C215.653 286.37 216.044 286.698 216.352 287.127C216.659 287.557 216.837 288.046 216.885 288.596ZM220.958 292.794L219.658 292.907L216.353 285.818L217.441 285.723L220.203 291.653L221.894 285.333L222.982 285.238L220.958 292.794ZM226.608 292.491C225.936 292.55 225.308 292.43 224.723 292.133C224.143 291.836 223.662 291.412 223.28 290.862C222.903 290.306 222.683 289.676 222.622 288.97C222.575 288.434 222.626 287.927 222.775 287.448C222.924 286.964 223.149 286.533 223.449 286.153C223.754 285.769 224.119 285.457 224.545 285.219C224.97 284.981 225.433 284.839 225.935 284.796C226.475 284.748 226.981 284.812 227.452 284.987C227.929 285.161 228.347 285.426 228.706 285.782C229.071 286.137 229.359 286.566 229.569 287.067C229.785 287.568 229.904 288.119 229.927 288.721L223.736 289.262C223.835 289.72 224.017 290.12 224.283 290.465C224.553 290.809 224.88 291.072 225.264 291.255C225.652 291.432 226.07 291.503 226.519 291.469C227.005 291.426 227.432 291.261 227.8 290.974C228.172 290.686 228.458 290.311 228.657 289.847L229.715 289.997C229.48 290.67 229.086 291.239 228.533 291.704C227.98 292.165 227.338 292.427 226.608 292.491ZM223.635 288.44L228.826 287.986C228.752 287.536 228.577 287.134 228.301 286.781C228.029 286.422 227.694 286.147 227.294 285.957C226.895 285.761 226.469 285.683 226.016 285.723C225.563 285.762 225.159 285.911 224.804 286.167C224.449 286.419 224.168 286.745 223.963 287.146C223.757 287.541 223.648 287.973 223.635 288.44ZM232.578 291.917C232.178 291.942 231.783 291.903 231.391 291.8C231 291.697 230.652 291.541 230.35 291.332C230.047 291.123 229.822 290.876 229.674 290.589L230.524 290.132C230.619 290.315 230.778 290.478 231.001 290.62C231.229 290.757 231.483 290.863 231.764 290.936C232.045 291.005 232.319 291.027 232.587 291.004C232.884 290.978 233.157 290.905 233.406 290.785C233.656 290.665 233.853 290.508 233.998 290.314C234.147 290.115 234.211 289.891 234.189 289.643C234.166 289.375 234.06 289.173 233.871 289.038C233.683 288.897 233.451 288.795 233.175 288.731C232.899 288.662 232.617 288.598 232.327 288.54C231.799 288.444 231.33 288.328 230.921 288.192C230.512 288.056 230.184 287.867 229.937 287.624C229.694 287.375 229.555 287.041 229.518 286.623C229.48 286.18 229.57 285.787 229.79 285.444C230.015 285.096 230.322 284.816 230.71 284.606C231.103 284.39 231.531 284.262 231.993 284.221C232.587 284.169 233.139 284.251 233.648 284.467C234.162 284.681 234.548 284.994 234.804 285.403L234.022 285.964C233.917 285.772 233.763 285.612 233.56 285.482C233.358 285.353 233.131 285.257 232.881 285.196C232.635 285.134 232.388 285.111 232.139 285.128C231.827 285.151 231.542 285.222 231.282 285.343C231.023 285.459 230.818 285.617 230.669 285.816C230.525 286.015 230.464 286.248 230.487 286.516C230.511 286.784 230.609 286.981 230.782 287.108C230.955 287.23 231.181 287.323 231.461 287.387C231.746 287.446 232.066 287.516 232.421 287.598C232.877 287.7 233.307 287.824 233.712 287.97C234.117 288.116 234.451 288.313 234.712 288.559C234.974 288.806 235.121 289.134 235.152 289.544C235.19 289.982 235.092 290.375 234.858 290.724C234.623 291.073 234.305 291.354 233.901 291.566C233.498 291.773 233.057 291.89 232.578 291.917ZM238.598 284.924L236.853 285.076L237.395 291.356L236.373 291.445L235.831 285.166L234.509 285.281L234.42 284.259L235.741 284.144L235.534 281.852L236.556 281.762L236.764 284.054L238.508 283.902L238.598 284.924Z" fill="white"/>
    </g>
    <path d="M327.262 34.6442C327.428 36.5372 326.032 38.2008 324.139 38.3664C322.246 38.532 320.582 37.1361 320.417 35.2431C320.251 33.3501 321.647 31.6865 323.54 31.5209C325.433 31.3553 327.096 32.7512 327.262 34.6442Z" stroke="#050505" stroke-width="2.30333" stroke-linecap="round" stroke-linejoin="round"/>
    <path d="M324.532 42.8504C327.907 42.5551 330.879 40.2913 332.767 36.6579C333.51 35.2346 333.311 32.9687 332.333 31.6959C329.843 28.4456 326.523 26.7321 323.148 27.0274C319.773 27.3227 316.802 29.5865 314.913 33.2199C314.171 34.6432 314.369 36.9091 315.348 38.1819C317.838 41.4322 321.158 43.1457 324.532 42.8504Z" stroke="#050505" stroke-width="2.30333" stroke-linecap="round" stroke-linejoin="round"/>
    <defs>
        <filter id="filter0_ddd_3983_3487" x="0.17212" y="0.661553" width="397.857" height="397.856" filterUnits="userSpaceOnUse" color-interpolation-filters="sRGB">
            <feFlood flood-opacity="0" result="BackgroundImageFix"/>
            <feColorMatrix in="SourceAlpha" type="matrix" values="0 0 0 0 0 0 0 0 0 0 0 0 0 0 0 0 0 0 127 0" result="hardAlpha"/>
            <feMorphology radius="1.04697" operator="dilate" in="SourceAlpha" result="effect1_dropShadow_3983_3487"/>
            <feOffset/>
            <feComposite in2="hardAlpha" operator="out"/>
            <feColorMatrix type="matrix" values="0 0 0 0 0 0 0 0 0 0 0 0 0 0 0 0 0 0 0.06 0"/>
            <feBlend mode="normal" in2="BackgroundImageFix" result="effect1_dropShadow_3983_3487"/>
            <feColorMatrix in="SourceAlpha" type="matrix" values="0 0 0 0 0 0 0 0 0 0 0 0 0 0 0 0 0 0 127 0" result="hardAlpha"/>
            <feMorphology radius="1.04697" operator="erode" in="SourceAlpha" result="effect2_dropShadow_3983_3487"/>
            <feOffset/>
            <feGaussianBlur stdDeviation="1.57045"/>
            <feComposite in2="hardAlpha" operator="out"/>
            <feColorMatrix type="matrix" values="0 0 0 0 0 0 0 0 0 0 0 0 0 0 0 0 0 0 0.04 0"/>
            <feBlend mode="normal" in2="effect1_dropShadow_3983_3487" result="effect2_dropShadow_3983_3487"/>
            <feColorMatrix in="SourceAlpha" type="matrix" values="0 0 0 0 0 0 0 0 0 0 0 0 0 0 0 0 0 0 127 0" result="hardAlpha"/>
            <feMorphology radius="6.28182" operator="erode" in="SourceAlpha" result="effect3_dropShadow_3983_3487"/>
            <feOffset dy="16.7515"/>
            <feGaussianBlur stdDeviation="12.5636"/>
            <feComposite in2="hardAlpha" operator="out"/>
            <feColorMatrix type="matrix" values="0 0 0 0 0 0 0 0 0 0 0 0 0 0 0 0 0 0 0.08 0"/>
            <feBlend mode="normal" in2="effect2_dropShadow_3983_3487" result="effect3_dropShadow_3983_3487"/>
            <feBlend mode="normal" in="SourceGraphic" in2="effect3_dropShadow_3983_3487" result="shape"/>
        </filter>
        <filter id="filter1_b_3983_3487" x="-19.2713" y="98.2523" width="444.662" height="247.653" filterUnits="userSpaceOnUse" color-interpolation-filters="sRGB">
            <feFlood flood-opacity="0" result="BackgroundImageFix"/>
            <feGaussianBlur in="BackgroundImageFix" stdDeviation="41.8788"/>
            <feComposite in2="SourceAlpha" operator="in" result="effect1_backgroundBlur_3983_3487"/>
            <feBlend mode="normal" in="SourceGraphic" in2="effect1_backgroundBlur_3983_3487" result="shape"/>
        </filter>
        <filter id="filter2_b_3983_3487" x="-13.4314" y="165.003" width="444.662" height="247.653" filterUnits="userSpaceOnUse" color-interpolation-filters="sRGB">
            <feFlood flood-opacity="0" result="BackgroundImageFix"/>
            <feGaussianBlur in="BackgroundImageFix" stdDeviation="41.8788"/>
            <feComposite in2="SourceAlpha" operator="in" result="effect1_backgroundBlur_3983_3487"/>
            <feBlend mode="normal" in="SourceGraphic" in2="effect1_backgroundBlur_3983_3487" result="shape"/>
        </filter>
        <clipPath id="clip0_3983_3487">
            <rect width="20.9394" height="20.9394" fill="white" transform="translate(166.625 214.756) rotate(-5)"/>
        </clipPath>
        <clipPath id="clip1_3983_3487">
            <rect width="20.9394" height="20.9394" fill="white" transform="translate(177.445 281.072) rotate(-5)"/>
        </clipPath>
    </defs>
</svg>
