<svg width="32" height="32" viewBox="0 0 32 32" fill="none" xmlns="http://www.w3.org/2000/svg">
<g id="vuesax/linear/cardano-(ada)">
<g id="cardano-(ada)">
<path id="Vector" d="M18.3333 13.3334C19.0697 13.3334 19.6667 12.7364 19.6667 12C19.6667 11.2636 19.0697 10.6667 18.3333 10.6667C17.597 10.6667 17 11.2636 17 12C17 12.7364 17.597 13.3334 18.3333 13.3334Z" stroke="white" stroke-width="1.33333" stroke-miterlimit="10"/>
<path id="Vector_2" d="M13.6673 13.3334C14.4037 13.3334 15.0007 12.7364 15.0007 12C15.0007 11.2636 14.4037 10.6667 13.6673 10.6667C12.9309 10.6667 12.334 11.2636 12.334 12C12.334 12.7364 12.9309 13.3334 13.6673 13.3334Z" stroke="white" stroke-width="1.33333" stroke-miterlimit="10"/>
<path id="Vector_3" d="M20.6673 17.3334C21.4037 17.3334 22.0007 16.7364 22.0007 16C22.0007 15.2636 21.4037 14.6667 20.6673 14.6667C19.9309 14.6667 19.334 15.2636 19.334 16C19.334 16.7364 19.9309 17.3334 20.6673 17.3334Z" stroke="white" stroke-width="1.33333" stroke-miterlimit="10"/>
<path id="Vector_4" d="M22.8672 13C23.4195 13 23.8672 12.5523 23.8672 12C23.8672 11.4477 23.4195 11 22.8672 11C22.3149 11 21.8672 11.4477 21.8672 12C21.8672 12.5523 22.3149 13 22.8672 13Z" stroke="white" stroke-width="1.33333" stroke-miterlimit="10"/>
<path id="Vector_5" d="M22.8672 21C23.4195 21 23.8672 20.5523 23.8672 20C23.8672 19.4477 23.4195 19 22.8672 19C22.3149 19 21.8672 19.4477 21.8672 20C21.8672 20.5523 22.3149 21 22.8672 21Z" stroke="white" stroke-width="1.33333" stroke-miterlimit="10"/>
<path id="Vector_6" d="M26.334 17C26.8863 17 27.334 16.5523 27.334 16C27.334 15.4477 26.8863 15 26.334 15C25.7817 15 25.334 15.4477 25.334 16C25.334 16.5523 25.7817 17 26.334 17Z" stroke="white" stroke-width="1.33333" stroke-miterlimit="10"/>
<path id="Vector_7" d="M9.06836 13C9.62064 13 10.0684 12.5523 10.0684 12C10.0684 11.4477 9.62064 11 9.06836 11C8.51607 11 8.06836 11.4477 8.06836 12C8.06836 12.5523 8.51607 13 9.06836 13Z" stroke="white" stroke-width="1.33333" stroke-miterlimit="10"/>
<path id="Vector_8" d="M9.06836 21C9.62064 21 10.0684 20.5523 10.0684 20C10.0684 19.4477 9.62064 19 9.06836 19C8.51607 19 8.06836 19.4477 8.06836 20C8.06836 20.5523 8.51607 21 9.06836 21Z" stroke="white" stroke-width="1.33333" stroke-miterlimit="10"/>
<path id="Vector_9" d="M5.59961 17C6.15189 17 6.59961 16.5523 6.59961 16C6.59961 15.4477 6.15189 15 5.59961 15C5.04732 15 4.59961 15.4477 4.59961 16C4.59961 16.5523 5.04732 17 5.59961 17Z" stroke="white" stroke-width="1.33333" stroke-miterlimit="10"/>
<path id="Vector_10" d="M21.2012 7.93335C21.7535 7.93335 22.2012 7.48563 22.2012 6.93335C22.2012 6.38106 21.7535 5.93335 21.2012 5.93335C20.6489 5.93335 20.2012 6.38106 20.2012 6.93335C20.2012 7.48563 20.6489 7.93335 21.2012 7.93335Z" stroke="white" stroke-width="1.33333" stroke-miterlimit="10"/>
<path id="Vector_11" d="M10.7988 7.93335C11.3511 7.93335 11.7988 7.48563 11.7988 6.93335C11.7988 6.38106 11.3511 5.93335 10.7988 5.93335C10.2465 5.93335 9.79883 6.38106 9.79883 6.93335C9.79883 7.48563 10.2465 7.93335 10.7988 7.93335Z" stroke="white" stroke-width="1.33333" stroke-miterlimit="10"/>
<path id="Vector_12" d="M16.0684 9C16.6206 9 17.0684 8.55228 17.0684 8C17.0684 7.44772 16.6206 7 16.0684 7C15.5161 7 15.0684 7.44772 15.0684 8C15.0684 8.55228 15.5161 9 16.0684 9Z" stroke="white" stroke-width="1.33333" stroke-miterlimit="10"/>
<path id="Vector_13" d="M21.2012 26.3333C21.7535 26.3333 22.2012 25.8856 22.2012 25.3333C22.2012 24.781 21.7535 24.3333 21.2012 24.3333C20.6489 24.3333 20.2012 24.781 20.2012 25.3333C20.2012 25.8856 20.6489 26.3333 21.2012 26.3333Z" stroke="white" stroke-width="1.33333" stroke-miterlimit="10"/>
<path id="Vector_14" d="M10.7988 26.3333C11.3511 26.3333 11.7988 25.8856 11.7988 25.3333C11.7988 24.781 11.3511 24.3333 10.7988 24.3333C10.2465 24.3333 9.79883 24.781 9.79883 25.3333C9.79883 25.8856 10.2465 26.3333 10.7988 26.3333Z" stroke="white" stroke-width="1.33333" stroke-miterlimit="10"/>
<path id="Vector_15" d="M16.0684 25.2667C16.6206 25.2667 17.0684 24.8189 17.0684 24.2667C17.0684 23.7144 16.6206 23.2667 16.0684 23.2667C15.5161 23.2667 15.0684 23.7144 15.0684 24.2667C15.0684 24.8189 15.5161 25.2667 16.0684 25.2667Z" stroke="white" stroke-width="1.33333" stroke-miterlimit="10"/>
<path id="Vector_16" d="M11.3333 17.3334C12.0697 17.3334 12.6667 16.7364 12.6667 16C12.6667 15.2636 12.0697 14.6667 11.3333 14.6667C10.597 14.6667 10 15.2636 10 16C10 16.7364 10.597 17.3334 11.3333 17.3334Z" stroke="white" stroke-width="1.33333" stroke-miterlimit="10"/>
<path id="Vector_17" d="M13.6673 21.3334C14.4037 21.3334 15.0007 20.7364 15.0007 20C15.0007 19.2636 14.4037 18.6667 13.6673 18.6667C12.9309 18.6667 12.334 19.2636 12.334 20C12.334 20.7364 12.9309 21.3334 13.6673 21.3334Z" stroke="white" stroke-width="1.33333" stroke-miterlimit="10"/>
<path id="Vector_18" d="M18.3333 21.3334C19.0697 21.3334 19.6667 20.7364 19.6667 20C19.6667 19.2636 19.0697 18.6667 18.3333 18.6667C17.597 18.6667 17 19.2636 17 20C17 20.7364 17.597 21.3334 18.3333 21.3334Z" stroke="white" stroke-width="1.33333" stroke-miterlimit="10"/>
<path id="Vector 1" d="M16 3.26666V3.26666" stroke="white" stroke-width="2.66667" stroke-linecap="round" stroke-linejoin="round"/>
<path id="Vector 5" d="M23.334 3.79999V3.79999" stroke="white" stroke-width="2" stroke-linecap="round" stroke-linejoin="round"/>
<path id="Vector 7" d="M23.334 28.2667V28.2667" stroke="white" stroke-width="2" stroke-linecap="round" stroke-linejoin="round"/>
<path id="Vector 9" d="M26.666 22V22" stroke="white" stroke-width="2" stroke-linecap="round" stroke-linejoin="round"/>
<path id="Vector 11" d="M26.666 9.33331V9.33331" stroke="white" stroke-width="2" stroke-linecap="round" stroke-linejoin="round"/>
<path id="Vector 10" d="M5.33398 22V22" stroke="white" stroke-width="2" stroke-linecap="round" stroke-linejoin="round"/>
<path id="Vector 12" d="M5.33398 9.33331V9.33331" stroke="white" stroke-width="2" stroke-linecap="round" stroke-linejoin="round"/>
<path id="Vector 6" d="M8.66602 3.79999V3.79999" stroke="white" stroke-width="2" stroke-linecap="round" stroke-linejoin="round"/>
<path id="Vector 8" d="M8.66602 28.2667V28.2667" stroke="white" stroke-width="2" stroke-linecap="round" stroke-linejoin="round"/>
<path id="Vector 2" d="M16 28.6667V28.6667" stroke="white" stroke-width="2.66667" stroke-linecap="round" stroke-linejoin="round"/>
<path id="Vector 3" d="M2.06836 16V16" stroke="white" stroke-width="2.66667" stroke-linecap="round" stroke-linejoin="round"/>
<path id="Vector 4" d="M30 16V16" stroke="white" stroke-width="2.66667" stroke-linecap="round" stroke-linejoin="round"/>
</g>
</g>
</svg>
