<svg width="399" height="399" viewBox="0 0 399 399" fill="none" xmlns="http://www.w3.org/2000/svg">
    <g filter="url(#filter0_ddd_3983_3444)">
        <rect x="17.6133" y="30.5475" width="335.03" height="335.03" rx="16.7515" transform="rotate(-5 17.6133 30.5475)" fill="white"/>
    </g>
    <g filter="url(#filter1_b_3983_3444)">
        <g clip-path="url(#clip0_3983_3444)">
            <rect x="17.2539" y="30.2286" width="335.03" height="335.03" rx="16.7515" transform="rotate(-5 17.2539 30.2286)" fill="white"/>
            <path d="M-12.6056 346.487L-12.6866 345.561C-12.3115 345.147 -11.8997 344.695 -11.451 344.204C-11.0028 343.708 -10.5607 343.201 -10.1246 342.681C-9.68396 342.156 -9.285 341.642 -8.9277 341.139C-8.57084 340.631 -8.29122 340.158 -8.08886 339.719C-7.88196 339.274 -7.79266 338.89 -7.82097 338.567C-7.85538 338.173 -7.98381 337.824 -8.20626 337.517C-8.42416 337.205 -8.7034 336.966 -9.04395 336.8C-9.37996 336.629 -9.7446 336.561 -10.1379 336.595C-10.5311 336.629 -10.8833 336.761 -11.1944 336.988C-11.501 337.211 -11.737 337.495 -11.9024 337.84C-12.0682 338.181 -12.134 338.548 -12.0996 338.941L-13.1449 339.033C-13.1972 338.435 -13.1001 337.882 -12.8536 337.374C-12.6022 336.866 -12.2474 336.448 -11.7894 336.122C-11.3318 335.792 -10.8117 335.601 -10.2293 335.55C-9.64689 335.499 -9.10411 335.597 -8.60096 335.844C-8.09284 336.09 -7.67578 336.442 -7.34979 336.9C-7.01882 337.358 -6.82742 337.883 -6.7756 338.475C-6.74467 338.829 -6.80528 339.225 -6.95743 339.665C-7.10503 340.099 -7.31831 340.557 -7.59727 341.038C-7.87667 341.514 -8.19545 341.998 -8.55362 342.491C-8.91179 342.984 -9.28826 343.468 -9.68302 343.944C-10.0782 344.415 -10.4631 344.86 -10.8378 345.279L-6.05893 344.861L-5.96747 345.906L-12.6056 346.487ZM-1.60454 345.524L-1.86127 342.59L-6.37133 342.985L-6.4641 341.924L-2.78794 335.094L-1.47375 334.979L-0.907356 341.453L0.190291 341.357L0.281749 342.402L-0.815897 342.498L-0.559159 345.433L-1.60454 345.524ZM-5.22458 341.816L-1.95273 341.545L-2.41087 336.566L-5.22458 341.816ZM4.8211 345.158C4.4826 345.188 4.14656 345.159 3.81297 345.073C3.4848 344.991 3.17878 344.848 2.89491 344.642L3.48892 343.777C3.65997 343.898 3.85103 343.989 4.0621 344.051C4.27316 344.112 4.49568 344.133 4.72964 344.113C5.0781 344.082 5.38615 343.962 5.65378 343.753C5.92098 343.539 6.12613 343.276 6.26925 342.962C6.41692 342.643 6.47572 342.312 6.44567 341.969L5.77868 334.345L6.82406 334.253L7.49105 341.877C7.53809 342.415 7.44972 342.924 7.22596 343.405C7.00219 343.886 6.6812 344.288 6.26298 344.61C5.84433 344.928 5.3637 345.11 4.8211 345.158ZM13.8186 336.651L14.864 336.56L15.5173 344.026L14.4719 344.118L14.313 342.732C14.1105 343.227 13.803 343.64 13.3907 343.972C12.9779 344.299 12.4678 344.489 11.8605 344.542C11.3129 344.59 10.7912 344.533 10.2955 344.37C9.79932 344.203 9.35364 343.954 8.95845 343.622C8.56327 343.291 8.24272 342.895 7.99681 342.435C7.75091 341.975 7.604 341.471 7.55609 340.923C7.50906 340.386 7.56441 339.872 7.72216 339.381C7.88488 338.891 8.12728 338.451 8.44936 338.061C8.77642 337.671 9.1652 337.357 9.61571 337.116C10.0708 336.871 10.5671 336.725 11.1047 336.678C11.727 336.623 12.2826 336.725 12.7717 336.983C13.2604 337.237 13.6625 337.59 13.9781 338.044L13.8186 336.651ZM11.7492 343.528C12.2819 343.482 12.7285 343.312 13.0892 343.02C13.4494 342.723 13.7122 342.344 13.8775 341.883C14.0478 341.421 14.1097 340.924 14.0631 340.392C14.0152 339.844 13.8675 339.36 13.6201 338.941C13.3723 338.516 13.0454 338.191 12.6395 337.966C12.2335 337.74 11.7667 337.651 11.239 337.697C10.7114 337.743 10.24 337.917 9.82506 338.219C9.41462 338.516 9.09935 338.897 8.87926 339.363C8.66414 339.828 8.5801 340.33 8.62714 340.867C8.67461 341.41 8.84964 341.891 9.15224 342.311C9.45439 342.726 9.83334 343.044 10.2891 343.265C10.7498 343.486 11.2365 343.573 11.7492 343.528ZM21.9236 338.809L22.328 343.431L21.2826 343.522L20.8965 339.109C20.8608 338.701 20.7288 338.339 20.5005 338.023C20.2722 337.707 19.9826 337.464 19.6316 337.294C19.2807 337.124 18.9011 337.057 18.4929 337.092C18.0897 337.128 17.7275 337.26 17.4064 337.488C17.0903 337.717 16.8473 338.006 16.6774 338.357C16.5074 338.708 16.4403 339.088 16.476 339.496L16.8621 343.909L15.8167 344L15.1635 336.533L16.2089 336.442L16.299 337.472C16.5297 337.071 16.8469 336.74 17.2504 336.479C17.6539 336.218 18.1046 336.065 18.6024 336.022C19.1649 335.973 19.6896 336.065 20.1765 336.298C20.6634 336.531 21.064 336.867 21.3783 337.306C21.6926 337.745 21.8744 338.246 21.9236 338.809Z" fill="#050505" fill-opacity="0.3"/>
            <path d="M61.7799 339.979L61.6989 339.053C62.074 338.639 62.4859 338.187 62.9345 337.696C63.3827 337.2 63.8249 336.693 64.261 336.173C64.7016 335.648 65.1005 335.134 65.4578 334.631C65.8147 334.123 66.0943 333.65 66.2967 333.211C66.5036 332.767 66.5929 332.382 66.5646 332.059C66.5302 331.666 66.4017 331.316 66.1793 331.009C65.9614 330.697 65.6821 330.458 65.3416 330.292C65.0056 330.121 64.6409 330.053 64.2477 330.087C63.8544 330.122 63.5022 330.253 63.1911 330.481C62.8845 330.703 62.6485 330.987 62.4831 331.333C62.3173 331.673 62.2516 332.04 62.286 332.433L61.2406 332.525C61.1883 331.927 61.2854 331.375 61.5319 330.866C61.7834 330.358 62.1381 329.941 62.5962 329.615C63.0538 329.284 63.5738 329.093 64.1562 329.042C64.7386 328.991 65.2814 329.089 65.7846 329.336C66.2927 329.582 66.7098 329.934 67.0357 330.392C67.3667 330.85 67.5581 331.375 67.6099 331.967C67.6409 332.321 67.5803 332.717 67.4281 333.157C67.2805 333.591 67.0672 334.049 66.7883 334.53C66.5089 335.006 66.1901 335.49 65.8319 335.983C65.4737 336.476 65.0973 336.96 64.7025 337.436C64.3073 337.907 63.9224 338.352 63.5477 338.771L68.3266 338.353L68.4181 339.398L61.7799 339.979ZM72.0927 339.272C71.4555 339.328 70.8621 339.225 70.3124 338.962C69.7677 338.698 69.3208 338.321 68.9719 337.83C68.6225 337.334 68.4206 336.775 68.3662 336.152L69.4115 336.061C69.4494 336.494 69.5913 336.883 69.8371 337.228C70.0826 337.567 70.3938 337.828 70.771 338.011C71.1531 338.193 71.5632 338.265 72.0012 338.227C72.4343 338.189 72.8207 338.048 73.1604 337.802C73.5001 337.557 73.7613 337.245 73.944 336.868C74.1312 336.486 74.2059 336.078 74.168 335.645C74.1297 335.207 73.9903 334.818 73.7499 334.478C73.514 334.132 73.1975 333.869 72.8004 333.688C72.4079 333.501 71.9528 333.431 71.4351 333.476L68.8963 333.698L69.4587 328.773L74.3495 328.346L74.441 329.391L70.3939 329.745L70.0892 332.541L71.307 332.442C72.0197 332.389 72.6577 332.486 73.221 332.733C73.7893 332.979 74.2477 333.346 74.5963 333.832C74.9493 334.312 75.155 334.886 75.2134 335.553C75.2543 336.021 75.2033 336.47 75.0602 336.899C74.9221 337.327 74.7077 337.714 74.417 338.061C74.1308 338.402 73.789 338.68 73.3915 338.895C72.9985 339.105 72.5656 339.231 72.0927 339.272ZM79.7754 338.6C79.4369 338.63 79.1009 338.602 78.7673 338.515C78.4391 338.434 78.1331 338.29 77.8492 338.084L78.4432 337.22C78.6143 337.34 78.8053 337.431 79.0164 337.493C79.2275 337.555 79.45 337.575 79.684 337.555C80.0324 337.524 80.3405 337.405 80.6081 337.196C80.8753 336.982 81.0804 336.718 81.2236 336.404C81.3712 336.086 81.43 335.754 81.4 335.411L80.733 327.787L81.7784 327.696L82.4454 335.319C82.4924 335.857 82.404 336.366 82.1803 336.847C81.9565 337.329 81.6355 337.73 81.2173 338.053C80.7986 338.37 80.318 338.553 79.7754 338.6ZM88.7729 330.093L89.8183 330.002L90.4716 337.469L89.4262 337.56L89.2673 336.175C89.0648 336.669 88.7573 337.082 88.345 337.414C87.9322 337.741 87.4221 337.931 86.8148 337.984C86.2672 338.032 85.7456 337.975 85.2498 337.813C84.7536 337.646 84.3079 337.396 83.9128 337.065C83.5176 336.733 83.197 336.337 82.9511 335.877C82.7052 335.417 82.5583 334.913 82.5104 334.366C82.4634 333.828 82.5187 333.314 82.6765 332.824C82.8392 332.333 83.0816 331.893 83.4037 331.504C83.7307 331.114 84.1195 330.799 84.57 330.559C85.0251 330.313 85.5214 330.167 86.059 330.12C86.6813 330.066 87.237 330.168 87.726 330.426C88.2147 330.679 88.6168 331.033 88.9324 331.486L88.7729 330.093ZM86.7035 336.971C87.2362 336.924 87.6828 336.755 88.0435 336.462C88.4037 336.165 88.6665 335.786 88.8318 335.325C89.0022 334.864 89.064 334.367 89.0174 333.834C88.9695 333.286 88.8218 332.803 88.5744 332.383C88.3266 331.958 87.9997 331.633 87.5938 331.408C87.1878 331.183 86.721 331.093 86.1933 331.139C85.6657 331.185 85.1943 331.36 84.7794 331.662C84.3689 331.958 84.0537 332.34 83.8336 332.805C83.6185 333.271 83.5344 333.772 83.5814 334.31C83.6289 334.852 83.804 335.334 84.1065 335.753C84.4087 336.168 84.7876 336.486 85.2434 336.707C85.7041 336.928 86.1908 337.016 86.7035 336.971ZM96.8779 332.251L97.2823 336.873L96.2369 336.964L95.8508 332.552C95.8151 332.143 95.6831 331.781 95.4548 331.465C95.2265 331.149 94.9369 330.906 94.5859 330.736C94.235 330.566 93.8554 330.499 93.4472 330.535C93.044 330.57 92.6818 330.702 92.3608 330.931C92.0447 331.159 91.8016 331.449 91.6317 331.8C91.4618 332.15 91.3946 332.53 91.4303 332.938L91.8164 337.351L90.7711 337.443L90.1178 329.976L91.1632 329.884L91.2533 330.915C91.484 330.513 91.8012 330.182 92.2047 329.921C92.6082 329.66 93.0589 329.508 93.5567 329.464C94.1192 329.415 94.6439 329.507 95.1308 329.74C95.6177 329.974 96.0183 330.31 96.3326 330.749C96.6469 331.188 96.8287 331.688 96.8779 332.251Z" fill="#050505" fill-opacity="0.3"/>
            <path d="M136.567 333.436L136.486 332.51C136.861 332.096 137.272 331.644 137.721 331.153C138.169 330.657 138.611 330.15 139.048 329.63C139.488 329.105 139.887 328.591 140.244 328.088C140.601 327.58 140.881 327.107 141.083 326.668C141.29 326.223 141.379 325.839 141.351 325.516C141.317 325.123 141.188 324.773 140.966 324.466C140.748 324.154 140.469 323.915 140.128 323.749C139.792 323.578 139.428 323.51 139.034 323.544C138.641 323.579 138.289 323.71 137.978 323.938C137.671 324.16 137.435 324.444 137.27 324.789C137.104 325.13 137.038 325.497 137.073 325.89L136.027 325.982C135.975 325.384 136.072 324.832 136.319 324.323C136.57 323.815 136.925 323.398 137.383 323.072C137.84 322.741 138.36 322.55 138.943 322.499C139.525 322.448 140.068 322.546 140.571 322.793C141.079 323.039 141.496 323.391 141.822 323.849C142.153 324.307 142.345 324.832 142.397 325.424C142.427 325.778 142.367 326.174 142.215 326.614C142.067 327.048 141.854 327.506 141.575 327.987C141.295 328.463 140.977 328.947 140.619 329.44C140.26 329.933 139.884 330.417 139.489 330.893C139.094 331.364 138.709 331.809 138.334 332.228L143.113 331.81L143.205 332.855L136.567 333.436ZM146.902 332.727C146.245 332.785 145.628 332.676 145.052 332.4C144.481 332.119 144.007 331.719 143.631 331.2C143.259 330.681 143.044 330.09 142.986 329.428C142.953 329.045 142.969 328.715 143.035 328.438C143.101 328.157 143.206 327.842 143.351 327.493L145.866 322.089L147.083 321.982L145.239 325.936C145.662 325.728 146.096 325.615 146.541 325.596C146.985 325.572 147.417 325.632 147.836 325.776C148.255 325.92 148.635 326.135 148.976 326.421C149.317 326.703 149.595 327.044 149.811 327.447C150.031 327.849 150.163 328.299 150.207 328.797C150.251 329.294 150.197 329.771 150.046 330.225C149.895 330.675 149.667 331.081 149.363 331.444C149.063 331.801 148.702 332.093 148.281 332.321C147.859 332.548 147.399 332.684 146.902 332.727ZM146.81 331.682C147.308 331.639 147.741 331.48 148.108 331.207C148.475 330.929 148.751 330.584 148.935 330.172C149.125 329.759 149.2 329.329 149.161 328.881C149.12 328.413 148.968 327.997 148.706 327.634C148.443 327.266 148.107 326.984 147.699 326.789C147.29 326.589 146.849 326.51 146.376 326.551C145.889 326.594 145.461 326.751 145.094 327.024C144.726 327.297 144.447 327.638 144.257 328.046C144.067 328.448 143.992 328.876 144.031 329.329C144.074 329.817 144.229 330.245 144.497 330.613C144.77 330.98 145.111 331.261 145.519 331.456C145.927 331.647 146.357 331.722 146.81 331.682ZM154.329 332.078C153.99 332.107 153.654 332.079 153.321 331.993C152.992 331.911 152.686 331.767 152.402 331.562L152.996 330.697C153.168 330.817 153.359 330.909 153.57 330.97C153.781 331.032 154.003 331.053 154.237 331.032C154.586 331.002 154.894 330.882 155.161 330.673C155.429 330.459 155.634 330.195 155.777 329.882C155.924 329.563 155.983 329.232 155.953 328.888L155.286 321.264L156.332 321.173L156.999 328.797C157.046 329.334 156.957 329.844 156.734 330.325C156.51 330.806 156.189 331.208 155.771 331.53C155.352 331.848 154.871 332.03 154.329 332.078ZM163.326 323.571L164.372 323.479L165.025 330.946L163.979 331.038L163.821 329.652C163.618 330.146 163.311 330.56 162.898 330.892C162.485 331.219 161.975 331.409 161.368 331.462C160.82 331.51 160.299 331.453 159.803 331.29C159.307 331.123 158.861 330.874 158.466 330.542C158.071 330.21 157.75 329.815 157.504 329.355C157.258 328.894 157.112 328.391 157.064 327.843C157.017 327.305 157.072 326.791 157.23 326.301C157.392 325.81 157.635 325.37 157.957 324.981C158.284 324.591 158.673 324.276 159.123 324.036C159.578 323.791 160.075 323.645 160.612 323.598C161.235 323.543 161.79 323.645 162.279 323.903C162.768 324.156 163.17 324.51 163.486 324.964L163.326 323.571ZM161.257 330.448C161.789 330.402 162.236 330.232 162.597 329.94C162.957 329.642 163.22 329.263 163.385 328.802C163.555 328.341 163.617 327.844 163.571 327.311C163.523 326.764 163.375 326.28 163.128 325.86C162.88 325.436 162.553 325.111 162.147 324.885C161.741 324.66 161.274 324.57 160.747 324.617C160.219 324.663 159.748 324.837 159.333 325.139C158.922 325.436 158.607 325.817 158.387 326.283C158.172 326.748 158.088 327.249 158.135 327.787C158.182 328.33 158.357 328.811 158.66 329.231C158.962 329.646 159.341 329.964 159.797 330.185C160.257 330.405 160.744 330.493 161.257 330.448ZM171.431 325.728L171.836 330.35L170.79 330.442L170.404 326.029C170.368 325.621 170.236 325.259 170.008 324.942C169.78 324.626 169.49 324.383 169.139 324.213C168.788 324.043 168.409 323.976 168 324.012C167.597 324.047 167.235 324.179 166.914 324.408C166.598 324.636 166.355 324.926 166.185 325.277C166.015 325.628 165.948 326.007 165.984 326.416L166.37 330.829L165.324 330.92L164.671 323.453L165.716 323.362L165.807 324.392C166.037 323.991 166.354 323.659 166.758 323.398C167.161 323.137 167.612 322.985 168.11 322.942C168.672 322.892 169.197 322.984 169.684 323.218C170.171 323.451 170.572 323.787 170.886 324.226C171.2 324.665 171.382 325.166 171.431 325.728Z" fill="#050505" fill-opacity="0.3"/>
            <path d="M211.266 326.901L211.185 325.975C211.56 325.561 211.972 325.108 212.42 324.618C212.868 324.122 213.311 323.614 213.747 323.095C214.187 322.57 214.586 322.056 214.944 321.553C215.3 321.045 215.58 320.572 215.782 320.133C215.989 319.688 216.079 319.304 216.05 318.981C216.016 318.587 215.887 318.237 215.665 317.931C215.447 317.619 215.168 317.38 214.827 317.214C214.491 317.043 214.127 316.974 213.733 317.009C213.34 317.043 212.988 317.174 212.677 317.402C212.37 317.625 212.134 317.909 211.969 318.254C211.803 318.595 211.737 318.962 211.772 319.355L210.726 319.446C210.674 318.849 210.771 318.296 211.018 317.788C211.269 317.28 211.624 316.862 212.082 316.536C212.539 316.205 213.059 316.014 213.642 315.963C214.224 315.913 214.767 316.01 215.27 316.257C215.778 316.504 216.195 316.856 216.521 317.314C216.852 317.772 217.044 318.297 217.096 318.889C217.127 319.243 217.066 319.639 216.914 320.079C216.766 320.513 216.553 320.971 216.274 321.452C215.995 321.927 215.676 322.412 215.318 322.905C214.959 323.397 214.583 323.882 214.188 324.358C213.793 324.829 213.408 325.274 213.033 325.693L217.812 325.275L217.904 326.32L211.266 326.901ZM218.664 326.253L223.262 316.371L217.087 316.911L216.995 315.866L224.38 315.22L224.472 316.265L219.859 326.149L218.664 326.253ZM228.969 325.548C228.631 325.577 228.295 325.549 227.961 325.463C227.633 325.381 227.327 325.237 227.043 325.031L227.637 324.167C227.808 324.287 227.999 324.378 228.21 324.44C228.421 324.502 228.644 324.523 228.878 324.502C229.226 324.472 229.534 324.352 229.802 324.143C230.069 323.929 230.274 323.665 230.418 323.352C230.565 323.033 230.624 322.702 230.594 322.358L229.927 314.734L230.972 314.643L231.639 322.267C231.686 322.804 231.598 323.314 231.374 323.795C231.151 324.276 230.83 324.678 230.411 325C229.993 325.318 229.512 325.5 228.969 325.548ZM237.967 317.041L239.012 316.949L239.666 324.416L238.62 324.508L238.461 323.122C238.259 323.616 237.951 324.029 237.539 324.361C237.126 324.688 236.616 324.879 236.009 324.932C235.461 324.98 234.94 324.922 234.444 324.76C233.948 324.593 233.502 324.343 233.107 324.012C232.712 323.68 232.391 323.284 232.145 322.824C231.899 322.364 231.752 321.861 231.704 321.313C231.657 320.775 231.713 320.261 231.87 319.771C232.033 319.28 232.276 318.84 232.598 318.451C232.925 318.061 233.314 317.746 233.764 317.506C234.219 317.261 234.715 317.114 235.253 317.067C235.875 317.013 236.431 317.115 236.92 317.373C237.409 317.626 237.811 317.98 238.126 318.434L237.967 317.041ZM235.898 323.918C236.43 323.872 236.877 323.702 237.238 323.41C237.598 323.112 237.861 322.733 238.026 322.272C238.196 321.811 238.258 321.314 238.211 320.781C238.164 320.234 238.016 319.75 237.768 319.33C237.521 318.905 237.194 318.58 236.788 318.355C236.382 318.13 235.915 318.04 235.387 318.086C234.86 318.133 234.388 318.307 233.973 318.609C233.563 318.906 233.248 319.287 233.028 319.753C232.812 320.218 232.728 320.719 232.775 321.257C232.823 321.799 232.998 322.281 233.301 322.701C233.603 323.116 233.982 323.434 234.437 323.655C234.898 323.875 235.385 323.963 235.898 323.918ZM246.072 319.198L246.476 323.82L245.431 323.912L245.045 319.499C245.009 319.091 244.877 318.728 244.649 318.412C244.42 318.096 244.131 317.853 243.78 317.683C243.429 317.513 243.049 317.446 242.641 317.482C242.238 317.517 241.876 317.649 241.555 317.878C241.239 318.106 240.996 318.396 240.826 318.747C240.656 319.098 240.589 319.477 240.624 319.885L241.01 324.298L239.965 324.39L239.312 316.923L240.357 316.831L240.447 317.862C240.678 317.46 240.995 317.129 241.399 316.868C241.802 316.607 242.253 316.455 242.751 316.411C243.313 316.362 243.838 316.454 244.325 316.687C244.812 316.921 245.212 317.257 245.527 317.696C245.841 318.135 246.023 318.636 246.072 319.198Z" fill="#050505" fill-opacity="0.3"/>
            <path d="M287.19 320.258L287.109 319.332C287.484 318.918 287.896 318.466 288.345 317.975C288.793 317.479 289.235 316.972 289.671 316.452C290.112 315.927 290.511 315.413 290.868 314.91C291.225 314.403 291.505 313.929 291.707 313.49C291.914 313.046 292.003 312.662 291.975 312.338C291.941 311.945 291.812 311.595 291.59 311.288C291.372 310.976 291.093 310.737 290.752 310.571C290.416 310.4 290.051 310.332 289.658 310.366C289.265 310.401 288.913 310.532 288.602 310.76C288.295 310.982 288.059 311.266 287.894 311.612C287.728 311.952 287.662 312.319 287.696 312.712L286.651 312.804C286.599 312.206 286.696 311.654 286.942 311.146C287.194 310.637 287.549 310.22 288.007 309.894C288.464 309.563 288.984 309.372 289.567 309.321C290.149 309.27 290.692 309.368 291.195 309.615C291.703 309.861 292.12 310.214 292.446 310.672C292.777 311.129 292.969 311.654 293.02 312.247C293.051 312.6 292.991 312.997 292.839 313.436C292.691 313.87 292.478 314.328 292.199 314.809C291.919 315.285 291.6 315.769 291.242 316.262C290.884 316.755 290.508 317.239 290.113 317.715C289.718 318.186 289.333 318.631 288.958 319.05L293.737 318.632L293.828 319.677L287.19 320.258ZM297.481 319.554C296.868 319.607 296.296 319.517 295.764 319.282C295.237 319.048 294.803 318.709 294.464 318.267C294.124 317.826 293.929 317.319 293.879 316.746C293.831 316.189 293.94 315.667 294.209 315.182C294.477 314.692 294.847 314.299 295.317 314.002C294.888 313.804 294.525 313.514 294.225 313.134C293.926 312.749 293.755 312.313 293.712 311.825C293.666 311.302 293.762 310.815 293.998 310.363C294.239 309.905 294.58 309.529 295.02 309.235C295.466 308.935 295.97 308.761 296.532 308.711C297.095 308.662 297.619 308.747 298.104 308.965C298.594 309.178 298.995 309.489 299.307 309.898C299.623 310.302 299.804 310.765 299.85 311.288C299.893 311.776 299.8 312.235 299.572 312.667C299.348 313.092 299.04 313.44 298.647 313.711C299.172 313.92 299.607 314.244 299.951 314.68C300.3 315.111 300.499 315.605 300.547 316.163C300.597 316.73 300.491 317.264 300.228 317.763C299.971 318.257 299.603 318.666 299.124 318.988C298.646 319.311 298.098 319.499 297.481 319.554ZM297.389 318.508C297.802 318.472 298.168 318.347 298.485 318.134C298.803 317.92 299.047 317.651 299.219 317.325C299.391 316.994 299.46 316.639 299.427 316.261C299.394 315.882 299.265 315.548 299.038 315.256C298.812 314.965 298.524 314.742 298.175 314.587C297.825 314.432 297.444 314.373 297.031 314.409C296.627 314.444 296.265 314.569 295.942 314.782C295.625 314.996 295.378 315.266 295.2 315.592C295.028 315.918 294.959 316.27 294.992 316.649C295.025 317.027 295.155 317.364 295.381 317.661C295.612 317.951 295.903 318.174 296.252 318.329C296.607 318.484 296.986 318.543 297.389 318.508ZM296.939 313.363C297.303 313.332 297.624 313.223 297.904 313.038C298.183 312.848 298.398 312.609 298.548 312.32C298.704 312.03 298.767 311.719 298.737 311.385C298.708 311.052 298.592 310.758 298.39 310.505C298.191 310.247 297.938 310.051 297.631 309.917C297.323 309.778 296.987 309.725 296.624 309.757C296.265 309.788 295.944 309.899 295.66 310.089C295.38 310.274 295.162 310.512 295.007 310.801C294.856 311.085 294.796 311.394 294.825 311.728C294.854 312.061 294.968 312.357 295.166 312.616C295.369 312.874 295.625 313.072 295.933 313.211C296.245 313.344 296.581 313.395 296.939 313.363ZM302.385 319.124C302.046 319.154 301.71 319.126 301.376 319.04C301.048 318.958 300.742 318.814 300.458 318.608L301.052 317.744C301.223 317.864 301.414 317.955 301.626 318.017C301.837 318.079 302.059 318.1 302.293 318.079C302.642 318.049 302.95 317.929 303.217 317.72C303.484 317.506 303.69 317.242 303.833 316.929C303.98 316.61 304.039 316.279 304.009 315.935L303.342 308.311L304.387 308.22L305.054 315.844C305.102 316.381 305.013 316.891 304.789 317.372C304.566 317.853 304.245 318.254 303.826 318.577C303.408 318.894 302.927 319.077 302.385 319.124ZM311.382 310.618L312.427 310.526L313.081 317.993L312.035 318.085L311.876 316.699C311.674 317.193 311.366 317.606 310.954 317.938C310.541 318.265 310.031 318.455 309.424 318.509C308.876 318.557 308.355 318.499 307.859 318.337C307.363 318.17 306.917 317.92 306.522 317.589C306.127 317.257 305.806 316.861 305.56 316.401C305.314 315.941 305.167 315.437 305.12 314.89C305.072 314.352 305.128 313.838 305.286 313.348C305.448 312.857 305.691 312.417 306.013 312.028C306.34 311.638 306.729 311.323 307.179 311.083C307.634 310.838 308.131 310.691 308.668 310.644C309.29 310.59 309.846 310.692 310.335 310.95C310.824 311.203 311.226 311.557 311.542 312.011L311.382 310.618ZM309.313 317.495C309.845 317.448 310.292 317.279 310.653 316.987C311.013 316.689 311.276 316.31 311.441 315.849C311.611 315.388 311.673 314.891 311.627 314.358C311.579 313.811 311.431 313.327 311.184 312.907C310.936 312.482 310.609 312.157 310.203 311.932C309.797 311.707 309.33 311.617 308.802 311.663C308.275 311.71 307.803 311.884 307.388 312.186C306.978 312.483 306.663 312.864 306.443 313.329C306.228 313.795 306.144 314.296 306.191 314.834C306.238 315.376 306.413 315.858 306.716 316.278C307.018 316.693 307.397 317.011 307.853 317.232C308.313 317.452 308.8 317.54 309.313 317.495ZM319.487 312.775L319.891 317.397L318.846 317.489L318.46 313.076C318.424 312.667 318.292 312.305 318.064 311.989C317.836 311.673 317.546 311.43 317.195 311.26C316.844 311.09 316.465 311.023 316.056 311.059C315.653 311.094 315.291 311.226 314.97 311.455C314.654 311.683 314.411 311.973 314.241 312.324C314.071 312.675 314.004 313.054 314.039 313.462L314.426 317.875L313.38 317.967L312.727 310.5L313.772 310.408L313.862 311.439C314.093 311.037 314.41 310.706 314.814 310.445C315.217 310.184 315.668 310.032 316.166 309.988C316.728 309.939 317.253 310.031 317.74 310.264C318.227 310.498 318.627 310.834 318.942 311.273C319.256 311.712 319.438 312.213 319.487 312.775Z" fill="#050505" fill-opacity="0.3"/>
            <path d="M360.664 313.83L360.583 312.904C360.958 312.49 361.37 312.038 361.818 311.547C362.267 311.051 362.709 310.544 363.145 310.024C363.585 309.499 363.984 308.985 364.342 308.482C364.699 307.974 364.978 307.501 365.181 307.062C365.387 306.618 365.477 306.234 365.448 305.91C365.414 305.517 365.286 305.167 365.063 304.86C364.845 304.548 364.566 304.309 364.225 304.143C363.889 303.972 363.525 303.904 363.132 303.938C362.738 303.973 362.386 304.104 362.075 304.332C361.768 304.554 361.532 304.838 361.367 305.184C361.201 305.524 361.135 305.891 361.17 306.284L360.124 306.376C360.072 305.778 360.169 305.226 360.416 304.718C360.667 304.209 361.022 303.792 361.48 303.466C361.938 303.135 362.458 302.944 363.04 302.893C363.623 302.842 364.165 302.94 364.668 303.187C365.177 303.433 365.594 303.785 365.92 304.244C366.251 304.701 366.442 305.226 366.494 305.819C366.525 306.172 366.464 306.568 366.312 307.008C366.164 307.442 365.951 307.9 365.672 308.381C365.393 308.857 365.074 309.341 364.716 309.834C364.358 310.327 363.981 310.811 363.586 311.287C363.191 311.758 362.806 312.203 362.432 312.622L367.21 312.204L367.302 313.249L360.664 313.83ZM369.638 313.045L371.596 308.848C371.085 309.094 370.563 309.202 370.029 309.173C369.494 309.14 368.995 308.993 368.531 308.733C368.066 308.467 367.679 308.11 367.369 307.661C367.063 307.206 366.884 306.68 366.832 306.082C366.79 305.604 366.84 305.146 366.982 304.707C367.129 304.268 367.348 303.875 367.639 303.529C367.929 303.177 368.276 302.894 368.678 302.678C369.085 302.457 369.53 302.325 370.013 302.283C370.65 302.227 371.244 302.336 371.795 302.608C372.35 302.876 372.807 303.26 373.167 303.76C373.532 304.26 373.742 304.831 373.798 305.473C373.83 305.836 373.813 306.154 373.746 306.425C373.684 306.692 373.58 306.994 373.434 307.333L370.84 312.94L369.638 313.045ZM370.518 308.228C370.991 308.186 371.402 308.038 371.751 307.781C372.104 307.52 372.371 307.193 372.553 306.801C372.734 306.409 372.806 305.999 372.769 305.57C372.728 305.103 372.577 304.694 372.315 304.346C372.059 303.992 371.734 303.725 371.342 303.543C370.95 303.357 370.537 303.283 370.104 303.321C369.626 303.362 369.21 303.514 368.857 303.776C368.509 304.037 368.244 304.366 368.063 304.763C367.887 305.155 367.817 305.567 367.855 306C367.895 306.448 368.04 306.849 368.292 307.204C368.543 307.553 368.862 307.821 369.25 308.008C369.642 308.194 370.065 308.267 370.518 308.228ZM378.251 312.487C377.912 312.517 377.576 312.488 377.243 312.402C376.915 312.321 376.609 312.177 376.325 311.971L376.919 311.106C377.09 311.227 377.281 311.318 377.492 311.38C377.703 311.442 377.925 311.462 378.159 311.442C378.508 311.411 378.816 311.291 379.084 311.082C379.351 310.868 379.556 310.605 379.699 310.291C379.847 309.972 379.906 309.641 379.875 309.298L379.208 301.674L380.254 301.582L380.921 309.206C380.968 309.744 380.88 310.253 380.656 310.734C380.432 311.215 380.111 311.617 379.693 311.94C379.274 312.257 378.794 312.44 378.251 312.487ZM387.248 303.98L388.294 303.889L388.947 311.356L387.902 311.447L387.743 310.062C387.54 310.556 387.233 310.969 386.82 311.301C386.408 311.628 385.898 311.818 385.29 311.871C384.743 311.919 384.221 311.862 383.725 311.7C383.229 311.532 382.783 311.283 382.388 310.951C381.993 310.62 381.673 310.224 381.427 309.764C381.181 309.304 381.034 308.8 380.986 308.252C380.939 307.715 380.994 307.201 381.152 306.711C381.315 306.22 381.557 305.78 381.879 305.39C382.206 305.001 382.595 304.686 383.046 304.446C383.501 304.2 383.997 304.054 384.535 304.007C385.157 303.952 385.712 304.054 386.202 304.312C386.69 304.566 387.092 304.919 387.408 305.373L387.248 303.98ZM385.179 310.858C385.712 310.811 386.158 310.642 386.519 310.349C386.879 310.052 387.142 309.673 387.307 309.212C387.478 308.75 387.54 308.253 387.493 307.721C387.445 307.173 387.297 306.69 387.05 306.27C386.802 305.845 386.475 305.52 386.069 305.295C385.663 305.069 385.197 304.98 384.669 305.026C384.141 305.072 383.67 305.246 383.255 305.548C382.844 305.845 382.529 306.226 382.309 306.692C382.094 307.157 382.01 307.659 382.057 308.196C382.104 308.739 382.279 309.22 382.582 309.64C382.884 310.055 383.263 310.373 383.719 310.594C384.18 310.815 384.666 310.903 385.179 310.858ZM395.353 306.138L395.758 310.76L394.712 310.851L394.326 306.438C394.291 306.03 394.159 305.668 393.93 305.352C393.702 305.036 393.412 304.793 393.061 304.623C392.71 304.453 392.331 304.386 391.923 304.421C391.52 304.457 391.157 304.589 390.836 304.817C390.52 305.046 390.277 305.335 390.107 305.686C389.937 306.037 389.87 306.417 389.906 306.825L390.292 311.238L389.247 311.329L388.593 303.862L389.639 303.771L389.729 304.801C389.96 304.4 390.277 304.069 390.68 303.808C391.084 303.547 391.534 303.394 392.032 303.351C392.595 303.302 393.119 303.394 393.606 303.627C394.093 303.86 394.494 304.196 394.808 304.635C395.122 305.074 395.304 305.575 395.353 306.138Z" fill="#050505" fill-opacity="0.3"/>
            <path d="M52.9668 235.183L17.5867 226.138L-63.9155 296.969L-56.2551 384.528L516.214 334.443L494.492 86.1662L445.21 104.417L329.406 130.061L208.967 120.589L148.933 184.296L52.9668 235.183Z" fill="url(#paint0_linear_3983_3444)" fill-opacity="0.2"/>
            <path d="M-64.0294 295.648L17.5379 225.561L52.9179 234.607L148.885 183.719L208.918 120.012L329.357 129.485L445.161 103.84L494.443 85.5895" stroke="#DEFC65" stroke-width="3.74775" stroke-linecap="round"/>
            <g filter="url(#filter2_b_3983_3444)">
                <path fill-rule="evenodd" clip-rule="evenodd" d="M183.809 68.2041C174.53 69.0159 167.666 77.1959 168.478 86.4747C169.289 95.7535 177.47 102.617 186.748 101.806L197.165 100.894L202.048 108.658C203.131 110.381 205.709 110.155 206.477 108.271L209.937 99.7768L221.594 98.7569C230.873 97.9451 237.737 89.7651 236.925 80.4864C236.113 71.2076 227.933 64.3437 218.654 65.1555L183.809 68.2041Z" fill="#050505"/>
            </g>
            <path d="M193.962 89.397L193.69 86.2907L190.584 86.5625L190.474 85.308L193.581 85.0363L193.309 81.93L194.563 81.8203L194.835 84.9265L197.941 84.6548L198.051 85.9092L194.945 86.181L195.217 89.2872L193.962 89.397ZM202.252 89.6198C201.605 89.6764 201.004 89.571 200.448 89.3035C199.893 89.0361 199.439 88.6545 199.084 88.1588C198.734 87.6577 198.532 87.0911 198.477 86.4589L199.731 86.3491C199.766 86.7523 199.898 87.1145 200.127 87.4356C200.355 87.7517 200.645 87.9947 200.996 88.1646C201.352 88.3341 201.734 88.401 202.142 88.3653C202.545 88.3301 202.905 88.1983 203.221 87.97C203.537 87.7417 203.78 87.452 203.95 87.1011C204.12 86.7452 204.187 86.3656 204.151 85.9624C204.116 85.5592 203.989 85.1966 203.77 84.8746C203.557 84.5522 203.262 84.3072 202.886 84.1394C202.51 83.9667 202.065 83.9027 201.552 83.9476L198.976 84.173L199.558 79.126L204.516 78.6923L204.626 79.9467L200.683 80.2916L200.412 82.7833L201.496 82.696C202.209 82.6487 202.847 82.7533 203.412 83.0099C203.98 83.2611 204.439 83.6323 204.788 84.1235C205.142 84.6092 205.348 85.1856 205.406 85.8526C205.447 86.3255 205.397 86.7814 205.255 87.2202C205.112 87.654 204.895 88.0442 204.605 88.3907C204.314 88.7371 203.967 89.0182 203.565 89.234C203.167 89.4494 202.73 89.578 202.252 89.6198ZM207.105 88.9996L212.223 78.018L213.672 77.8912L208.553 88.8728L207.105 88.9996ZM207.797 82.6413C207.444 82.6722 207.116 82.6157 206.812 82.4717C206.513 82.3272 206.264 82.1183 206.065 81.8448C205.865 81.5713 205.75 81.2579 205.719 80.9044C205.688 80.541 205.746 80.2099 205.896 79.9109C206.045 79.6069 206.256 79.3577 206.53 79.1631C206.804 78.9686 207.115 78.8561 207.464 78.8256C207.812 78.7952 208.138 78.8544 208.442 79.0034C208.746 79.1474 208.995 79.3563 209.189 79.6302C209.388 79.8987 209.504 80.2122 209.535 80.5706C209.566 80.929 209.508 81.2602 209.359 81.5642C209.209 81.8632 208.997 82.1099 208.724 82.3044C208.45 82.4989 208.141 82.6112 207.797 82.6413ZM207.717 81.7228C207.991 81.6989 208.214 81.5841 208.387 81.3783C208.564 81.1672 208.64 80.9248 208.617 80.651C208.592 80.3722 208.475 80.1467 208.264 79.9745C208.058 79.797 207.818 79.7201 207.544 79.7441C207.27 79.768 207.045 79.8856 206.868 80.0967C206.69 80.3029 206.613 80.5453 206.638 80.8241C206.662 81.0979 206.779 81.3233 206.99 81.5005C207.201 81.6727 207.443 81.7468 207.717 81.7228ZM213.321 88.072C212.973 88.1025 212.644 88.0434 212.335 87.8949C212.031 87.741 211.779 87.5272 211.579 87.2538C211.384 86.9749 211.272 86.6662 211.243 86.3277C211.211 85.9693 211.27 85.6381 211.419 85.3341C211.573 85.0297 211.787 84.7802 212.061 84.5857C212.335 84.3912 212.643 84.2789 212.987 84.2489C213.345 84.2175 213.677 84.2788 213.981 84.4328C214.285 84.5817 214.534 84.7932 214.729 85.0671C214.923 85.341 215.036 85.6497 215.066 85.9932C215.097 86.3466 215.038 86.6753 214.889 86.9793C214.745 87.2828 214.536 87.5343 214.262 87.7338C213.988 87.9283 213.675 88.0411 213.321 88.072ZM213.241 87.1535C213.515 87.1296 213.74 87.012 213.917 86.8009C214.095 86.5898 214.171 86.3473 214.147 86.0735C214.123 85.7998 214.006 85.5743 213.795 85.3971C213.583 85.22 213.341 85.1434 213.067 85.1673C212.793 85.1913 212.568 85.3088 212.391 85.5199C212.214 85.7311 212.137 85.9735 212.161 86.2473C212.185 86.5211 212.302 86.7466 212.514 86.9237C212.725 87.1009 212.967 87.1775 213.241 87.1535Z" fill="white"/>
            <circle cx="205.615" cy="123.983" r="6.24625" transform="rotate(-5 205.615 123.983)" fill="#050505" stroke="#DEFC65" stroke-width="2.4985"/>
        </g>
    </g>
    <defs>
        <filter id="filter0_ddd_3983_3444" x="0.162354" y="0.649041" width="397.857" height="397.856" filterUnits="userSpaceOnUse" color-interpolation-filters="sRGB">
            <feFlood flood-opacity="0" result="BackgroundImageFix"/>
            <feColorMatrix in="SourceAlpha" type="matrix" values="0 0 0 0 0 0 0 0 0 0 0 0 0 0 0 0 0 0 127 0" result="hardAlpha"/>
            <feMorphology radius="1.04697" operator="dilate" in="SourceAlpha" result="effect1_dropShadow_3983_3444"/>
            <feOffset/>
            <feComposite in2="hardAlpha" operator="out"/>
            <feColorMatrix type="matrix" values="0 0 0 0 0 0 0 0 0 0 0 0 0 0 0 0 0 0 0.06 0"/>
            <feBlend mode="normal" in2="BackgroundImageFix" result="effect1_dropShadow_3983_3444"/>
            <feColorMatrix in="SourceAlpha" type="matrix" values="0 0 0 0 0 0 0 0 0 0 0 0 0 0 0 0 0 0 127 0" result="hardAlpha"/>
            <feMorphology radius="1.04697" operator="erode" in="SourceAlpha" result="effect2_dropShadow_3983_3444"/>
            <feOffset/>
            <feGaussianBlur stdDeviation="1.57045"/>
            <feComposite in2="hardAlpha" operator="out"/>
            <feColorMatrix type="matrix" values="0 0 0 0 0 0 0 0 0 0 0 0 0 0 0 0 0 0 0.04 0"/>
            <feBlend mode="normal" in2="effect1_dropShadow_3983_3444" result="effect2_dropShadow_3983_3444"/>
            <feColorMatrix in="SourceAlpha" type="matrix" values="0 0 0 0 0 0 0 0 0 0 0 0 0 0 0 0 0 0 127 0" result="hardAlpha"/>
            <feMorphology radius="6.28182" operator="erode" in="SourceAlpha" result="effect3_dropShadow_3983_3444"/>
            <feOffset dy="16.7515"/>
            <feGaussianBlur stdDeviation="12.5636"/>
            <feComposite in2="hardAlpha" operator="out"/>
            <feColorMatrix type="matrix" values="0 0 0 0 0 0 0 0 0 0 0 0 0 0 0 0 0 0 0.08 0"/>
            <feBlend mode="normal" in2="effect2_dropShadow_3983_3444" result="effect3_dropShadow_3983_3444"/>
            <feBlend mode="normal" in="SourceGraphic" in2="effect3_dropShadow_3983_3444" result="shape"/>
        </filter>
        <filter id="filter1_b_3983_3444" x="-14.1552" y="-30.3804" width="425.773" height="425.773" filterUnits="userSpaceOnUse" color-interpolation-filters="sRGB">
            <feFlood flood-opacity="0" result="BackgroundImageFix"/>
            <feGaussianBlur in="BackgroundImageFix" stdDeviation="15.7045"/>
            <feComposite in2="SourceAlpha" operator="in" result="effect1_backgroundBlur_3983_3444"/>
            <feBlend mode="normal" in="SourceGraphic" in2="effect1_backgroundBlur_3983_3444" result="shape"/>
        </filter>
        <filter id="filter2_b_3983_3444" x="130.935" y="27.6128" width="143.533" height="119.692" filterUnits="userSpaceOnUse" color-interpolation-filters="sRGB">
            <feFlood flood-opacity="0" result="BackgroundImageFix"/>
            <feGaussianBlur in="BackgroundImageFix" stdDeviation="18.7388"/>
            <feComposite in2="SourceAlpha" operator="in" result="effect1_backgroundBlur_3983_3444"/>
            <feBlend mode="normal" in="SourceGraphic" in2="effect1_backgroundBlur_3983_3444" result="shape"/>
        </filter>
        <linearGradient id="paint0_linear_3983_3444" x1="208.258" y1="111.208" x2="229.979" y2="359.486" gradientUnits="userSpaceOnUse">
            <stop stop-color="#DEFC65"/>
            <stop offset="1" stop-color="#DEFC65" stop-opacity="0"/>
        </linearGradient>
        <clipPath id="clip0_3983_3444">
            <rect x="17.2539" y="30.2286" width="335.03" height="335.03" rx="16.7515" transform="rotate(-5 17.2539 30.2286)" fill="white"/>
        </clipPath>
    </defs>
</svg>
