<svg width="384" height="384" viewBox="0 0 384 384" fill="none" xmlns="http://www.w3.org/2000/svg">
    <g filter="url(#filter0_ddd_3983_3433)">
        <rect x="30.1758" y="1.62018" width="335.03" height="335.03" rx="16.7515" transform="rotate(2 30.1758 1.62018)" fill="white"/>
    </g>
    <g filter="url(#filter1_d_3983_3433)">
        <path d="M221.575 91.347C222.377 89.1823 221.275 86.7674 219.076 86.0635C197.065 79.0163 173.155 80.4258 152.061 90.1136C129.698 100.384 112.331 119.118 103.78 142.194C95.229 165.27 96.1952 190.797 106.466 213.16C116.154 234.255 133.371 250.904 154.66 259.902C156.787 260.8 159.197 259.687 159.999 257.522L190.787 174.435L221.575 91.347Z" fill="#A2F7F2"/>
    </g>
    <g filter="url(#filter2_d_3983_3433)">
        <path d="M100.761 137.935C98.6214 137.068 96.1751 138.097 95.3966 140.271C86.8402 164.16 87.5452 190.452 97.4723 213.915C107.943 238.665 127.818 258.242 152.723 268.338C177.628 278.435 205.523 278.224 230.273 267.753C253.737 257.826 272.551 239.448 283.046 216.344C284 214.242 282.961 211.8 280.822 210.932L190.791 174.434L100.761 137.935Z" fill="#050505"/>
    </g>
    <g filter="url(#filter3_d_3983_3433)">
        <path d="M127.441 257.085C126.037 258.917 126.38 261.549 128.266 262.881C150.501 278.597 177.894 285.392 204.988 281.806C233.467 278.038 259.282 263.111 276.755 240.309C294.228 217.508 301.927 188.698 298.159 160.22C294.574 133.125 280.889 108.442 259.931 91.0594C258.154 89.5857 255.524 89.9386 254.119 91.771L190.78 174.428L127.441 257.085Z" fill="#1F5EFF"/>
    </g>
    <g filter="url(#filter4_d_3983_3433)">
        <path d="M246.637 270.576C247.796 272.572 250.359 273.257 252.312 272.027C272.394 259.373 288.116 240.809 297.282 218.841C306.984 195.584 308.806 169.79 302.467 145.4C296.129 121.011 281.979 99.3675 262.181 83.7777C243.479 69.0513 220.708 60.4916 197.006 59.2167C194.7 59.0927 192.795 60.939 192.755 63.2473L190.828 173.255C190.814 174.017 191.01 174.768 191.392 175.427L246.637 270.576Z" fill="#DEFC65"/>
    </g>
    <g filter="url(#filter5_d_3983_3433)">
        <circle cx="190.727" cy="174.32" r="66.0447" transform="rotate(2 190.727 174.32)" fill="white"/>
    </g>
    <path d="M174.847 169.16L175.006 164.615L170.461 164.457L170.525 162.621L175.07 162.78L175.228 158.235L177.064 158.299L176.905 162.844L181.45 163.003L181.386 164.838L176.841 164.68L176.682 169.224L174.847 169.16ZM183.561 170.558L184.031 157.099L182.316 157.039L182.894 155.221L185.931 155.327L185.397 170.622L183.561 170.558ZM187.499 170.696L195.726 157.507L186.953 157.201L187.017 155.365L197.91 155.746L197.846 157.581L189.597 170.769L187.499 170.696ZM198.568 171.082L207.93 156.096L210.049 156.17L200.688 171.156L198.568 171.082ZM200.701 162.002C200.184 161.983 199.719 161.843 199.305 161.581C198.898 161.319 198.575 160.972 198.335 160.541C198.095 160.109 197.984 159.635 198.002 159.118C198.02 158.586 198.164 158.117 198.434 157.711C198.703 157.298 199.054 156.974 199.485 156.741C199.916 156.509 200.386 156.401 200.896 156.419C201.406 156.437 201.868 156.58 202.281 156.85C202.695 157.112 203.018 157.459 203.251 157.89C203.492 158.314 203.603 158.789 203.584 159.313C203.566 159.837 203.422 160.306 203.152 160.72C202.883 161.126 202.533 161.446 202.102 161.679C201.67 161.911 201.204 162.019 200.701 162.002ZM200.748 160.658C201.149 160.672 201.492 160.545 201.779 160.278C202.073 160.004 202.227 159.667 202.241 159.266C202.255 158.858 202.125 158.511 201.85 158.224C201.583 157.93 201.25 157.777 200.849 157.763C200.449 157.749 200.101 157.879 199.807 158.153C199.514 158.42 199.36 158.757 199.345 159.165C199.331 159.566 199.461 159.913 199.736 160.207C200.01 160.493 200.347 160.644 200.748 160.658ZM207.732 170.845C207.222 170.827 206.757 170.683 206.336 170.413C205.923 170.136 205.596 169.782 205.356 169.351C205.123 168.912 205.016 168.445 205.033 167.95C205.051 167.426 205.195 166.957 205.465 166.543C205.742 166.13 206.096 165.807 206.527 165.574C206.958 165.341 207.425 165.233 207.927 165.251C208.452 165.269 208.921 165.417 209.334 165.694C209.747 165.964 210.071 166.314 210.303 166.745C210.536 167.176 210.644 167.643 210.626 168.145C210.608 168.663 210.464 169.128 210.195 169.541C209.932 169.955 209.586 170.282 209.154 170.522C208.723 170.755 208.249 170.863 207.732 170.845ZM207.779 169.501C208.179 169.515 208.527 169.385 208.821 169.111C209.115 168.836 209.269 168.499 209.283 168.099C209.297 167.698 209.167 167.351 208.892 167.057C208.618 166.763 208.281 166.609 207.88 166.595C207.48 166.581 207.132 166.711 206.839 166.985C206.545 167.259 206.391 167.596 206.377 167.997C206.363 168.398 206.493 168.745 206.767 169.039C207.041 169.333 207.378 169.487 207.779 169.501Z" fill="#050505"/>
    <path d="M166.068 193.334L166.442 182.628L169.975 182.751C170.551 182.771 171.064 182.93 171.513 183.226C171.967 183.523 172.321 183.915 172.574 184.404C172.833 184.888 172.952 185.423 172.932 186.009C172.911 186.606 172.752 187.139 172.455 187.608C172.163 188.073 171.778 188.437 171.299 188.701C170.825 188.96 170.311 189.08 169.755 189.06L167.506 188.982L167.353 193.379L166.068 193.334ZM167.551 187.697L169.685 187.772C170.032 187.784 170.351 187.711 170.642 187.552C170.939 187.389 171.176 187.165 171.355 186.881C171.538 186.591 171.637 186.263 171.649 185.895C171.662 185.523 171.587 185.189 171.424 184.892C171.266 184.591 171.045 184.351 170.76 184.172C170.481 183.989 170.168 183.891 169.821 183.879L167.687 183.805L167.551 187.697ZM176.145 193.885C175.441 193.861 174.805 193.657 174.236 193.275C173.673 192.893 173.228 192.393 172.903 191.774C172.583 191.15 172.435 190.469 172.461 189.729C172.481 189.168 172.598 188.649 172.814 188.172C173.03 187.689 173.318 187.271 173.677 186.916C174.042 186.556 174.46 186.279 174.931 186.087C175.403 185.894 175.901 185.807 176.426 185.825C177.13 185.849 177.763 186.053 178.327 186.435C178.895 186.817 179.34 187.32 179.66 187.944C179.985 188.568 180.135 189.252 180.109 189.996C180.089 190.552 179.972 191.069 179.756 191.546C179.54 192.023 179.25 192.442 178.885 192.802C178.526 193.157 178.11 193.431 177.639 193.624C177.173 193.817 176.675 193.904 176.145 193.885ZM176.189 192.601C176.669 192.617 177.104 192.507 177.495 192.271C177.891 192.03 178.206 191.706 178.44 191.301C178.679 190.891 178.807 190.441 178.824 189.951C178.841 189.452 178.743 188.989 178.528 188.563C178.318 188.137 178.026 187.792 177.653 187.529C177.279 187.266 176.855 187.126 176.381 187.11C175.902 187.093 175.467 187.205 175.075 187.447C174.684 187.683 174.369 188.007 174.13 188.417C173.891 188.827 173.763 189.28 173.746 189.774C173.728 190.284 173.827 190.752 174.042 191.178C174.257 191.599 174.554 191.939 174.932 192.197C175.312 192.45 175.731 192.585 176.189 192.601ZM180.476 193.838L180.743 186.19L182.028 186.235L181.994 187.191C182.277 186.843 182.628 186.572 183.049 186.378C183.469 186.178 183.922 186.087 184.406 186.104C184.702 186.114 184.986 186.162 185.258 186.248L184.694 187.515C184.487 187.441 184.284 187.401 184.085 187.394C183.703 187.381 183.348 187.463 183.02 187.64C182.697 187.813 182.436 188.054 182.237 188.363C182.037 188.673 181.93 189.021 181.917 189.409L181.761 193.882L180.476 193.838ZM189.481 187.782L187.745 187.721L187.515 194.083L186.23 194.039L186.46 187.676L185.145 187.63L185.19 186.345L186.505 186.391L186.581 183.99L187.866 184.035L187.79 186.436L189.526 186.497L189.481 187.782ZM191.934 184.69L191.868 186.579L194.109 186.657L194.064 187.942L191.823 187.863L191.601 194.226L190.316 194.181L190.538 187.818L189.552 187.784L189.597 186.499L190.583 186.534L190.649 184.645C190.663 184.252 190.77 183.901 190.969 183.592C191.174 183.277 191.441 183.031 191.768 182.854C192.101 182.672 192.462 182.587 192.849 182.601C193.135 182.611 193.41 182.679 193.677 182.806C193.943 182.927 194.177 183.104 194.378 183.335L193.428 184.213C193.36 184.114 193.269 184.037 193.153 183.982C193.043 183.922 192.927 183.89 192.804 183.885C192.575 183.877 192.373 183.952 192.199 184.109C192.03 184.267 191.942 184.46 191.934 184.69ZM197.492 194.631C196.788 194.606 196.152 194.403 195.584 194.021C195.02 193.638 194.576 193.138 194.25 192.519C193.93 191.895 193.783 191.214 193.809 190.475C193.828 189.914 193.946 189.395 194.162 188.917C194.377 188.435 194.665 188.016 195.025 187.661C195.389 187.301 195.807 187.025 196.279 186.832C196.75 186.639 197.248 186.552 197.773 186.57C198.477 186.595 199.11 186.798 199.674 187.18C200.242 187.563 200.687 188.066 201.007 188.689C201.332 189.313 201.482 189.997 201.456 190.742C201.437 191.298 201.319 191.814 201.103 192.291C200.888 192.769 200.597 193.188 200.232 193.547C199.873 193.902 199.458 194.176 198.986 194.369C198.52 194.562 198.022 194.649 197.492 194.631ZM197.537 193.346C198.016 193.363 198.451 193.253 198.842 193.016C199.239 192.775 199.554 192.452 199.787 192.046C200.026 191.636 200.154 191.186 200.171 190.697C200.189 190.197 200.09 189.734 199.875 189.308C199.665 188.882 199.374 188.538 199 188.275C198.626 188.012 198.203 187.872 197.728 187.855C197.249 187.838 196.814 187.951 196.423 188.192C196.032 188.429 195.717 188.752 195.478 189.162C195.239 189.573 195.111 190.025 195.093 190.52C195.075 191.029 195.174 191.497 195.389 191.923C195.604 192.344 195.901 192.684 196.28 192.942C196.659 193.195 197.078 193.33 197.537 193.346ZM201.748 194.58L202.149 183.109L203.434 183.154L203.033 194.625L201.748 194.58ZM204.373 187.015L205.657 187.06L205.39 194.708L204.105 194.663L204.373 187.015ZM205.074 185.792C204.87 185.785 204.701 185.712 204.568 185.575C204.435 185.438 204.372 185.269 204.379 185.071C204.386 184.872 204.461 184.708 204.603 184.581C204.745 184.453 204.916 184.393 205.115 184.4C205.314 184.406 205.479 184.479 205.612 184.616C205.745 184.753 205.809 184.921 205.802 185.12C205.795 185.319 205.72 185.482 205.578 185.61C205.441 185.738 205.273 185.799 205.074 185.792ZM209.716 195.058C209.012 195.033 208.376 194.83 207.808 194.447C207.244 194.065 206.8 193.565 206.474 192.946C206.154 192.322 206.007 191.641 206.033 190.902C206.052 190.341 206.17 189.822 206.386 189.344C206.601 188.862 206.889 188.443 207.249 188.088C207.613 187.728 208.031 187.452 208.503 187.259C208.974 187.066 209.472 186.979 209.997 186.997C210.701 187.022 211.334 187.225 211.898 187.607C212.466 187.99 212.911 188.493 213.231 189.116C213.556 189.74 213.706 190.424 213.68 191.169C213.661 191.724 213.543 192.241 213.327 192.718C213.112 193.196 212.821 193.614 212.457 193.974C212.097 194.329 211.682 194.603 211.21 194.796C210.744 194.989 210.246 195.076 209.716 195.058ZM209.761 193.773C210.24 193.79 210.675 193.68 211.066 193.443C211.463 193.202 211.778 192.879 212.011 192.473C212.25 192.063 212.378 191.613 212.395 191.124C212.413 190.624 212.314 190.161 212.099 189.735C211.889 189.309 211.598 188.965 211.224 188.702C210.85 188.438 210.427 188.299 209.952 188.282C209.473 188.265 209.038 188.378 208.647 188.619C208.256 188.856 207.941 189.179 207.702 189.589C207.463 190 207.335 190.452 207.317 190.946C207.3 191.456 207.398 191.924 207.613 192.35C207.828 192.771 208.125 193.111 208.504 193.369C208.883 193.622 209.302 193.757 209.761 193.773Z" fill="#050505" fill-opacity="0.6"/>
    <defs>
        <filter id="filter0_ddd_3983_3433" x="0.211183" y="0.100457" width="383.062" height="383.061" filterUnits="userSpaceOnUse" color-interpolation-filters="sRGB">
            <feFlood flood-opacity="0" result="BackgroundImageFix"/>
            <feColorMatrix in="SourceAlpha" type="matrix" values="0 0 0 0 0 0 0 0 0 0 0 0 0 0 0 0 0 0 127 0" result="hardAlpha"/>
            <feMorphology radius="1.04697" operator="dilate" in="SourceAlpha" result="effect1_dropShadow_3983_3433"/>
            <feOffset/>
            <feComposite in2="hardAlpha" operator="out"/>
            <feColorMatrix type="matrix" values="0 0 0 0 0 0 0 0 0 0 0 0 0 0 0 0 0 0 0.06 0"/>
            <feBlend mode="normal" in2="BackgroundImageFix" result="effect1_dropShadow_3983_3433"/>
            <feColorMatrix in="SourceAlpha" type="matrix" values="0 0 0 0 0 0 0 0 0 0 0 0 0 0 0 0 0 0 127 0" result="hardAlpha"/>
            <feMorphology radius="1.04697" operator="erode" in="SourceAlpha" result="effect2_dropShadow_3983_3433"/>
            <feOffset/>
            <feGaussianBlur stdDeviation="1.57045"/>
            <feComposite in2="hardAlpha" operator="out"/>
            <feColorMatrix type="matrix" values="0 0 0 0 0 0 0 0 0 0 0 0 0 0 0 0 0 0 0.04 0"/>
            <feBlend mode="normal" in2="effect1_dropShadow_3983_3433" result="effect2_dropShadow_3983_3433"/>
            <feColorMatrix in="SourceAlpha" type="matrix" values="0 0 0 0 0 0 0 0 0 0 0 0 0 0 0 0 0 0 127 0" result="hardAlpha"/>
            <feMorphology radius="6.28182" operator="erode" in="SourceAlpha" result="effect3_dropShadow_3983_3433"/>
            <feOffset dy="16.7515"/>
            <feGaussianBlur stdDeviation="12.5636"/>
            <feComposite in2="hardAlpha" operator="out"/>
            <feColorMatrix type="matrix" values="0 0 0 0 0 0 0 0 0 0 0 0 0 0 0 0 0 0 0.08 0"/>
            <feBlend mode="normal" in2="effect2_dropShadow_3983_3433" result="effect3_dropShadow_3983_3433"/>
            <feBlend mode="normal" in="SourceGraphic" in2="effect3_dropShadow_3983_3433" result="shape"/>
        </filter>
        <filter id="filter1_d_3983_3433" x="81.2779" y="60.7458" width="157.278" height="212.009" filterUnits="userSpaceOnUse" color-interpolation-filters="sRGB">
            <feFlood flood-opacity="0" result="BackgroundImageFix"/>
            <feColorMatrix in="SourceAlpha" type="matrix" values="0 0 0 0 0 0 0 0 0 0 0 0 0 0 0 0 0 0 127 0" result="hardAlpha"/>
            <feOffset dy="-4.18004"/>
            <feGaussianBlur stdDeviation="8.36008"/>
            <feColorMatrix type="matrix" values="0 0 0 0 0.635294 0 0 0 0 0.968627 0 0 0 0 0.94902 0 0 0 0.12 0"/>
            <feBlend mode="normal" in2="BackgroundImageFix" result="effect1_dropShadow_3983_3433"/>
            <feBlend mode="normal" in="SourceGraphic" in2="effect1_dropShadow_3983_3433" result="shape"/>
        </filter>
        <filter id="filter2_d_3983_3433" x="72.7447" y="116.728" width="227.378" height="171.573" filterUnits="userSpaceOnUse" color-interpolation-filters="sRGB">
            <feFlood flood-opacity="0" result="BackgroundImageFix"/>
            <feColorMatrix in="SourceAlpha" type="matrix" values="0 0 0 0 0 0 0 0 0 0 0 0 0 0 0 0 0 0 127 0" result="hardAlpha"/>
            <feOffset dy="-4.18004"/>
            <feGaussianBlur stdDeviation="8.36008"/>
            <feColorMatrix type="matrix" values="0 0 0 0 0.0196078 0 0 0 0 0.0196078 0 0 0 0 0.0196078 0 0 0 0.12 0"/>
            <feBlend mode="normal" in2="BackgroundImageFix" result="effect1_dropShadow_3983_3433"/>
            <feBlend mode="normal" in="SourceGraphic" in2="effect1_dropShadow_3983_3433" result="shape"/>
        </filter>
        <filter id="filter3_d_3983_3433" x="109.862" y="69.2432" width="205.954" height="226.04" filterUnits="userSpaceOnUse" color-interpolation-filters="sRGB">
            <feFlood flood-opacity="0" result="BackgroundImageFix"/>
            <feColorMatrix in="SourceAlpha" type="matrix" values="0 0 0 0 0 0 0 0 0 0 0 0 0 0 0 0 0 0 127 0" result="hardAlpha"/>
            <feOffset dy="-4.18004"/>
            <feGaussianBlur stdDeviation="8.36008"/>
            <feColorMatrix type="matrix" values="0 0 0 0 0.121569 0 0 0 0 0.368627 0 0 0 0 1 0 0 0 0.12 0"/>
            <feBlend mode="normal" in2="BackgroundImageFix" result="effect1_dropShadow_3983_3433"/>
            <feBlend mode="normal" in="SourceGraphic" in2="effect1_dropShadow_3983_3433" result="shape"/>
        </filter>
        <filter id="filter4_d_3983_3433" x="174.106" y="38.3106" width="148.79" height="246.871" filterUnits="userSpaceOnUse" color-interpolation-filters="sRGB">
            <feFlood flood-opacity="0" result="BackgroundImageFix"/>
            <feColorMatrix in="SourceAlpha" type="matrix" values="0 0 0 0 0 0 0 0 0 0 0 0 0 0 0 0 0 0 127 0" result="hardAlpha"/>
            <feOffset dy="-4.18004"/>
            <feGaussianBlur stdDeviation="8.36008"/>
            <feColorMatrix type="matrix" values="0 0 0 0 0.870588 0 0 0 0 0.988235 0 0 0 0 0.396078 0 0 0 0.12 0"/>
            <feBlend mode="normal" in2="BackgroundImageFix" result="effect1_dropShadow_3983_3433"/>
            <feBlend mode="normal" in="SourceGraphic" in2="effect1_dropShadow_3983_3433" result="shape"/>
        </filter>
        <filter id="filter5_d_3983_3433" x="103.781" y="91.5542" width="173.89" height="173.891" filterUnits="userSpaceOnUse" color-interpolation-filters="sRGB">
            <feFlood flood-opacity="0" result="BackgroundImageFix"/>
            <feColorMatrix in="SourceAlpha" type="matrix" values="0 0 0 0 0 0 0 0 0 0 0 0 0 0 0 0 0 0 127 0" result="hardAlpha"/>
            <feOffset dy="4.18004"/>
            <feGaussianBlur stdDeviation="10.4501"/>
            <feColorMatrix type="matrix" values="0 0 0 0 0 0 0 0 0 0 0 0 0 0 0 0 0 0 0.1 0"/>
            <feBlend mode="normal" in2="BackgroundImageFix" result="effect1_dropShadow_3983_3433"/>
            <feBlend mode="normal" in="SourceGraphic" in2="effect1_dropShadow_3983_3433" result="shape"/>
        </filter>
    </defs>
</svg>
