<svg width="149" height="40" viewBox="0 0 149 40" fill="none" xmlns="http://www.w3.org/2000/svg">
<g clip-path="url(#clip0_2597_2008)">
<path d="M52.716 39.1663L26.3982 0.833618L0 39.1663H36.7788L26.3982 24.5366L21.249 32.1381H15.7764L26.4017 16.8547L41.762 39.1682L52.716 39.1663Z" fill="url(#paint0_linear_2597_2008)"/>
<path d="M74.761 19.7428C74.461 19.7428 74.3324 19.8714 74.3324 20.1714V22.7434C74.3324 23.0435 74.461 23.1721 74.761 23.1721H83.2913V27.6801C82.362 29.1047 81.07 30.256 79.5482 31.0157C78.0263 31.7754 76.3296 32.116 74.6324 32.0024C68.2454 32.0024 64.3018 27.8944 64.3018 20C64.3018 12.1555 68.9313 7.99756 74.2038 7.99756C78.3118 7.99756 81.6624 9.62646 82.7341 13.5701C82.752 13.6924 82.8144 13.8037 82.9093 13.8828C83.0043 13.9619 83.125 14.0032 83.2485 13.9988H85.9847C86.2848 13.9988 86.4563 13.8702 86.4563 13.5701C85.2989 7.56891 80.155 4.5683 74.1966 4.5683C67.5096 4.5683 60.5225 9.71219 60.5225 20C60.5225 30.1592 67.1309 35.4317 74.7968 35.4317C77.1086 35.502 79.399 34.9699 81.4431 33.8877C83.4872 32.8056 85.2148 31.2105 86.4563 29.259C86.763 28.7729 86.9127 28.2042 86.8849 27.6301V20.1786C86.8849 19.8785 86.7563 19.7499 86.4563 19.7499L74.761 19.7428ZM119.256 5.42562C119.256 5.12556 119.127 4.99696 118.827 4.99696H114.755C114.609 4.98236 114.463 5.01653 114.339 5.09411C114.215 5.1717 114.12 5.2883 114.069 5.42562L105.753 24.5009L97.437 5.42562C97.3863 5.2883 97.2915 5.1717 97.1674 5.09411C97.0432 5.01653 96.8968 4.98236 96.7512 4.99696H92.6789C92.3789 4.99696 92.2503 5.12556 92.2503 5.42562V34.5744C92.2503 34.8744 92.3789 35.003 92.6789 35.003H95.4224C95.7224 35.003 95.851 34.8744 95.851 34.5744V10.6124L104.246 29.6019C104.288 29.7156 104.364 29.8136 104.463 29.8826C104.563 29.9516 104.682 29.9883 104.803 29.9877H106.703C106.824 29.9883 106.943 29.9516 107.043 29.8826C107.142 29.8136 107.218 29.7156 107.26 29.6019L115.655 10.6124V34.5744C115.655 34.8744 115.784 35.003 116.084 35.003H118.827C119.127 35.003 119.256 34.8744 119.256 34.5744V5.42562ZM128.6 5.42562C128.3 5.03982 128.3 4.99696 128 4.99696H124.7C124.4 4.99696 124.271 5.21129 124.4 5.42562L133.487 19.1784L123.285 34.5744C123.157 34.7887 123.285 35.003 123.585 35.003H126.8C127.1 35.003 127.186 34.9601 127.486 34.5744L135.638 22.3219L143.775 34.5744C144.075 34.9601 144.161 35.003 144.461 35.003H147.676C147.976 35.003 148.104 34.7887 147.976 34.5744L137.781 19.1855L146.868 5.43276C146.997 5.21843 146.868 5.0041 146.568 5.0041H143.261C142.961 5.0041 142.961 5.04697 142.66 5.43276L135.638 16.0135L128.6 5.42562Z" fill="#171714"/>
</g>
<defs>
<linearGradient id="paint0_linear_2597_2008" x1="28.2558" y1="1.83032" x2="11.8839" y2="43.5989" gradientUnits="userSpaceOnUse">
<stop stop-color="#03D1CF" stop-opacity="0.988"/>
<stop offset="1" stop-color="#4E09F8"/>
</linearGradient>
<clipPath id="clip0_2597_2008">
<rect width="148.026" height="38.3327" fill="white" transform="translate(0 0.833618)"/>
</clipPath>
</defs>
</svg>
