<svg width="20" height="20" viewBox="0 0 20 20" fill="none" xmlns="http://www.w3.org/2000/svg">
<path d="M12.3125 9.8125C12.3125 10.307 12.1659 10.7903 11.8912 11.2014C11.6165 11.6125 11.226 11.933 10.7692 12.1222C10.3124 12.3114 9.80973 12.3609 9.32477 12.2645C8.83982 12.168 8.39436 11.9299 8.04473 11.5803C7.6951 11.2306 7.457 10.7852 7.36054 10.3002C7.26407 9.81527 7.31358 9.31261 7.5028 8.85579C7.69202 8.39898 8.01245 8.00853 8.42357 7.73383C8.8347 7.45912 9.31805 7.3125 9.8125 7.3125C10.4753 7.31326 11.1108 7.57689 11.5794 8.04557C12.0481 8.51425 12.3117 9.14969 12.3125 9.8125ZM17.625 6.375V13.25C17.6237 14.4099 17.1623 15.522 16.3421 16.3421C15.522 17.1623 14.4099 17.6237 13.25 17.625H6.375C5.21508 17.6237 4.10305 17.1623 3.28286 16.3421C2.46267 15.522 2.00131 14.4099 2 13.25V6.375C2.00131 5.21508 2.46267 4.10305 3.28286 3.28286C4.10305 2.46267 5.21508 2.00131 6.375 2H13.25C14.4099 2.00131 15.522 2.46267 16.3421 3.28286C17.1623 4.10305 17.6237 5.21508 17.625 6.375ZM13.5625 9.8125C13.5625 9.07082 13.3426 8.3458 12.9305 7.72911C12.5185 7.11243 11.9328 6.63178 11.2476 6.34795C10.5623 6.06412 9.80834 5.98986 9.08091 6.13456C8.35348 6.27925 7.6853 6.6364 7.16085 7.16085C6.6364 7.6853 6.27925 8.35348 6.13456 9.08091C5.98986 9.80834 6.06412 10.5623 6.34795 11.2476C6.63178 11.9328 7.11243 12.5185 7.72911 12.9305C8.3458 13.3426 9.07082 13.5625 9.8125 13.5625C10.8067 13.5614 11.7599 13.1659 12.4629 12.4629C13.1659 11.7599 13.5614 10.8067 13.5625 9.8125ZM14.8125 5.75C14.8125 5.56458 14.7575 5.38332 14.6545 5.22915C14.5515 5.07498 14.4051 4.95482 14.2338 4.88386C14.0625 4.81291 13.874 4.79434 13.6921 4.83051C13.5102 4.86669 13.3432 4.95598 13.2121 5.08709C13.081 5.2182 12.9917 5.38525 12.9555 5.5671C12.9193 5.74896 12.9379 5.93746 13.0089 6.10877C13.0798 6.28007 13.2 6.42649 13.3542 6.5295C13.5083 6.63252 13.6896 6.6875 13.875 6.6875C14.1236 6.6875 14.3621 6.58873 14.5379 6.41291C14.7137 6.2371 14.8125 5.99864 14.8125 5.75Z" fill="white"/>
</svg>
