<svg width="24" height="24" viewBox="0 0 24 24" fill="none" xmlns="http://www.w3.org/2000/svg">
<path d="M19.8184 13.6833V19.1995C19.8184 19.3349 19.7023 19.4511 19.5668 19.4511H16.7216C16.5861 19.4511 16.47 19.3349 16.47 19.1995V14.0704C16.47 12.7156 15.9861 11.7866 14.7668 11.7866C13.8377 11.7866 13.2958 12.4059 13.0442 13.0059C12.9474 13.2188 12.9281 13.5285 12.9281 13.8188V19.1995C12.9281 19.3349 12.8119 19.4511 12.6764 19.4511H9.85064C9.71516 19.4511 9.59903 19.3349 9.59903 19.1995C9.59903 17.8253 9.63774 11.1866 9.59903 9.63817C9.59903 9.50268 9.71516 9.38656 9.85064 9.38656H12.6958C12.8313 9.38656 12.9474 9.50268 12.9474 9.63817V10.8188C12.9474 10.8382 12.9281 10.8382 12.9281 10.8575H12.9474V10.8188C13.3926 10.1414 14.1861 9.1543 15.9668 9.1543C18.1732 9.1543 19.8184 10.6059 19.8184 13.6833ZM4.64419 19.4704H7.48935C7.62484 19.4704 7.74097 19.3543 7.74097 19.2188V9.63817C7.74097 9.50268 7.62484 9.38656 7.48935 9.38656H4.64419C4.50871 9.38656 4.39258 9.50268 4.39258 9.63817V19.2188C4.41193 19.3543 4.50871 19.4704 4.64419 19.4704Z" fill="white"/>
<path d="M5.97969 8.1293C6.9738 8.1293 7.77969 7.32341 7.77969 6.3293C7.77969 5.33518 6.9738 4.5293 5.97969 4.5293C4.98557 4.5293 4.17969 5.33518 4.17969 6.3293C4.17969 7.32341 4.98557 8.1293 5.97969 8.1293Z" fill="white"/>
</svg>
