<svg width="32" height="32" viewBox="0 0 32 32" fill="none" xmlns="http://www.w3.org/2000/svg">
<path d="M29.3333 11.3333C29.3333 16.12 25.4533 20 20.6667 20C20.44 20 20.2 19.9867 19.9733 19.9734C19.64 15.7467 16.2533 12.36 12.0267 12.0267C12.0133 11.8 12 11.56 12 11.3333C12 6.54667 15.88 2.66667 20.6667 2.66667C25.4533 2.66667 29.3333 6.54667 29.3333 11.3333Z" stroke="white" stroke-width="3" stroke-linecap="round" stroke-linejoin="round"/>
<path d="M20.0003 20.6667C20.0003 25.4533 16.1203 29.3333 11.3337 29.3333C6.54699 29.3333 2.66699 25.4533 2.66699 20.6667C2.66699 15.88 6.54699 12 11.3337 12C11.5603 12 11.8003 12.0133 12.027 12.0267C16.2536 12.36 19.6403 15.7467 19.9737 19.9733C19.987 20.2 20.0003 20.44 20.0003 20.6667Z" stroke="white" stroke-width="3" stroke-linecap="round" stroke-linejoin="round"/>
<path d="M7.45365 2.66667H4.00033C3.26699 2.66667 2.66699 3.26667 2.66699 4.00001V7.45333C2.66699 8.64 4.10698 9.23999 4.94698 8.39999L8.40031 4.94666C9.22698 4.10666 8.64032 2.66667 7.45365 2.66667Z" stroke="white" stroke-width="3" stroke-linecap="round" stroke-linejoin="round"/>
<path d="M24.5466 29.3333H27.9999C28.7333 29.3333 29.3333 28.7333 29.3333 28V24.5467C29.3333 23.36 27.8933 22.76 27.0533 23.6L23.6 27.0534C22.7733 27.8934 23.36 29.3333 24.5466 29.3333Z" stroke="white" stroke-width="3" stroke-linecap="round" stroke-linejoin="round"/>
</svg>
